  0
SECTION
  2
HEADER
  9
$ACADVER
  1
AC1024
  9
$ACADMAINTVER
 70
     6
  9
$DWGCODEPAGE
  3
ANSI_1252
  9
$INSBASE
 10
0.0
 20
0.0
 30
0.0
  9
$EXTMIN
 10
1.000000000000000E+20
 20
1.000000000000000E+20
 30
1.000000000000000E+20
  9
$EXTMAX
 10
-1.000000000000000E+20
 20
-1.000000000000000E+20
 30
-1.000000000000000E+20
  9
$LIMMIN
 10
0.0
 20
0.0
  9
$LIMMAX
 10
12.0
 20
9.0
  9
$ORTHOMODE
 70
     0
  9
$REGENMODE
 70
     1
  9
$FILLMODE
 70
     1
  9
$QTEXTMODE
 70
     0
  9
$MIRRTEXT
 70
     1
  9
$LTSCALE
 40
1.0
  9
$ATTMODE
 70
     1
  9
$TEXTSIZE
 40
0.2
  9
$TRACEWID
 40
0.05
  9
$TEXTSTYLE
  7
Standard
  9
$CLAYER
  8
0
  9
$CELTYPE
  6
ByLayer
  9
$CECOLOR
 62
   256
  9
$CELTSCALE
 40
1.0
  9
$DISPSILH
 70
     0
  9
$DIMSCALE
 40
1.0
  9
$DIMASZ
 40
0.18
  9
$DIMEXO
 40
0.0625
  9
$DIMDLI
 40
0.38
  9
$DIMRND
 40
0.0
  9
$DIMDLE
 40
0.0
  9
$DIMEXE
 40
0.18
  9
$DIMTP
 40
0.0
  9
$DIMTM
 40
0.0
  9
$DIMTXT
 40
0.18
  9
$DIMCEN
 40
0.09
  9
$DIMTSZ
 40
0.0
  9
$DIMTOL
 70
     0
  9
$DIMLIM
 70
     0
  9
$DIMTIH
 70
     1
  9
$DIMTOH
 70
     1
  9
$DIMSE1
 70
     0
  9
$DIMSE2
 70
     0
  9
$DIMTAD
 70
     0
  9
$DIMZIN
 70
     0
  9
$DIMBLK
  1

  9
$DIMASO
 70
     1
  9
$DIMSHO
 70
     1
  9
$DIMPOST
  1

  9
$DIMAPOST
  1

  9
$DIMALT
 70
     0
  9
$DIMALTD
 70
     2
  9
$DIMALTF
 40
25.4
  9
$DIMLFAC
 40
1.0
  9
$DIMTOFL
 70
     0
  9
$DIMTVP
 40
0.0
  9
$DIMTIX
 70
     0
  9
$DIMSOXD
 70
     0
  9
$DIMSAH
 70
     0
  9
$DIMBLK1
  1

  9
$DIMBLK2
  1

  9
$DIMSTYLE
  2
Standard
  9
$DIMCLRD
 70
     0
  9
$DIMCLRE
 70
     0
  9
$DIMCLRT
 70
     0
  9
$DIMTFAC
 40
1.0
  9
$DIMGAP
 40
0.09
  9
$DIMJUST
 70
     0
  9
$DIMSD1
 70
     0
  9
$DIMSD2
 70
     0
  9
$DIMTOLJ
 70
     1
  9
$DIMTZIN
 70
     0
  9
$DIMALTZ
 70
     0
  9
$DIMALTTZ
 70
     0
  9
$DIMUPT
 70
     0
  9
$DIMDEC
 70
     4
  9
$DIMTDEC
 70
     4
  9
$DIMALTU
 70
     2
  9
$DIMALTTD
 70
     2
  9
$DIMTXSTY
  7
Standard
  9
$DIMAUNIT
 70
     0
  9
$DIMADEC
 70
     0
  9
$DIMALTRND
 40
0.0
  9
$DIMAZIN
 70
     0
  9
$DIMDSEP
 70
    46
  9
$DIMATFIT
 70
     3
  9
$DIMFRAC
 70
     0
  9
$DIMLDRBLK
  1

  9
$DIMLUNIT
 70
     2
  9
$DIMLWD
 70
    -2
  9
$DIMLWE
 70
    -2
  9
$DIMTMOVE
 70
     0
  9
$DIMFXL
 40
1.0
  9
$DIMFXLON
 70
     0
  9
$DIMJOGANG
 40
0.7853981633974483
  9
$DIMTFILL
 70
     0
  9
$DIMTFILLCLR
 70
     0
  9
$DIMARCSYM
 70
     0
  9
$DIMLTYPE
  6

  9
$DIMLTEX1
  6

  9
$DIMLTEX2
  6

  9
$DIMTXTDIRECTION
 70
     0
  9
$LUNITS
 70
     2
  9
$LUPREC
 70
     4
  9
$SKETCHINC
 40
0.1
  9
$FILLETRAD
 40
0.5
  9
$AUNITS
 70
     0
  9
$AUPREC
 70
     0
  9
$MENU
  1
.
  9
$ELEVATION
 40
0.0
  9
$PELEVATION
 40
0.0
  9
$THICKNESS
 40
0.0
  9
$LIMCHECK
 70
     0
  9
$CHAMFERA
 40
0.5
  9
$CHAMFERB
 40
0.5
  9
$CHAMFERC
 40
1.0
  9
$CHAMFERD
 40
0.0
  9
$SKPOLY
 70
     0
  9
$TDCREATE
 40
2460697.482163738
  9
$TDUCREATE
 40
2460697.440497072
  9
$TDUPDATE
 40
2460697.482163831
  9
$TDUUPDATE
 40
2460697.440497164
  9
$TDINDWG
 40
0.0000000116
  9
$TDUSRTIMER
 40
0.0000000116
  9
$USRTIMER
 70
     1
  9
$ANGBASE
 50
0.0
  9
$ANGDIR
 70
     0
  9
$PDMODE
 70
     0
  9
$PDSIZE
 40
0.0
  9
$PLINEWID
 40
0.0
  9
$SPLFRAME
 70
     0
  9
$SPLINETYPE
 70
     6
  9
$SPLINESEGS
 70
     8
  9
$HANDSEED
  5
4D
  9
$SURFTAB1
 70
     6
  9
$SURFTAB2
 70
     6
  9
$SURFTYPE
 70
     6
  9
$SURFU
 70
     6
  9
$SURFV
 70
     6
  9
$UCSBASE
  2

  9
$UCSNAME
  2

  9
$UCSORG
 10
0.0
 20
0.0
 30
0.0
  9
$UCSXDIR
 10
1.0
 20
0.0
 30
0.0
  9
$UCSYDIR
 10
0.0
 20
1.0
 30
0.0
  9
$UCSORTHOREF
  2

  9
$UCSORTHOVIEW
 70
     0
  9
$UCSORGTOP
 10
0.0
 20
0.0
 30
0.0
  9
$UCSORGBOTTOM
 10
0.0
 20
0.0
 30
0.0
  9
$UCSORGLEFT
 10
0.0
 20
0.0
 30
0.0
  9
$UCSORGRIGHT
 10
0.0
 20
0.0
 30
0.0
  9
$UCSORGFRONT
 10
0.0
 20
0.0
 30
0.0
  9
$UCSORGBACK
 10
0.0
 20
0.0
 30
0.0
  9
$PUCSBASE
  2

  9
$PUCSNAME
  2

  9
$PUCSORG
 10
0.0
 20
0.0
 30
0.0
  9
$PUCSXDIR
 10
1.0
 20
0.0
 30
0.0
  9
$PUCSYDIR
 10
0.0
 20
1.0
 30
0.0
  9
$PUCSORTHOREF
  2

  9
$PUCSORTHOVIEW
 70
     0
  9
$PUCSORGTOP
 10
0.0
 20
0.0
 30
0.0
  9
$PUCSORGBOTTOM
 10
0.0
 20
0.0
 30
0.0
  9
$PUCSORGLEFT
 10
0.0
 20
0.0
 30
0.0
  9
$PUCSORGRIGHT
 10
0.0
 20
0.0
 30
0.0
  9
$PUCSORGFRONT
 10
0.0
 20
0.0
 30
0.0
  9
$PUCSORGBACK
 10
0.0
 20
0.0
 30
0.0
  9
$USERI1
 70
     0
  9
$USERI2
 70
     0
  9
$USERI3
 70
     0
  9
$USERI4
 70
     0
  9
$USERI5
 70
     0
  9
$USERR1
 40
0.0
  9
$USERR2
 40
0.0
  9
$USERR3
 40
0.0
  9
$USERR4
 40
0.0
  9
$USERR5
 40
0.0
  9
$WORLDVIEW
 70
     1
  9
$SHADEDGE
 70
     3
  9
$SHADEDIF
 70
    70
  9
$TILEMODE
 70
     1
  9
$MAXACTVP
 70
    64
  9
$PINSBASE
 10
0.0
 20
0.0
 30
0.0
  9
$PLIMCHECK
 70
     0
  9
$PEXTMIN
 10
1.000000000000000E+20
 20
1.000000000000000E+20
 30
1.000000000000000E+20
  9
$PEXTMAX
 10
-1.000000000000000E+20
 20
-1.000000000000000E+20
 30
-1.000000000000000E+20
  9
$PLIMMIN
 10
0.0
 20
0.0
  9
$PLIMMAX
 10
12.0
 20
9.0
  9
$UNITMODE
 70
     0
  9
$VISRETAIN
 70
     1
  9
$PLINEGEN
 70
     0
  9
$PSLTSCALE
 70
     1
  9
$TREEDEPTH
 70
  3020
  9
$CMLSTYLE
  2
Standard
  9
$CMLJUST
 70
     0
  9
$CMLSCALE
 40
1.0
  9
$PROXYGRAPHICS
 70
     1
  9
$MEASUREMENT
 70
     0
  9
$CELWEIGHT
370
    -1
  9
$ENDCAPS
280
     0
  9
$JOINSTYLE
280
     0
  9
$LWDISPLAY
290
     1
  9
$INSUNITS
 70
     4
  9
$HYPERLINKBASE
  1

  9
$STYLESHEET
  1

  9
$XEDIT
290
     1
  9
$CEPSNTYPE
380
     0
  9
$PSTYLEMODE
290
     1
  9
$FINGERPRINTGUID
  2
{AF2B7123-9E2B-40F4-A55E-9C2BDE856B12}
  9
$VERSIONGUID
  2
{FAEB1C32-E019-11D5-929B-00C0DF256EC4}
  9
$EXTNAMES
290
     1
  9
$PSVPSCALE
 40
0.0
  9
$OLESTARTUP
290
     0
  9
$SORTENTS
280
   127
  9
$INDEXCTL
280
     0
  9
$HIDETEXT
280
     1
  9
$XCLIPFRAME
280
     2
  9
$HALOGAP
280
     0
  9
$OBSCOLOR
 70
   257
  9
$OBSLTYPE
280
     0
  9
$INTERSECTIONDISPLAY
280
     0
  9
$INTERSECTIONCOLOR
 70
   257
  9
$DIMASSOC
280
     2
  9
$PROJECTNAME
  1

  9
$CAMERADISPLAY
290
     0
  9
$LENSLENGTH
 40
50.0
  9
$CAMERAHEIGHT
 40
0.0
  9
$STEPSPERSEC
 40
2.0
  9
$STEPSIZE
 40
6.0
  9
$3DDWFPREC
 40
2.0
  9
$PSOLWIDTH
 40
0.25
  9
$PSOLHEIGHT
 40
4.0
  9
$LOFTANG1
 40
1.570796326794897
  9
$LOFTANG2
 40
1.570796326794897
  9
$LOFTMAG1
 40
0.0
  9
$LOFTMAG2
 40
0.0
  9
$LOFTPARAM
 70
     7
  9
$LOFTNORMALS
280
     1
  9
$LATITUDE
 40
37.795
  9
$LONGITUDE
 40
-122.394
  9
$NORTHDIRECTION
 40
0.0
  9
$TIMEZONE
 70
 -8000
  9
$LIGHTGLYPHDISPLAY
280
     1
  9
$TILEMODELIGHTSYNCH
280
     1
  9
$CMATERIAL
347
3C
  9
$SOLIDHIST
280
     1
  9
$SHOWHIST
280
     1
  9
$DWFFRAME
280
     2
  9
$DGNFRAME
280
     2
  9
$REALWORLDSCALE
290
     1
  9
$INTERFERECOLOR
 62
   256
  9
$CSHADOW
280
     0
  9
$SHADOWPLANELOCATION
 40
0.0
  0
ENDSEC
  0
SECTION
  2
CLASSES
  0
CLASS
  1
ACDBDICTIONARYWDFLT
  2
AcDbDictionaryWithDefault
  3
ObjectDBX Classes
 90
        0
 91
        4
280
     0
281
     0
  0
CLASS
  1
VISUALSTYLE
  2
AcDbVisualStyle
  3
ObjectDBX Classes
 90
     4095
 91
        4
280
     0
281
     0
  0
CLASS
  1
MATERIAL
  2
AcDbMaterial
  3
ObjectDBX Classes
 90
     1153
 91
        4
280
     0
281
     0
  0
CLASS
  1
SUN
  2
AcDbSun
  3
SCENEOE
 90
     1024
 91
        4
280
     0
281
     0
  0
ENDSEC
  0
SECTION
  2
TABLES
  0
TABLE
  2
VPORT
  5
8
330
0
100
AcDbSymbolTable
 70
     1
  0
VPORT
  5
29
330
8
100
AcDbSymbolTableRecord
100
AcDbViewportTableRecord
  2
*Active
 70
     0
 10
0.0
 20
0.0
 11
1.0
 21
1.0
 12
0.0
 22
0.0
 13
0.0
 23
0.0
 14
0.5
 24
0.5
 15
0.5
 25
0.5
 16
0.0
 26
0.0
 36
1.0
 17
139.6227346237255
 27
-154.8481927323726
 37
0.0
 40
665.6024094721538
 41
1.102832967448023
 42
50.0
 43
0.0
 44
0.0
 50
0.0
 51
0.0
 71
     0
 72
   100
 73
     1
 74
     3
 75
     0
 76
     0
 77
     0
 78
     0
281
     0
 65
     1
110
0.0
120
0.0
130
0.0
111
1.0
121
0.0
131
0.0
112
0.0
122
1.0
132
0.0
 79
     0
146
0.0
 60
     3
 61
     5
292
     1
282
     1
141
0.0
142
0.0
 63
   250
361
3F
  0
ENDTAB
  0
TABLE
  2
LTYPE
  5
5
330
0
100
AcDbSymbolTable
 70
     1
  0
LTYPE
  5
14
330
5
100
AcDbSymbolTableRecord
100
AcDbLinetypeTableRecord
  2
ByBlock
 70
     0
  3

 72
    65
 73
     0
 40
0.0
  0
LTYPE
  5
15
330
5
100
AcDbSymbolTableRecord
100
AcDbLinetypeTableRecord
  2
ByLayer
 70
     0
  3

 72
    65
 73
     0
 40
0.0
  0
LTYPE
  5
16
330
5
100
AcDbSymbolTableRecord
100
AcDbLinetypeTableRecord
  2
Continuous
 70
     0
  3
Solid line
 72
    65
 73
     0
 40
0.0
  0
ENDTAB
  0
TABLE
  2
LAYER
  5
2
330
0
100
AcDbSymbolTable
 70
     2
  0
LAYER
  5
10
330
2
100
AcDbSymbolTableRecord
100
AcDbLayerTableRecord
  2
0
 70
     0
 62
     7
  6
Continuous
370
    -3
390
F
347
3E
  0
LAYER
  5
40
330
2
100
AcDbSymbolTableRecord
100
AcDbLayerTableRecord
  2
Layer 1
 70
     0
 62
     7
  6
Continuous
370
    -3
390
F
347
3E
  0
ENDTAB
  0
TABLE
  2
STYLE
  5
3
330
0
100
AcDbSymbolTable
 70
     1
  0
STYLE
  5
11
330
3
100
AcDbSymbolTableRecord
100
AcDbTextStyleTableRecord
  2
Standard
 70
     0
 40
0.0
 41
1.0
 50
0.0
 71
     0
 42
0.2
  3
txt
  4

  0
ENDTAB
  0
TABLE
  2
VIEW
  5
6
330
0
100
AcDbSymbolTable
 70
     0
  0
ENDTAB
  0
TABLE
  2
UCS
  5
7
330
0
100
AcDbSymbolTable
 70
     0
  0
ENDTAB
  0
TABLE
  2
APPID
  5
9
330
0
100
AcDbSymbolTable
 70
     1
  0
APPID
  5
12
330
9
100
AcDbSymbolTableRecord
100
AcDbRegAppTableRecord
  2
ACAD
 70
     0
  0
ENDTAB
  0
TABLE
  2
DIMSTYLE
  5
A
330
0
100
AcDbSymbolTable
 70
     1
100
AcDbDimStyleTable
  0
DIMSTYLE
105
27
330
A
100
AcDbSymbolTableRecord
100
AcDbDimStyleTableRecord
  2
Standard
 70
     0
178
     0
340
11
  0
ENDTAB
  0
TABLE
  2
BLOCK_RECORD
  5
1
330
0
100
AcDbSymbolTable
 70
     1
  0
BLOCK_RECORD
  5
1F
330
1
100
AcDbSymbolTableRecord
100
AcDbBlockTableRecord
  2
*Model_Space
340
22
 70
     0
280
     1
281
     0
  0
BLOCK_RECORD
  5
1B
330
1
100
AcDbSymbolTableRecord
100
AcDbBlockTableRecord
  2
*Paper_Space
340
1E
 70
     0
280
     1
281
     0
  0
BLOCK_RECORD
  5
23
330
1
100
AcDbSymbolTableRecord
100
AcDbBlockTableRecord
  2
*Paper_Space0
340
26
 70
     0
280
     1
281
     0
  0
ENDTAB
  0
ENDSEC
  0
SECTION
  2
BLOCKS
  0
BLOCK
  5
20
330
1F
100
AcDbEntity
  8
0
100
AcDbBlockBegin
  2
*Model_Space
 70
     0
 10
0.0
 20
0.0
 30
0.0
  3
*Model_Space
  1

  0
ENDBLK
  5
21
330
1F
100
AcDbEntity
  8
0
100
AcDbBlockEnd
  0
BLOCK
  5
1C
330
1B
100
AcDbEntity
 67
     1
  8
0
100
AcDbBlockBegin
  2
*Paper_Space
 70
     0
 10
0.0
 20
0.0
 30
0.0
  3
*Paper_Space
  1

  0
ENDBLK
  5
1D
330
1B
100
AcDbEntity
 67
     1
  8
0
100
AcDbBlockEnd
  0
BLOCK
  5
24
330
23
100
AcDbEntity
  8
0
100
AcDbBlockBegin
  2
*Paper_Space0
 70
     0
 10
0.0
 20
0.0
 30
0.0
  3
*Paper_Space0
  1

  0
ENDBLK
  5
25
330
23
100
AcDbEntity
  8
0
100
AcDbBlockEnd
  0
ENDSEC
  0
SECTION
  2
ENTITIES
  0
SPLINE
  5
41
330
1F
100
AcDbEntity
  8
Layer 1
 62
   250
420
  2301728
370
   106
100
AcDbSpline
210
0.0
220
0.0
230
1.0
 70
    11
 71
     3
 72
    86
 73
    82
 74
     0
 42
0.0000000001
 43
0.0000000001
 12
1.0
 22
0.0
 32
0.0
 13
1.0
 23
0.0
 33
0.0
 40
0.0
 40
0.0
 40
0.0
 40
0.0
 40
1.0
 40
1.0
 40
1.0
 40
2.0
 40
2.0
 40
2.0
 40
3.0
 40
3.0
 40
3.0
 40
4.0
 40
4.0
 40
4.0
 40
5.0
 40
5.0
 40
5.0
 40
6.0
 40
6.0
 40
6.0
 40
7.0
 40
7.0
 40
7.0
 40
8.0
 40
8.0
 40
8.0
 40
9.0
 40
9.0
 40
9.0
 40
10.0
 40
10.0
 40
10.0
 40
11.0
 40
11.0
 40
11.0
 40
12.0
 40
12.0
 40
12.0
 40
13.0
 40
13.0
 40
13.0
 40
14.0
 40
14.0
 40
14.0
 40
15.0
 40
15.0
 40
15.0
 40
16.0
 40
16.0
 40
16.0
 40
17.0
 40
17.0
 40
17.0
 40
18.0
 40
18.0
 40
18.0
 40
19.0
 40
19.0
 40
19.0
 40
20.0
 40
20.0
 40
20.0
 40
21.0
 40
21.0
 40
21.0
 40
22.0
 40
22.0
 40
22.0
 40
23.0
 40
23.0
 40
23.0
 40
24.0
 40
24.0
 40
24.0
 40
25.0
 40
25.0
 40
25.0
 40
26.0
 40
26.0
 40
26.0
 40
27.0
 40
27.0
 40
27.0
 40
27.0
 10
433.1785543928502
 20
7.771230559384313
 30
0.0
 10
433.0536266178163
 20
8.03374683536035
 30
0.0
 10
432.921507205957
 20
8.292107464907305
 30
0.0
 10
432.7854689979832
 20
8.548099591308151
 30
0.0
 10
432.7821961572722
 20
8.55421463579447
 30
0.0
 10
432.7787941254805
 20
8.560200489200092
 30
0.0
 10
432.7755212847695
 20
8.56631553368641
 30
0.0
 10
432.5900028928888
 20
8.914571623551604
 30
0.0
 10
432.3954411253594
 20
9.25727249694683
 30
0.0
 10
432.1900273070513
 20
9.592781733516599
 30
0.0
 10
430.4780732330436
 20
12.43560993240442
 30
0.0
 10
428.2975000456547
 20
14.70476513745779
 30
0.0
 10
425.6320727324104
 20
16.31521808573139
 30
0.0
 10
404.4238065430511
 20
29.12933687050529
 30
0.0
 10
360.6094266711921
 20
-4.543586230342973
 30
0.0
 10
327.7698937000726
 20
-58.89532894000808
 30
0.0
 10
321.2256979755259
 20
-69.72645076347217
 30
0.0
 10
315.6145632994656
 20
-80.56032866332447
 30
0.0
 10
310.9868957252102
 20
-91.06890342198204
 30
0.0
 10
285.138408894921
 20
-145.7691821355205
 30
0.0
 10
236.4376993734048
 20
-187.5346775949142
 30
0.0
 10
177.1894424505541
 20
-204.1220587417548
 30
0.0
 10
177.1894424505541
 20
-204.1220587417548
 30
0.0
 10
63.03792609454333
 20
-204.1220587417548
 30
0.0
 10
63.03792609454333
 20
-204.1220587417548
 30
0.0
 10
21.68709094049302
 20
-192.5367624528759
 30
0.0
 10
-14.53214529719697
 20
-168.6729520679456
 30
0.0
 10
-41.43302267084284
 20
-136.7050282545943
 30
0.0
 10
-71.26162831524115
 20
-101.2579455743827
 30
0.0
 10
-115.2864604575553
 20
-80.8787200817019
 30
0.0
 10
-161.6140159540572
 20
-80.8787200817019
 30
0.0
 10
-161.6140159540572
 20
-80.8787200817019
 30
0.0
 10
-161.6141236132911
 20
-80.8787200817019
 30
0.0
 10
-161.6141236132911
 20
-80.8787200817019
 30
0.0
 10
-172.4454176915294
 20
-80.87869854985512
 30
0.0
 10
-180.2669471627728
 20
-90.69963224965683
 30
0.0
 10
-178.4637841857931
 20
-100.9377670127223
 30
0.0
 10
-178.4637841857931
 20
-100.9377670127223
 30
0.0
 10
-178.4725045837401
 20
-100.9287021052267
 30
0.0
 10
-178.4725045837401
 20
-100.9287021052267
 30
0.0
 10
-178.4725045837401
 20
-100.9287021052267
 30
0.0
 10
-178.4522431159175
 20
-101.0018673205947
 30
0.0
 10
-178.4522431159175
 20
-101.0018673205947
 30
0.0
 10
-178.2955773987257
 20
-101.872184567556
 30
0.0
 10
-178.077545918203
 20
-102.744999508744
 30
0.0
 10
-177.7774350377442
 20
-103.6152952238585
 30
0.0
 10
-177.6997911982454
 20
-103.8404537456663
 30
0.0
 10
-177.6194558778987
 20
-104.064341888514
 30
0.0
 10
-177.5413168059239
 20
-104.2892635600073
 30
0.0
 10
-177.5413168059239
 20
-104.2892635600073
 30
0.0
 10
-120.6399019913189
 20
-309.641759168391
 30
0.0
 10
-120.6399019913189
 20
-309.641759168391
 30
0.0
 10
-120.1974225399321
 20
-311.2386255213447
 30
0.0
 10
-117.8451759381439
 20
-310.9187484055392
 30
0.0
 10
-117.8451759381439
 20
-309.2617220726744
 30
0.0
 10
-117.8451759381439
 20
-309.2617220726744
 30
0.0
 10
-117.8451759381439
 20
-259.7277300806634
 30
0.0
 10
-117.8451759381439
 20
-259.7277300806634
 30
0.0
 10
-117.8451759381439
 20
-259.7277300806634
 30
0.0
 10
-60.84516679712045
 20
-259.7277300806634
 30
0.0
 10
-60.84516679712045
 20
-259.7277300806634
 30
0.0
 10
-60.84516679712045
 20
-259.7277300806634
 30
0.0
 10
-60.84516679712045
 20
-315.539439661437
 30
0.0
 10
-60.84516679712045
 20
-315.539439661437
 30
0.0
 10
-60.84516679712045
 20
-317.8380073691957
 30
0.0
 10
-58.95587643300944
 20
-319.6875284122989
 30
0.0
 10
-56.65782548957353
 20
-319.6386511201019
 30
0.0
 10
-56.65782548957353
 20
-319.6386511201019
 30
0.0
 10
120.0828291361089
 20
-315.8788246304277
 30
0.0
 10
120.0828291361089
 20
-315.8788246304277
 30
0.0
 10
279.9940200615717
 20
-315.8789107578148
 30
0.0
 10
412.6189996833634
 20
-196.7193452222839
 30
0.0
 10
432.9216363970377
 20
-42.35045165871678
 30
0.0
 10
433.278203779761
 20
-40.5816319773556
 30
0.0
 10
433.6119904685882
 20
-38.84248318086113
 30
0.0
 10
433.9255802851331
 20
-37.12869889987682
 30
0.0
 10
435.2692536517677
 20
-25.39879472800461
 30
0.0
 10
435.9677898250956
 20
-13.47292921856203
 30
0.0
 10
435.9850583662154
 20
-1.387060555676375
 30
0.0
 10
435.4128280061154
 20
2.037816525444403
 30
0.0
 10
434.4966909892004
 20
5.105480268438337
 30
0.0
 10
433.1785543928502
 20
7.771230559384313
 30
0.0
  0
SPLINE
  5
42
330
1F
100
AcDbEntity
  8
Layer 1
 62
   250
420
  2301728
370
   106
100
AcDbSpline
210
0.0
220
0.0
230
1.0
 70
    11
 71
     3
 72
    17
 73
    13
 74
     0
 42
0.0000000001
 43
0.0000000001
 12
1.0
 22
0.0
 32
0.0
 13
1.0
 23
0.0
 33
0.0
 40
0.0
 40
0.0
 40
0.0
 40
0.0
 40
1.0
 40
1.0
 40
1.0
 40
2.0
 40
2.0
 40
2.0
 40
3.0
 40
3.0
 40
3.0
 40
4.0
 40
4.0
 40
4.0
 40
4.0
 10
-152.7119968794055
 20
-101.6990685194222
 30
0.0
 10
-153.061910921473
 20
-105.2325091720219
 30
0.0
 10
-155.9199190723427
 20
-108.0905388547384
 30
0.0
 10
-159.4533812567892
 20
-108.4404744286526
 30
0.0
 10
-164.2283697267326
 20
-108.9133568476967
 30
0.0
 10
-168.2084024134546
 20
-104.9333241609747
 30
0.0
 10
-167.7355199944105
 20
-100.1583356910313
 30
0.0
 10
-167.3855844204962
 20
-96.6248735065848
 30
0.0
 10
-164.5275547377797
 20
-93.76686535571511
 30
0.0
 10
-160.99411408518
 20
-93.41695131364764
 30
0.0
 10
-156.2191040833898
 20
-92.94406889460353
 30
0.0
 10
-152.2391144603614
 20
-96.92405851763198
 30
0.0
 10
-152.7119968794055
 20
-101.6990685194222
 30
0.0
  0
SPLINE
  5
43
330
1F
100
AcDbEntity
  8
Layer 1
 62
   250
420
  2301728
370
   106
100
AcDbSpline
210
0.0
220
0.0
230
1.0
 70
    11
 71
     3
 72
    17
 73
    13
 74
     0
 42
0.0000000001
 43
0.0000000001
 12
1.0
 22
0.0
 32
0.0
 13
1.0
 23
0.0
 33
0.0
 40
0.0
 40
0.0
 40
0.0
 40
0.0
 40
1.0
 40
1.0
 40
1.0
 40
2.0
 40
2.0
 40
2.0
 40
3.0
 40
3.0
 40
3.0
 40
4.0
 40
4.0
 40
4.0
 40
4.0
 10
-46.01409532866025
 20
-243.2525298555612
 30
0.0
 10
-46.36396630703415
 20
-246.785970508161
 30
0.0
 10
-49.22195292605707
 20
-249.644043254571
 30
0.0
 10
-52.75539357865678
 20
-249.9940003603321
 30
0.0
 10
-57.53044664414053
 20
-250.4669689067633
 30
0.0
 10
-61.51056545824967
 20
-246.4868931563477
 30
0.0
 10
-61.037639975512
 20
-241.711840090864
 30
0.0
 10
-60.68766133790418
 20
-238.1783994382643
 30
0.0
 10
-57.82961012334092
 20
-235.3204128192413
 30
0.0
 10
-54.29616947074121
 20
-234.9704987771739
 30
0.0
 10
-49.52124559633815
 20
-234.4976594218233
 30
0.0
 10
-45.54129903700327
 20
-238.4775844493114
 30
0.0
 10
-46.01409532866025
 20
-243.2525298555612
 30
0.0
  0
SPLINE
  5
44
330
1F
100
AcDbEntity
  8
Layer 1
 62
   250
420
  2301728
370
   106
100
AcDbSpline
210
0.0
220
0.0
230
1.0
 70
    11
 71
     3
 72
    17
 73
    13
 74
     0
 42
0.0000000001
 43
0.0000000001
 12
1.0
 22
0.0
 32
0.0
 13
1.0
 23
0.0
 33
0.0
 40
0.0
 40
0.0
 40
0.0
 40
0.0
 40
1.0
 40
1.0
 40
1.0
 40
2.0
 40
2.0
 40
2.0
 40
3.0
 40
3.0
 40
3.0
 40
4.0
 40
4.0
 40
4.0
 40
4.0
 10
127.5600428454484
 20
-299.1990503290421
 30
0.0
 10
127.2101718670745
 20
-302.7325340453353
 30
0.0
 10
124.3521637162048
 20
-305.5906067917454
 30
0.0
 10
120.8187015317583
 20
-305.9405854293532
 30
0.0
 10
116.0436269344278
 20
-306.4135109120909
 30
0.0
 10
112.0635511840122
 20
-302.433370566135
 30
0.0
 10
112.5364981985966
 20
-297.658339032498
 30
0.0
 10
112.8864768362045
 20
-294.1248983798983
 30
0.0
 10
115.7445280507677
 20
-291.2669117608754
 30
0.0
 10
119.2779902352142
 20
-290.9170192506547
 30
0.0
 10
124.0529141096173
 20
-290.4442014271509
 30
0.0
 10
128.0328391371054
 20
-294.424126454639
 30
0.0
 10
127.5600428454484
 20
-299.1990503290421
 30
0.0
  0
SPLINE
  5
45
330
1F
100
AcDbEntity
  8
Layer 1
 62
   250
420
  2301728
370
   106
100
AcDbSpline
210
0.0
220
0.0
230
1.0
 70
    11
 71
     3
 72
    17
 73
    13
 74
     0
 42
0.0000000001
 43
0.0000000001
 12
1.0
 22
0.0
 32
0.0
 13
1.0
 23
0.0
 33
0.0
 40
0.0
 40
0.0
 40
0.0
 40
0.0
 40
1.0
 40
1.0
 40
1.0
 40
2.0
 40
2.0
 40
2.0
 40
3.0
 40
3.0
 40
3.0
 40
4.0
 40
4.0
 40
4.0
 40
4.0
 10
337.6313503355195
 20
-212.4424165074153
 30
0.0
 10
337.2814362934521
 20
-215.975857160015
 30
0.0
 10
334.4233850788888
 20
-218.8339083745782
 30
0.0
 10
330.8899228944423
 20
-219.1838224166457
 30
0.0
 10
326.1149128926521
 20
-219.656683303843
 30
0.0
 10
322.1349017377769
 20
-215.6765644897339
 30
0.0
 10
322.6078487523613
 20
-210.9015760197905
 30
0.0
 10
322.9578273899692
 20
-207.3681353671911
 30
0.0
 10
325.8159001363792
 20
-204.5101487481682
 30
0.0
 10
329.349340788979
 20
-204.1602777697943
 30
0.0
 10
334.1242861952288
 20
-203.6874599462905
 30
0.0
 10
338.1042327545637
 20
-207.667449569319
 30
0.0
 10
337.6313503355195
 20
-212.4424165074153
 30
0.0
  0
SPLINE
  5
46
330
1F
100
AcDbEntity
  8
Layer 1
 62
   250
420
  2301728
370
   106
100
AcDbSpline
210
0.0
220
0.0
230
1.0
 70
    11
 71
     3
 72
    17
 73
    13
 74
     0
 42
0.0000000001
 43
0.0000000001
 12
1.0
 22
0.0
 32
0.0
 13
1.0
 23
0.0
 33
0.0
 40
0.0
 40
0.0
 40
0.0
 40
0.0
 40
1.0
 40
1.0
 40
1.0
 40
2.0
 40
2.0
 40
2.0
 40
3.0
 40
3.0
 40
3.0
 40
4.0
 40
4.0
 40
4.0
 40
4.0
 10
397.8425975738847
 20
-137.7380186039997
 30
0.0
 10
397.2336769468668
 20
-139.8615754611077
 30
0.0
 10
395.0185666772383
 20
-141.0894505557443
 30
0.0
 10
392.8950098201303
 20
-140.4805299287264
 30
0.0
 10
390.7714098993287
 20
-139.8716093017084
 30
0.0
 10
389.5435348046921
 20
-137.6564775002332
 30
0.0
 10
390.1524554317101
 20
-135.5329206431252
 30
0.0
 10
390.7613760587279
 20
-133.4093637860172
 30
0.0
 10
392.97652939205
 20
-132.1815102232273
 30
0.0
 10
395.100086249158
 20
-132.7904308502452
 30
0.0
 10
397.223643106266
 20
-133.3993514772631
 30
0.0
 10
398.4515182009026
 20
-135.6144617468917
 30
0.0
 10
397.8425975738847
 20
-137.7380186039997
 30
0.0
  0
SPLINE
  5
47
330
1F
100
AcDbEntity
  8
Layer 1
 62
   250
420
  2301728
370
   106
100
AcDbSpline
210
0.0
220
0.0
230
1.0
 70
    11
 71
     3
 72
    17
 73
    13
 74
     0
 42
0.0000000001
 43
0.0000000001
 12
1.0
 22
0.0
 32
0.0
 13
1.0
 23
0.0
 33
0.0
 40
0.0
 40
0.0
 40
0.0
 40
0.0
 40
1.0
 40
1.0
 40
1.0
 40
2.0
 40
2.0
 40
2.0
 40
3.0
 40
3.0
 40
3.0
 40
4.0
 40
4.0
 40
4.0
 40
4.0
 10
416.0138398382221
 20
-96.1350885878162
 30
0.0
 10
414.4915382706773
 20
-101.4439807305862
 30
0.0
 10
408.9537195329125
 20
-104.5136254034841
 30
0.0
 10
403.6448273901425
 20
-102.9913238359394
 30
0.0
 10
398.3359352473725
 20
-101.4690222683946
 30
0.0
 10
395.2662690426278
 20
-95.93124659432331
 30
0.0
 10
396.7885706101725
 20
-90.62233291970654
 30
0.0
 10
398.3108721777173
 20
-85.31344077693653
 30
0.0
 10
403.8486909154822
 20
-82.24379610403858
 30
0.0
 10
409.1575830582522
 20
-83.76609767158335
 30
0.0
 10
414.4664752010221
 20
-85.28839923912813
 30
0.0
 10
417.5361414057669
 20
-90.8261964450462
 30
0.0
 10
416.0138398382221
 20
-96.1350885878162
 30
0.0
  0
SPLINE
  5
48
330
1F
100
AcDbEntity
  8
Layer 1
 62
   250
420
  2301728
370
   106
100
AcDbSpline
210
0.0
220
0.0
230
1.0
 70
    11
 71
     3
 72
    17
 73
    13
 74
     0
 42
0.0000000001
 43
0.0000000001
 12
1.0
 22
0.0
 32
0.0
 13
1.0
 23
0.0
 33
0.0
 40
0.0
 40
0.0
 40
0.0
 40
0.0
 40
1.0
 40
1.0
 40
1.0
 40
2.0
 40
2.0
 40
2.0
 40
3.0
 40
3.0
 40
3.0
 40
4.0
 40
4.0
 40
4.0
 40
4.0
 10
422.6499550166846
 20
-51.22452239624435
 30
0.0
 10
422.0410343896667
 20
-53.34807925335235
 30
0.0
 10
419.8259241200382
 20
-54.57593281614218
 30
0.0
 10
417.7023241992366
 20
-53.96701218912427
 30
0.0
 10
415.5787673421286
 20
-53.35809156210636
 30
0.0
 10
414.350892247492
 20
-51.14298129247785
 30
0.0
 10
414.9598128745099
 20
-49.01940290352307
 30
0.0
 10
415.5687335015278
 20
-46.89584604641507
 30
0.0
 10
417.7838437711563
 20
-45.66799248362524
 30
0.0
 10
419.9074006282643
 20
-46.27691311064315
 30
0.0
 10
422.0310005490659
 20
-46.88583373766106
 30
0.0
 10
423.2588756437025
 20
-49.10094400728957
 30
0.0
 10
422.6499550166846
 20
-51.22452239624435
 30
0.0
  0
SPLINE
  5
49
330
1F
100
AcDbEntity
  8
Layer 1
 62
   250
420
  2301728
370
   106
100
AcDbSpline
210
0.0
220
0.0
230
1.0
 70
    11
 71
     3
 72
    17
 73
    13
 74
     0
 42
0.0000000001
 43
0.0000000001
 12
1.0
 22
0.0
 32
0.0
 13
1.0
 23
0.0
 33
0.0
 40
0.0
 40
0.0
 40
0.0
 40
0.0
 40
1.0
 40
1.0
 40
1.0
 40
2.0
 40
2.0
 40
2.0
 40
3.0
 40
3.0
 40
3.0
 40
4.0
 40
4.0
 40
4.0
 40
4.0
 10
417.6165843853475
 20
-8.478940334990645
 30
0.0
 10
413.4468561284689
 20
-8.478940334990645
 30
0.0
 10
410.0665715020353
 20
-5.098677240403853
 30
0.0
 10
410.0665715020353
 20
-0.9289274516784948
 30
0.0
 10
410.0665715020353
 20
3.240822337046863
 30
0.0
 10
413.4468561284689
 20
6.621063899786872
 30
0.0
 10
417.6165843853475
 20
6.621063899786872
 30
0.0
 10
421.7863557059196
 20
6.621063899786872
 30
0.0
 10
425.1665972686596
 20
3.240822337046863
 30
0.0
 10
425.1665972686596
 20
-0.9289274516784948
 30
0.0
 10
425.1665972686596
 20
-5.098677240403853
 30
0.0
 10
421.7863557059196
 20
-8.478940334990645
 30
0.0
 10
417.6165843853475
 20
-8.478940334990645
 30
0.0
  0
HATCH
  5
4A
330
1F
100
AcDbEntity
  8
Layer 1
 62
   254
420
 13750996
100
AcDbHatch
 10
0.0
 20
0.0
 30
0.0
210
0.0
220
0.0
230
1.0
  2
SOLID
 70
     1
 71
     0
 91
        9
 92
        1
 93
        1
 72
     4
 94
        3
 73
     0
 74
     1
 95
       86
 96
       82
 40
0.0
 40
0.0
 40
0.0
 40
0.0
 40
1.0
 40
1.0
 40
1.0
 40
2.0
 40
2.0
 40
2.0
 40
3.0
 40
3.0
 40
3.0
 40
4.0
 40
4.0
 40
4.0
 40
5.0
 40
5.0
 40
5.0
 40
6.0
 40
6.0
 40
6.0
 40
7.0
 40
7.0
 40
7.0
 40
8.0
 40
8.0
 40
8.0
 40
9.0
 40
9.0
 40
9.0
 40
10.0
 40
10.0
 40
10.0
 40
11.0
 40
11.0
 40
11.0
 40
12.0
 40
12.0
 40
12.0
 40
13.0
 40
13.0
 40
13.0
 40
14.0
 40
14.0
 40
14.0
 40
15.0
 40
15.0
 40
15.0
 40
16.0
 40
16.0
 40
16.0
 40
17.0
 40
17.0
 40
17.0
 40
18.0
 40
18.0
 40
18.0
 40
19.0
 40
19.0
 40
19.0
 40
20.0
 40
20.0
 40
20.0
 40
21.0
 40
21.0
 40
21.0
 40
22.0
 40
22.0
 40
22.0
 40
23.0
 40
23.0
 40
23.0
 40
24.0
 40
24.0
 40
24.0
 40
25.0
 40
25.0
 40
25.0
 40
26.0
 40
26.0
 40
26.0
 40
27.0
 40
27.0
 40
27.0
 40
27.0
 10
433.1785543928502
 20
7.771230559384313
 10
433.0536266178163
 20
8.03374683536035
 10
432.921507205957
 20
8.292107464907305
 10
432.7854689979832
 20
8.548099591308151
 10
432.7821961572722
 20
8.55421463579447
 10
432.7787941254805
 20
8.560200489200092
 10
432.7755212847695
 20
8.56631553368641
 10
432.5900028928888
 20
8.914571623551604
 10
432.3954411253594
 20
9.25727249694683
 10
432.1900273070513
 20
9.592781733516599
 10
430.4780732330436
 20
12.43560993240442
 10
428.2975000456547
 20
14.70476513745779
 10
425.6320727324104
 20
16.31521808573139
 10
404.4238065430511
 20
29.12933687050529
 10
360.6094266711921
 20
-4.543586230342973
 10
327.7698937000726
 20
-58.89532894000808
 10
321.2256979755259
 20
-69.72645076347217
 10
315.6145632994656
 20
-80.56032866332447
 10
310.9868957252102
 20
-91.06890342198204
 10
285.138408894921
 20
-145.7691821355205
 10
236.4376993734048
 20
-187.5346775949142
 10
177.1894424505541
 20
-204.1220587417548
 10
177.1894424505541
 20
-204.1220587417548
 10
63.03792609454333
 20
-204.1220587417548
 10
63.03792609454333
 20
-204.1220587417548
 10
21.68709094049302
 20
-192.5367624528759
 10
-14.53214529719697
 20
-168.6729520679456
 10
-41.43302267084284
 20
-136.7050282545943
 10
-71.26162831524115
 20
-101.2579455743827
 10
-115.2864604575553
 20
-80.8787200817019
 10
-161.6140159540572
 20
-80.8787200817019
 10
-161.6140159540572
 20
-80.8787200817019
 10
-161.6141236132911
 20
-80.8787200817019
 10
-161.6141236132911
 20
-80.8787200817019
 10
-172.4454176915294
 20
-80.87869854985512
 10
-180.2669471627728
 20
-90.69963224965683
 10
-178.4637841857931
 20
-100.9377670127223
 10
-178.4637841857931
 20
-100.9377670127223
 10
-178.4725045837401
 20
-100.9287021052267
 10
-178.4725045837401
 20
-100.9287021052267
 10
-178.4725045837401
 20
-100.9287021052267
 10
-178.4522431159175
 20
-101.0018673205947
 10
-178.4522431159175
 20
-101.0018673205947
 10
-178.2955773987257
 20
-101.872184567556
 10
-178.077545918203
 20
-102.744999508744
 10
-177.7774350377442
 20
-103.6152952238585
 10
-177.6997911982454
 20
-103.8404537456663
 10
-177.6194558778987
 20
-104.064341888514
 10
-177.5413168059239
 20
-104.2892635600073
 10
-177.5413168059239
 20
-104.2892635600073
 10
-120.6399019913189
 20
-309.641759168391
 10
-120.6399019913189
 20
-309.641759168391
 10
-120.1974225399321
 20
-311.2386255213447
 10
-117.8451759381439
 20
-310.9187484055392
 10
-117.8451759381439
 20
-309.2617220726744
 10
-117.8451759381439
 20
-309.2617220726744
 10
-117.8451759381439
 20
-259.7277300806634
 10
-117.8451759381439
 20
-259.7277300806634
 10
-117.8451759381439
 20
-259.7277300806634
 10
-60.84516679712045
 20
-259.7277300806634
 10
-60.84516679712045
 20
-259.7277300806634
 10
-60.84516679712045
 20
-259.7277300806634
 10
-60.84516679712045
 20
-315.539439661437
 10
-60.84516679712045
 20
-315.539439661437
 10
-60.84516679712045
 20
-317.8380073691957
 10
-58.95587643300944
 20
-319.6875284122989
 10
-56.65782548957353
 20
-319.6386511201019
 10
-56.65782548957353
 20
-319.6386511201019
 10
120.0828291361089
 20
-315.8788246304277
 10
120.0828291361089
 20
-315.8788246304277
 10
279.9940200615717
 20
-315.8789107578148
 10
412.6189996833634
 20
-196.7193452222839
 10
432.9216363970377
 20
-42.35045165871678
 10
433.278203779761
 20
-40.5816319773556
 10
433.6119904685882
 20
-38.84248318086113
 10
433.9255802851331
 20
-37.12869889987682
 10
435.2692536517677
 20
-25.39879472800461
 10
435.9677898250956
 20
-13.47292921856203
 10
435.9850583662154
 20
-1.387060555676375
 10
435.4128280061154
 20
2.037816525444403
 10
434.4966909892004
 20
5.105480268438337
 10
433.1785543928502
 20
7.771230559384313
 97
        0
 97
        0
 92
        1
 93
        1
 72
     4
 94
        3
 73
     0
 74
     1
 95
       17
 96
       13
 40
0.0
 40
0.0
 40
0.0
 40
0.0
 40
1.0
 40
1.0
 40
1.0
 40
2.0
 40
2.0
 40
2.0
 40
3.0
 40
3.0
 40
3.0
 40
4.0
 40
4.0
 40
4.0
 40
4.0
 10
-152.7119968794055
 20
-101.6990685194222
 10
-153.061910921473
 20
-105.2325091720219
 10
-155.9199190723427
 20
-108.0905388547384
 10
-159.4533812567892
 20
-108.4404744286526
 10
-164.2283697267326
 20
-108.9133568476967
 10
-168.2084024134546
 20
-104.9333241609747
 10
-167.7355199944105
 20
-100.1583356910313
 10
-167.3855844204962
 20
-96.6248735065848
 10
-164.5275547377797
 20
-93.76686535571511
 10
-160.99411408518
 20
-93.41695131364764
 10
-156.2191040833898
 20
-92.94406889460353
 10
-152.2391144603614
 20
-96.92405851763198
 10
-152.7119968794055
 20
-101.6990685194222
 97
        0
 97
        0
 92
        1
 93
        1
 72
     4
 94
        3
 73
     0
 74
     1
 95
       17
 96
       13
 40
0.0
 40
0.0
 40
0.0
 40
0.0
 40
1.0
 40
1.0
 40
1.0
 40
2.0
 40
2.0
 40
2.0
 40
3.0
 40
3.0
 40
3.0
 40
4.0
 40
4.0
 40
4.0
 40
4.0
 10
-46.01409532866025
 20
-243.2525298555612
 10
-46.36396630703415
 20
-246.785970508161
 10
-49.22195292605707
 20
-249.644043254571
 10
-52.75539357865678
 20
-249.9940003603321
 10
-57.53044664414053
 20
-250.4669689067633
 10
-61.51056545824967
 20
-246.4868931563477
 10
-61.037639975512
 20
-241.711840090864
 10
-60.68766133790418
 20
-238.1783994382643
 10
-57.82961012334092
 20
-235.3204128192413
 10
-54.29616947074121
 20
-234.9704987771739
 10
-49.52124559633815
 20
-234.4976594218233
 10
-45.54129903700327
 20
-238.4775844493114
 10
-46.01409532866025
 20
-243.2525298555612
 97
        0
 97
        0
 92
        1
 93
        1
 72
     4
 94
        3
 73
     0
 74
     1
 95
       17
 96
       13
 40
0.0
 40
0.0
 40
0.0
 40
0.0
 40
1.0
 40
1.0
 40
1.0
 40
2.0
 40
2.0
 40
2.0
 40
3.0
 40
3.0
 40
3.0
 40
4.0
 40
4.0
 40
4.0
 40
4.0
 10
127.5600428454484
 20
-299.1990503290421
 10
127.2101718670745
 20
-302.7325340453353
 10
124.3521637162048
 20
-305.5906067917454
 10
120.8187015317583
 20
-305.9405854293532
 10
116.0436269344278
 20
-306.4135109120909
 10
112.0635511840122
 20
-302.433370566135
 10
112.5364981985966
 20
-297.658339032498
 10
112.8864768362045
 20
-294.1248983798983
 10
115.7445280507677
 20
-291.2669117608754
 10
119.2779902352142
 20
-290.9170192506547
 10
124.0529141096173
 20
-290.4442014271509
 10
128.0328391371054
 20
-294.424126454639
 10
127.5600428454484
 20
-299.1990503290421
 97
        0
 97
        0
 92
        1
 93
        1
 72
     4
 94
        3
 73
     0
 74
     1
 95
       17
 96
       13
 40
0.0
 40
0.0
 40
0.0
 40
0.0
 40
1.0
 40
1.0
 40
1.0
 40
2.0
 40
2.0
 40
2.0
 40
3.0
 40
3.0
 40
3.0
 40
4.0
 40
4.0
 40
4.0
 40
4.0
 10
337.6313503355195
 20
-212.4424165074153
 10
337.2814362934521
 20
-215.975857160015
 10
334.4233850788888
 20
-218.8339083745782
 10
330.8899228944423
 20
-219.1838224166457
 10
326.1149128926521
 20
-219.656683303843
 10
322.1349017377769
 20
-215.6765644897339
 10
322.6078487523613
 20
-210.9015760197905
 10
322.9578273899692
 20
-207.3681353671911
 10
325.8159001363792
 20
-204.5101487481682
 10
329.349340788979
 20
-204.1602777697943
 10
334.1242861952288
 20
-203.6874599462905
 10
338.1042327545637
 20
-207.667449569319
 10
337.6313503355195
 20
-212.4424165074153
 97
        0
 97
        0
 92
        1
 93
        1
 72
     4
 94
        3
 73
     0
 74
     1
 95
       17
 96
       13
 40
0.0
 40
0.0
 40
0.0
 40
0.0
 40
1.0
 40
1.0
 40
1.0
 40
2.0
 40
2.0
 40
2.0
 40
3.0
 40
3.0
 40
3.0
 40
4.0
 40
4.0
 40
4.0
 40
4.0
 10
397.8425975738847
 20
-137.7380186039997
 10
397.2336769468668
 20
-139.8615754611077
 10
395.0185666772383
 20
-141.0894505557443
 10
392.8950098201303
 20
-140.4805299287264
 10
390.7714098993287
 20
-139.8716093017084
 10
389.5435348046921
 20
-137.6564775002332
 10
390.1524554317101
 20
-135.5329206431252
 10
390.7613760587279
 20
-133.4093637860172
 10
392.97652939205
 20
-132.1815102232273
 10
395.100086249158
 20
-132.7904308502452
 10
397.223643106266
 20
-133.3993514772631
 10
398.4515182009026
 20
-135.6144617468917
 10
397.8425975738847
 20
-137.7380186039997
 97
        0
 97
        0
 92
        1
 93
        1
 72
     4
 94
        3
 73
     0
 74
     1
 95
       17
 96
       13
 40
0.0
 40
0.0
 40
0.0
 40
0.0
 40
1.0
 40
1.0
 40
1.0
 40
2.0
 40
2.0
 40
2.0
 40
3.0
 40
3.0
 40
3.0
 40
4.0
 40
4.0
 40
4.0
 40
4.0
 10
416.0138398382221
 20
-96.1350885878162
 10
414.4915382706773
 20
-101.4439807305862
 10
408.9537195329125
 20
-104.5136254034841
 10
403.6448273901425
 20
-102.9913238359394
 10
398.3359352473725
 20
-101.4690222683946
 10
395.2662690426278
 20
-95.93124659432331
 10
396.7885706101725
 20
-90.62233291970654
 10
398.3108721777173
 20
-85.31344077693653
 10
403.8486909154822
 20
-82.24379610403858
 10
409.1575830582522
 20
-83.76609767158335
 10
414.4664752010221
 20
-85.28839923912813
 10
417.5361414057669
 20
-90.8261964450462
 10
416.0138398382221
 20
-96.1350885878162
 97
        0
 97
        0
 92
        1
 93
        1
 72
     4
 94
        3
 73
     0
 74
     1
 95
       17
 96
       13
 40
0.0
 40
0.0
 40
0.0
 40
0.0
 40
1.0
 40
1.0
 40
1.0
 40
2.0
 40
2.0
 40
2.0
 40
3.0
 40
3.0
 40
3.0
 40
4.0
 40
4.0
 40
4.0
 40
4.0
 10
422.6499550166846
 20
-51.22452239624435
 10
422.0410343896667
 20
-53.34807925335235
 10
419.8259241200382
 20
-54.57593281614218
 10
417.7023241992366
 20
-53.96701218912427
 10
415.5787673421286
 20
-53.35809156210636
 10
414.350892247492
 20
-51.14298129247785
 10
414.9598128745099
 20
-49.01940290352307
 10
415.5687335015278
 20
-46.89584604641507
 10
417.7838437711563
 20
-45.66799248362524
 10
419.9074006282643
 20
-46.27691311064315
 10
422.0310005490659
 20
-46.88583373766106
 10
423.2588756437025
 20
-49.10094400728957
 10
422.6499550166846
 20
-51.22452239624435
 97
        0
 97
        0
 92
        1
 93
        1
 72
     4
 94
        3
 73
     0
 74
     1
 95
       17
 96
       13
 40
0.0
 40
0.0
 40
0.0
 40
0.0
 40
1.0
 40
1.0
 40
1.0
 40
2.0
 40
2.0
 40
2.0
 40
3.0
 40
3.0
 40
3.0
 40
4.0
 40
4.0
 40
4.0
 40
4.0
 10
417.6165843853475
 20
-8.478940334990645
 10
413.4468561284689
 20
-8.478940334990645
 10
410.0665715020353
 20
-5.098677240403853
 10
410.0665715020353
 20
-0.9289274516784948
 10
410.0665715020353
 20
3.240822337046863
 10
413.4468561284689
 20
6.621063899786872
 10
417.6165843853475
 20
6.621063899786872
 10
421.7863557059196
 20
6.621063899786872
 10
425.1665972686596
 20
3.240822337046863
 10
425.1665972686596
 20
-0.9289274516784948
 10
425.1665972686596
 20
-5.098677240403853
 10
421.7863557059196
 20
-8.478940334990645
 10
417.6165843853475
 20
-8.478940334990645
 97
        0
 97
        0
 75
     2
 76
     1
 98
        0
  0
ENDSEC
  0
SECTION
  2
OBJECTS
  0
DICTIONARY
  5
C
330
0
100
AcDbDictionary
281
     1
  3
ACAD_GROUP
350
D
  3
ACAD_LAYOUT
350
1A
  3
ACAD_MATERIAL
350
3B
  3
ACAD_MLEADERSTYLE
350
4C
  3
ACAD_MLINESTYLE
350
17
  3
ACAD_PLOTSETTINGS
350
19
  3
ACAD_PLOTSTYLENAME
350
E
  3
ACAD_TABLESTYLE
350
4B
  3
ACAD_VISUALSTYLE
350
2A
  0
SUN
  5
3F
330
29
100
AcDbSun
 90
        1
290
     0
 63
     7
421
 16777215
 40
1.0
291
     1
 91
  2455826
 92
 54000000
292
     0
 70
     2
 71
   256
280
     1
  0
DICTIONARY
  5
D
102
{ACAD_REACTORS
330
C
102
}
330
C
100
AcDbDictionary
281
     1
  0
DICTIONARY
  5
1A
102
{ACAD_REACTORS
330
C
102
}
330
C
100
AcDbDictionary
281
     1
  3
Layout1
350
1E
  3
Layout2
350
26
  3
Model
350
22
  0
DICTIONARY
  5
3B
102
{ACAD_REACTORS
330
C
102
}
330
C
100
AcDbDictionary
281
     1
  3
ByBlock
350
3D
  3
ByLayer
350
3C
  3
Global
350
3E
  0
DICTIONARY
  5
4C
102
{ACAD_REACTORS
330
C
102
}
330
C
100
AcDbDictionary
281
     1
  0
DICTIONARY
  5
17
102
{ACAD_REACTORS
330
C
102
}
330
C
100
AcDbDictionary
281
     1
  3
Standard
350
18
  0
DICTIONARY
  5
19
102
{ACAD_REACTORS
330
C
102
}
330
C
100
AcDbDictionary
281
     1
  0
ACDBDICTIONARYWDFLT
  5
E
102
{ACAD_REACTORS
330
C
102
}
330
C
100
AcDbDictionary
281
     1
  3
Normal
350
F
100
AcDbDictionaryWithDefault
340
F
  0
DICTIONARY
  5
4B
102
{ACAD_REACTORS
330
C
102
}
330
C
100
AcDbDictionary
281
     1
  0
DICTIONARY
  5
2A
102
{ACAD_REACTORS
330
C
102
}
330
C
100
AcDbDictionary
281
     1
  3
2dWireframe
350
2F
  3
3D Hidden
350
31
  3
3dWireframe
350
30
  3
Basic
350
32
  3
Brighten
350
36
  3
ColorChange
350
3A
  3
Conceptual
350
34
  3
Dim
350
35
  3
Facepattern
350
39
  3
Flat
350
2B
  3
FlatWithEdges
350
2C
  3
Gouraud
350
2D
  3
GouraudWithEdges
350
2E
  3
Linepattern
350
38
  3
Realistic
350
33
  3
Thicken
350
37
  0
LAYOUT
  5
1E
102
{ACAD_REACTORS
330
1A
102
}
330
1A
100
AcDbPlotSettings
  1

  2
none_device
  4

  6

 40
0.0
 41
0.0
 42
0.0
 43
0.0
 44
0.0
 45
0.0
 46
0.0
 47
0.0
 48
0.0
 49
0.0
140
0.0
141
0.0
142
1.0
143
1.0
 70
   688
 72
     0
 73
     0
 74
     5
  7

 75
    16
 76
     0
 77
     2
 78
   300
147
1.0
148
0.0
149
0.0
100
AcDbLayout
  1
Layout1
 70
     1
 71
     1
 10
0.0
 20
0.0
 11
12.0
 21
9.0
 12
0.0
 22
0.0
 32
0.0
 14
1.000000000000000E+20
 24
1.000000000000000E+20
 34
1.000000000000000E+20
 15
-1.000000000000000E+20
 25
-1.000000000000000E+20
 35
-1.000000000000000E+20
146
0.0
 13
0.0
 23
0.0
 33
0.0
 16
1.0
 26
0.0
 36
0.0
 17
0.0
 27
1.0
 37
0.0
 76
     0
330
1B
  0
LAYOUT
  5
26
102
{ACAD_REACTORS
330
1A
102
}
330
1A
100
AcDbPlotSettings
  1

  2
none_device
  4

  6

 40
0.0
 41
0.0
 42
0.0
 43
0.0
 44
0.0
 45
0.0
 46
0.0
 47
0.0
 48
0.0
 49
0.0
140
0.0
141
0.0
142
1.0
143
1.0
 70
   688
 72
     0
 73
     0
 74
     5
  7

 75
    16
 76
     0
 77
     2
 78
   300
147
1.0
148
0.0
149
0.0
100
AcDbLayout
  1
Layout2
 70
     1
 71
     2
 10
0.0
 20
0.0
 11
0.0
 21
0.0
 12
0.0
 22
0.0
 32
0.0
 14
0.0
 24
0.0
 34
0.0
 15
0.0
 25
0.0
 35
0.0
146
0.0
 13
0.0
 23
0.0
 33
0.0
 16
1.0
 26
0.0
 36
0.0
 17
0.0
 27
1.0
 37
0.0
 76
     0
330
23
  0
LAYOUT
  5
22
102
{ACAD_REACTORS
330
1A
102
}
330
1A
100
AcDbPlotSettings
  1

  2
none_device
  4

  6

 40
0.0
 41
0.0
 42
0.0
 43
0.0
 44
0.0
 45
0.0
 46
0.0
 47
0.0
 48
0.0
 49
0.0
140
0.0
141
0.0
142
1.0
143
1.0
 70
  1712
 72
     0
 73
     0
 74
     0
  7

 75
     0
 76
     0
 77
     2
 78
   300
147
1.0
148
0.0
149
0.0
100
AcDbLayout
  1
Model
 70
     1
 71
     0
 10
0.0
 20
0.0
 11
12.0
 21
9.0
 12
0.0
 22
0.0
 32
0.0
 14
1.000000000000000E+20
 24
1.000000000000000E+20
 34
1.000000000000000E+20
 15
-1.000000000000000E+20
 25
-1.000000000000000E+20
 35
-1.000000000000000E+20
146
0.0
 13
0.0
 23
0.0
 33
0.0
 16
1.0
 26
0.0
 36
0.0
 17
0.0
 27
1.0
 37
0.0
 76
     0
330
1F
331
29
  0
MATERIAL
  5
3D
102
{ACAD_REACTORS
330
3B
102
}
330
3B
100
AcDbMaterial
  1
ByBlock
 72
     1
 94
      127
  0
MATERIAL
  5
3C
102
{ACAD_REACTORS
330
3B
102
}
330
3B
100
AcDbMaterial
  1
ByLayer
 72
     1
 94
      127
  0
MATERIAL
  5
3E
102
{ACAD_REACTORS
330
3B
102
}
330
3B
100
AcDbMaterial
  1
Global
 72
     1
 94
      127
  0
MLINESTYLE
  5
18
102
{ACAD_REACTORS
330
17
102
}
330
17
100
AcDbMlineStyle
  2
Standard
 70
     0
  3

 62
   256
 51
90.0
 52
90.0
 71
     2
 49
0.5
 62
   256
  6
BYLAYER
 49
-0.5
 62
   256
  6
BYLAYER
  0
ACDBPLACEHOLDER
  5
F
102
{ACAD_REACTORS
330
E
102
}
330
E
  0
VISUALSTYLE
  5
2F
102
{ACAD_REACTORS
330
2A
102
}
330
2A
100
AcDbVisualStyle
  2
2dWireframe
 70
     4
177
     2
291
     0
 71
     0
176
     1
 72
     2
176
     1
 73
     0
176
     1
 90
        0
176
     1
 40
-0.6
176
     1
 41
-30.0
176
     1
 62
     5
 63
     7
421
 16777215
176
     1
 74
     1
176
     1
 91
        4
176
     1
 64
     7
176
     1
 65
   257
176
     1
 75
     1
176
     1
175
     1
176
     1
 42
1.0
176
     1
 92
        0
176
     1
 66
   257
176
     1
 43
1.0
176
     1
 76
     1
176
     1
 77
     6
176
     1
 78
     2
176
     1
 67
     7
176
     1
 79
     5
176
     1
170
     0
176
     1
171
     0
176
     1
290
     0
176
     1
 93
        1
176
     1
 44
0.0
176
     1
173
     0
176
     1
  0
VISUALSTYLE
  5
31
102
{ACAD_REACTORS
330
2A
102
}
330
2A
100
AcDbVisualStyle
  2
3D Hidden
 70
     6
177
     2
291
     0
 71
     1
176
     1
 72
     2
176
     1
 73
     2
176
     1
 90
        0
176
     1
 40
-0.6
176
     1
 41
-30.0
176
     1
 62
     5
 63
     7
421
 16777215
176
     1
 74
     2
176
     1
 91
        2
176
     1
 64
     7
176
     1
 65
   257
176
     1
 75
     2
176
     1
175
     1
176
     1
 42
40.0
176
     1
 92
        0
176
     1
 66
   257
176
     1
 43
1.0
176
     1
 76
     1
176
     1
 77
     6
176
     1
 78
     2
176
     1
 67
     7
176
     1
 79
     3
176
     1
170
     0
176
     1
171
     0
176
     1
290
     0
176
     1
 93
        1
176
     1
 44
0.0
176
     1
173
     0
176
     1
  0
VISUALSTYLE
  5
30
102
{ACAD_REACTORS
330
2A
102
}
330
2A
100
AcDbVisualStyle
  2
3dWireframe
 70
     5
177
     2
291
     0
 71
     0
176
     1
 72
     2
176
     1
 73
     0
176
     1
 90
        0
176
     1
 40
-0.6
176
     1
 41
-30.0
176
     1
 62
     5
 63
     7
421
 16777215
176
     1
 74
     1
176
     1
 91
        4
176
     1
 64
     7
176
     1
 65
   257
176
     1
 75
     1
176
     1
175
     1
176
     1
 42
1.0
176
     1
 92
        0
176
     1
 66
   257
176
     1
 43
1.0
176
     1
 76
     1
176
     1
 77
     6
176
     1
 78
     2
176
     1
 67
     7
176
     1
 79
     5
176
     1
170
     0
176
     1
171
     0
176
     1
290
     0
176
     1
 93
        1
176
     1
 44
0.0
176
     1
173
     0
176
     1
  0
VISUALSTYLE
  5
32
102
{ACAD_REACTORS
330
2A
102
}
330
2A
100
AcDbVisualStyle
  2
Basic
 70
     7
177
     2
291
     1
 71
     1
176
     1
 72
     0
176
     1
 73
     1
176
     1
 90
        0
176
     1
 40
-0.6
176
     1
 41
-30.0
176
     1
 62
     5
 63
     7
421
 16777215
176
     1
 74
     0
176
     1
 91
        4
176
     1
 64
     7
176
     1
 65
   257
176
     1
 75
     1
176
     1
175
     1
176
     1
 42
1.0
176
     1
 92
        8
176
     1
 66
     7
176
     1
 43
1.0
176
     1
 76
     1
176
     1
 77
     6
176
     1
 78
     2
176
     1
 67
     7
176
     1
 79
     5
176
     1
170
     0
176
     1
171
     0
176
     1
290
     0
176
     1
 93
        1
176
     1
 44
0.0
176
     1
173
     0
176
     1
  0
VISUALSTYLE
  5
36
102
{ACAD_REACTORS
330
2A
102
}
330
2A
100
AcDbVisualStyle
  2
Brighten
 70
    12
177
     2
291
     1
 71
     2
176
     1
 72
     2
176
     1
 73
     0
176
     1
 90
        0
176
     1
 40
-0.6
176
     1
 41
-30.0
176
     1
 62
     5
 63
     7
421
 16777215
176
     1
 74
     1
176
     1
 91
        4
176
     1
 64
     7
176
     1
 65
   257
176
     1
 75
     1
176
     1
175
     1
176
     1
 42
1.0
176
     1
 92
        8
176
     1
 66
     7
176
     1
 43
1.0
176
     1
 76
     1
176
     1
 77
     6
176
     1
 78
     2
176
     1
 67
     7
176
     1
 79
     5
176
     1
170
     0
176
     1
171
     0
176
     1
290
     0
176
     1
 93
        1
176
     1
 44
50.0
176
     1
173
     0
176
     1
  0
VISUALSTYLE
  5
3A
102
{ACAD_REACTORS
330
2A
102
}
330
2A
100
AcDbVisualStyle
  2
ColorChange
 70
    16
177
     2
291
     1
 71
     2
176
     1
 72
     2
176
     1
 73
     3
176
     1
 90
        0
176
     1
 40
-0.6
176
     1
 41
-30.0
176
     1
 62
     5
 63
     8
421
  8421504
176
     1
 74
     1
176
     1
 91
        4
176
     1
 64
     7
176
     1
 65
   257
176
     1
 75
     1
176
     1
175
     1
176
     1
 42
1.0
176
     1
 92
        8
176
     1
 66
     8
424
  8421504
176
     1
 43
1.0
176
     1
 76
     1
176
     1
 77
     6
176
     1
 78
     2
176
     1
 67
     7
176
     1
 79
     5
176
     1
170
     0
176
     1
171
     0
176
     1
290
     0
176
     1
 93
        1
176
     1
 44
0.0
176
     1
173
     0
176
     1
  0
VISUALSTYLE
  5
34
102
{ACAD_REACTORS
330
2A
102
}
330
2A
100
AcDbVisualStyle
  2
Conceptual
 70
     9
177
     2
291
     0
 71
     3
176
     1
 72
     2
176
     1
 73
     0
176
     1
 90
        0
176
     1
 40
-0.6
176
     1
 41
-30.0
176
     1
 62
     5
 63
     7
421
 16777215
176
     1
 74
     2
176
     1
 91
        2
176
     1
 64
     7
176
     1
 65
   257
176
     1
 75
     1
176
     1
175
     1
176
     1
 42
40.0
176
     1
 92
        8
176
     1
 66
     7
176
     1
 43
1.0
176
     1
 76
     1
176
     1
 77
     6
176
     1
 78
     2
176
     1
 67
     7
176
     1
 79
     3
176
     1
170
     0
176
     1
171
     0
176
     1
290
     0
176
     1
 93
        1
176
     1
 44
0.0
176
     1
173
     0
176
     1
  0
VISUALSTYLE
  5
35
102
{ACAD_REACTORS
330
2A
102
}
330
2A
100
AcDbVisualStyle
  2
Dim
 70
    11
177
     2
291
     1
 71
     2
176
     1
 72
     2
176
     1
 73
     0
176
     1
 90
        0
176
     1
 40
-0.6
176
     1
 41
-30.0
176
     1
 62
     5
 63
     7
421
 16777215
176
     1
 74
     1
176
     1
 91
        4
176
     1
 64
     7
176
     1
 65
   257
176
     1
 75
     1
176
     1
175
     1
176
     1
 42
1.0
176
     1
 92
        8
176
     1
 66
     7
176
     1
 43
1.0
176
     1
 76
     1
176
     1
 77
     6
176
     1
 78
     2
176
     1
 67
     7
176
     1
 79
     5
176
     1
170
     0
176
     1
171
     0
176
     1
290
     0
176
     1
 93
        1
176
     1
 44
-50.0
176
     1
173
     0
176
     1
  0
VISUALSTYLE
  5
39
102
{ACAD_REACTORS
330
2A
102
}
330
2A
100
AcDbVisualStyle
  2
Facepattern
 70
    15
177
     2
291
     1
 71
     2
176
     1
 72
     2
176
     1
 73
     0
176
     1
 90
        0
176
     1
 40
-0.6
176
     1
 41
-30.0
176
     1
 62
     5
 63
     7
421
 16777215
176
     1
 74
     1
176
     1
 91
        4
176
     1
 64
     7
176
     1
 65
   257
176
     1
 75
     1
176
     1
175
     1
176
     1
 42
1.0
176
     1
 92
        8
176
     1
 66
     7
176
     1
 43
1.0
176
     1
 76
     1
176
     1
 77
     6
176
     1
 78
     2
176
     1
 67
     7
176
     1
 79
     5
176
     1
170
     0
176
     1
171
     0
176
     1
290
     0
176
     1
 93
        1
176
     1
 44
0.0
176
     1
173
     0
176
     1
  0
VISUALSTYLE
  5
2B
102
{ACAD_REACTORS
330
2A
102
}
330
2A
100
AcDbVisualStyle
  2
Flat
 70
     0
177
     2
291
     1
 71
     2
176
     1
 72
     1
176
     1
 73
     1
176
     1
 90
        2
176
     1
 40
-0.6
176
     1
 41
30.0
176
     1
 62
     5
 63
     7
421
 16777215
176
     1
 74
     0
176
     1
 91
        4
176
     1
 64
     7
176
     1
 65
   257
176
     1
 75
     1
176
     1
175
     1
176
     1
 42
1.0
176
     1
 92
        8
176
     1
 66
     7
176
     1
 43
1.0
176
     1
 76
     1
176
     1
 77
     6
176
     1
 78
     2
176
     1
 67
     7
176
     1
 79
     5
176
     1
170
     0
176
     1
171
     0
176
     1
290
     0
176
     1
 93
       13
176
     1
 44
0.0
176
     1
173
     0
176
     1
  0
VISUALSTYLE
  5
2C
102
{ACAD_REACTORS
330
2A
102
}
330
2A
100
AcDbVisualStyle
  2
FlatWithEdges
 70
     1
177
     2
291
     1
 71
     2
176
     1
 72
     1
176
     1
 73
     1
176
     1
 90
        2
176
     1
 40
-0.6
176
     1
 41
30.0
176
     1
 62
     5
 63
     7
421
 16777215
176
     1
 74
     1
176
     1
 91
        4
176
     1
 64
     7
176
     1
 65
   257
176
     1
 75
     1
176
     1
175
     1
176
     1
 42
1.0
176
     1
 92
        0
176
     1
 66
   257
176
     1
 43
1.0
176
     1
 76
     1
176
     1
 77
     6
176
     1
 78
     2
176
     1
 67
     7
176
     1
 79
     5
176
     1
170
     0
176
     1
171
     0
176
     1
290
     0
176
     1
 93
       13
176
     1
 44
0.0
176
     1
173
     0
176
     1
  0
VISUALSTYLE
  5
2D
102
{ACAD_REACTORS
330
2A
102
}
330
2A
100
AcDbVisualStyle
  2
Gouraud
 70
     2
177
     2
291
     1
 71
     2
176
     1
 72
     2
176
     1
 73
     1
176
     1
 90
        2
176
     1
 40
-0.6
176
     1
 41
30.0
176
     1
 62
     5
 63
     7
421
 16777215
176
     1
 74
     0
176
     1
 91
        4
176
     1
 64
     7
176
     1
 65
   257
176
     1
 75
     1
176
     1
175
     1
176
     1
 42
1.0
176
     1
 92
        0
176
     1
 66
     7
176
     1
 43
1.0
176
     1
 76
     1
176
     1
 77
     6
176
     1
 78
     2
176
     1
 67
     7
176
     1
 79
     5
176
     1
170
     0
176
     1
171
     0
176
     1
290
     0
176
     1
 93
       13
176
     1
 44
0.0
176
     1
173
     0
176
     1
  0
VISUALSTYLE
  5
2E
102
{ACAD_REACTORS
330
2A
102
}
330
2A
100
AcDbVisualStyle
  2
GouraudWithEdges
 70
     3
177
     2
291
     1
 71
     2
176
     1
 72
     2
176
     1
 73
     1
176
     1
 90
        2
176
     1
 40
-0.6
176
     1
 41
30.0
176
     1
 62
     5
 63
     7
421
 16777215
176
     1
 74
     1
176
     1
 91
        4
176
     1
 64
     7
176
     1
 65
   257
176
     1
 75
     1
176
     1
175
     1
176
     1
 42
1.0
176
     1
 92
        0
176
     1
 66
   257
176
     1
 43
1.0
176
     1
 76
     1
176
     1
 77
     6
176
     1
 78
     2
176
     1
 67
     7
176
     1
 79
     5
176
     1
170
     0
176
     1
171
     0
176
     1
290
     0
176
     1
 93
       13
176
     1
 44
0.0
176
     1
173
     0
176
     1
  0
VISUALSTYLE
  5
38
102
{ACAD_REACTORS
330
2A
102
}
330
2A
100
AcDbVisualStyle
  2
Linepattern
 70
    14
177
     2
291
     1
 71
     2
176
     1
 72
     2
176
     1
 73
     0
176
     1
 90
        0
176
     1
 40
-0.6
176
     1
 41
-30.0
176
     1
 62
     5
 63
     7
421
 16777215
176
     1
 74
     1
176
     1
 91
        4
176
     1
 64
     7
176
     1
 65
   257
176
     1
 75
     7
176
     1
175
     7
176
     1
 42
1.0
176
     1
 92
        8
176
     1
 66
     7
176
     1
 43
1.0
176
     1
 76
     1
176
     1
 77
     6
176
     1
 78
     2
176
     1
 67
     7
176
     1
 79
     5
176
     1
170
     0
176
     1
171
     0
176
     1
290
     0
176
     1
 93
        1
176
     1
 44
0.0
176
     1
173
     0
176
     1
  0
VISUALSTYLE
  5
33
102
{ACAD_REACTORS
330
2A
102
}
330
2A
100
AcDbVisualStyle
  2
Realistic
 70
     8
177
     2
291
     0
 71
     2
176
     1
 72
     2
176
     1
 73
     0
176
     1
 90
        0
176
     1
 40
-0.6
176
     1
 41
-30.0
176
     1
 62
     5
 63
     7
421
 16777215
176
     1
 74
     1
176
     1
 91
        0
176
     1
 64
     7
176
     1
 65
   257
176
     1
 75
     1
176
     1
175
     1
176
     1
 42
1.0
176
     1
 92
        8
176
     1
 66
     8
424
  7895160
176
     1
 43
1.0
176
     1
 76
     1
176
     1
 77
     6
176
     1
 78
     2
176
     1
 67
     7
176
     1
 79
     5
176
     1
170
     0
176
     1
171
     0
176
     1
290
     0
176
     1
 93
       13
176
     1
 44
0.0
176
     1
173
     0
176
     1
  0
VISUALSTYLE
  5
37
102
{ACAD_REACTORS
330
2A
102
}
330
2A
100
AcDbVisualStyle
  2
Thicken
 70
    13
177
     2
291
     1
 71
     2
176
     1
 72
     2
176
     1
 73
     0
176
     1
 90
        0
176
     1
 40
-0.6
176
     1
 41
-30.0
176
     1
 62
     5
 63
     7
421
 16777215
176
     1
 74
     1
176
     1
 91
        4
176
     1
 64
     7
176
     1
 65
   257
176
     1
 75
     1
176
     1
175
     1
176
     1
 42
1.0
176
     1
 92
       12
176
     1
 66
     7
176
     1
 43
1.0
176
     1
 76
     1
176
     1
 77
     6
176
     1
 78
     2
176
     1
 67
     7
176
     1
 79
     5
176
     1
170
     0
176
     1
171
     0
176
     1
290
     0
176
     1
 93
        1
176
     1
 44
0.0
176
     1
173
     0
176
     1
  0
ENDSEC
  0
EOF
