  0
SECTION
  2
HEADER
  9
$ACADVER
  1
AC1024
  9
$ACADMAINTVER
 70
     6
  9
$DWGCODEPAGE
  3
ANSI_1252
  9
$INSBASE
 10
0.0
 20
0.0
 30
0.0
  9
$EXTMIN
 10
1.000000000000000E+20
 20
1.000000000000000E+20
 30
1.000000000000000E+20
  9
$EXTMAX
 10
-1.000000000000000E+20
 20
-1.000000000000000E+20
 30
-1.000000000000000E+20
  9
$LIMMIN
 10
0.0
 20
0.0
  9
$LIMMAX
 10
12.0
 20
9.0
  9
$ORTHOMODE
 70
     0
  9
$REGENMODE
 70
     1
  9
$FILLMODE
 70
     1
  9
$QTEXTMODE
 70
     0
  9
$MIRRTEXT
 70
     1
  9
$LTSCALE
 40
1.0
  9
$ATTMODE
 70
     1
  9
$TEXTSIZE
 40
0.2
  9
$TRACEWID
 40
0.05
  9
$TEXTSTYLE
  7
Standard
  9
$CLAYER
  8
0
  9
$CELTYPE
  6
ByLayer
  9
$CECOLOR
 62
   256
  9
$CELTSCALE
 40
1.0
  9
$DISPSILH
 70
     0
  9
$DIMSCALE
 40
1.0
  9
$DIMASZ
 40
0.18
  9
$DIMEXO
 40
0.0625
  9
$DIMDLI
 40
0.38
  9
$DIMRND
 40
0.0
  9
$DIMDLE
 40
0.0
  9
$DIMEXE
 40
0.18
  9
$DIMTP
 40
0.0
  9
$DIMTM
 40
0.0
  9
$DIMTXT
 40
0.18
  9
$DIMCEN
 40
0.09
  9
$DIMTSZ
 40
0.0
  9
$DIMTOL
 70
     0
  9
$DIMLIM
 70
     0
  9
$DIMTIH
 70
     1
  9
$DIMTOH
 70
     1
  9
$DIMSE1
 70
     0
  9
$DIMSE2
 70
     0
  9
$DIMTAD
 70
     0
  9
$DIMZIN
 70
     0
  9
$DIMBLK
  1

  9
$DIMASO
 70
     1
  9
$DIMSHO
 70
     1
  9
$DIMPOST
  1

  9
$DIMAPOST
  1

  9
$DIMALT
 70
     0
  9
$DIMALTD
 70
     2
  9
$DIMALTF
 40
25.4
  9
$DIMLFAC
 40
1.0
  9
$DIMTOFL
 70
     0
  9
$DIMTVP
 40
0.0
  9
$DIMTIX
 70
     0
  9
$DIMSOXD
 70
     0
  9
$DIMSAH
 70
     0
  9
$DIMBLK1
  1

  9
$DIMBLK2
  1

  9
$DIMSTYLE
  2
Standard
  9
$DIMCLRD
 70
     0
  9
$DIMCLRE
 70
     0
  9
$DIMCLRT
 70
     0
  9
$DIMTFAC
 40
1.0
  9
$DIMGAP
 40
0.09
  9
$DIMJUST
 70
     0
  9
$DIMSD1
 70
     0
  9
$DIMSD2
 70
     0
  9
$DIMTOLJ
 70
     1
  9
$DIMTZIN
 70
     0
  9
$DIMALTZ
 70
     0
  9
$DIMALTTZ
 70
     0
  9
$DIMUPT
 70
     0
  9
$DIMDEC
 70
     4
  9
$DIMTDEC
 70
     4
  9
$DIMALTU
 70
     2
  9
$DIMALTTD
 70
     2
  9
$DIMTXSTY
  7
Standard
  9
$DIMAUNIT
 70
     0
  9
$DIMADEC
 70
     0
  9
$DIMALTRND
 40
0.0
  9
$DIMAZIN
 70
     0
  9
$DIMDSEP
 70
    46
  9
$DIMATFIT
 70
     3
  9
$DIMFRAC
 70
     0
  9
$DIMLDRBLK
  1

  9
$DIMLUNIT
 70
     2
  9
$DIMLWD
 70
    -2
  9
$DIMLWE
 70
    -2
  9
$DIMTMOVE
 70
     0
  9
$DIMFXL
 40
1.0
  9
$DIMFXLON
 70
     0
  9
$DIMJOGANG
 40
0.7853981633974483
  9
$DIMTFILL
 70
     0
  9
$DIMTFILLCLR
 70
     0
  9
$DIMARCSYM
 70
     0
  9
$DIMLTYPE
  6

  9
$DIMLTEX1
  6

  9
$DIMLTEX2
  6

  9
$DIMTXTDIRECTION
 70
     0
  9
$LUNITS
 70
     2
  9
$LUPREC
 70
     4
  9
$SKETCHINC
 40
0.1
  9
$FILLETRAD
 40
0.5
  9
$AUNITS
 70
     0
  9
$AUPREC
 70
     0
  9
$MENU
  1
.
  9
$ELEVATION
 40
0.0
  9
$PELEVATION
 40
0.0
  9
$THICKNESS
 40
0.0
  9
$LIMCHECK
 70
     0
  9
$CHAMFERA
 40
0.5
  9
$CHAMFERB
 40
0.5
  9
$CHAMFERC
 40
1.0
  9
$CHAMFERD
 40
0.0
  9
$SKPOLY
 70
     0
  9
$TDCREATE
 40
2460688.655773449
  9
$TDUCREATE
 40
2460688.614106782
  9
$TDUPDATE
 40
2460688.65577353
  9
$TDUUPDATE
 40
2460688.614106863
  9
$TDINDWG
 40
0.0000000116
  9
$TDUSRTIMER
 40
0.0000000116
  9
$USRTIMER
 70
     1
  9
$ANGBASE
 50
0.0
  9
$ANGDIR
 70
     0
  9
$PDMODE
 70
     0
  9
$PDSIZE
 40
0.0
  9
$PLINEWID
 40
0.0
  9
$SPLFRAME
 70
     0
  9
$SPLINETYPE
 70
     6
  9
$SPLINESEGS
 70
     8
  9
$HANDSEED
  5
58
  9
$SURFTAB1
 70
     6
  9
$SURFTAB2
 70
     6
  9
$SURFTYPE
 70
     6
  9
$SURFU
 70
     6
  9
$SURFV
 70
     6
  9
$UCSBASE
  2

  9
$UCSNAME
  2

  9
$UCSORG
 10
0.0
 20
0.0
 30
0.0
  9
$UCSXDIR
 10
1.0
 20
0.0
 30
0.0
  9
$UCSYDIR
 10
0.0
 20
1.0
 30
0.0
  9
$UCSORTHOREF
  2

  9
$UCSORTHOVIEW
 70
     0
  9
$UCSORGTOP
 10
0.0
 20
0.0
 30
0.0
  9
$UCSORGBOTTOM
 10
0.0
 20
0.0
 30
0.0
  9
$UCSORGLEFT
 10
0.0
 20
0.0
 30
0.0
  9
$UCSORGRIGHT
 10
0.0
 20
0.0
 30
0.0
  9
$UCSORGFRONT
 10
0.0
 20
0.0
 30
0.0
  9
$UCSORGBACK
 10
0.0
 20
0.0
 30
0.0
  9
$PUCSBASE
  2

  9
$PUCSNAME
  2

  9
$PUCSORG
 10
0.0
 20
0.0
 30
0.0
  9
$PUCSXDIR
 10
1.0
 20
0.0
 30
0.0
  9
$PUCSYDIR
 10
0.0
 20
1.0
 30
0.0
  9
$PUCSORTHOREF
  2

  9
$PUCSORTHOVIEW
 70
     0
  9
$PUCSORGTOP
 10
0.0
 20
0.0
 30
0.0
  9
$PUCSORGBOTTOM
 10
0.0
 20
0.0
 30
0.0
  9
$PUCSORGLEFT
 10
0.0
 20
0.0
 30
0.0
  9
$PUCSORGRIGHT
 10
0.0
 20
0.0
 30
0.0
  9
$PUCSORGFRONT
 10
0.0
 20
0.0
 30
0.0
  9
$PUCSORGBACK
 10
0.0
 20
0.0
 30
0.0
  9
$USERI1
 70
     0
  9
$USERI2
 70
     0
  9
$USERI3
 70
     0
  9
$USERI4
 70
     0
  9
$USERI5
 70
     0
  9
$USERR1
 40
0.0
  9
$USERR2
 40
0.0
  9
$USERR3
 40
0.0
  9
$USERR4
 40
0.0
  9
$USERR5
 40
0.0
  9
$WORLDVIEW
 70
     1
  9
$SHADEDGE
 70
     3
  9
$SHADEDIF
 70
    70
  9
$TILEMODE
 70
     1
  9
$MAXACTVP
 70
    64
  9
$PINSBASE
 10
0.0
 20
0.0
 30
0.0
  9
$PLIMCHECK
 70
     0
  9
$PEXTMIN
 10
1.000000000000000E+20
 20
1.000000000000000E+20
 30
1.000000000000000E+20
  9
$PEXTMAX
 10
-1.000000000000000E+20
 20
-1.000000000000000E+20
 30
-1.000000000000000E+20
  9
$PLIMMIN
 10
0.0
 20
0.0
  9
$PLIMMAX
 10
12.0
 20
9.0
  9
$UNITMODE
 70
     0
  9
$VISRETAIN
 70
     1
  9
$PLINEGEN
 70
     0
  9
$PSLTSCALE
 70
     1
  9
$TREEDEPTH
 70
  3020
  9
$CMLSTYLE
  2
Standard
  9
$CMLJUST
 70
     0
  9
$CMLSCALE
 40
1.0
  9
$PROXYGRAPHICS
 70
     1
  9
$MEASUREMENT
 70
     0
  9
$CELWEIGHT
370
    -1
  9
$ENDCAPS
280
     0
  9
$JOINSTYLE
280
     0
  9
$LWDISPLAY
290
     1
  9
$INSUNITS
 70
     4
  9
$HYPERLINKBASE
  1

  9
$STYLESHEET
  1

  9
$XEDIT
290
     1
  9
$CEPSNTYPE
380
     0
  9
$PSTYLEMODE
290
     1
  9
$FINGERPRINTGUID
  2
{F45EC780-A57E-489C-B3FC-60F382F59F05}
  9
$VERSIONGUID
  2
{FAEB1C32-E019-11D5-929B-00C0DF256EC4}
  9
$EXTNAMES
290
     1
  9
$PSVPSCALE
 40
0.0
  9
$OLESTARTUP
290
     0
  9
$SORTENTS
280
   127
  9
$INDEXCTL
280
     0
  9
$HIDETEXT
280
     1
  9
$XCLIPFRAME
280
     2
  9
$HALOGAP
280
     0
  9
$OBSCOLOR
 70
   257
  9
$OBSLTYPE
280
     0
  9
$INTERSECTIONDISPLAY
280
     0
  9
$INTERSECTIONCOLOR
 70
   257
  9
$DIMASSOC
280
     2
  9
$PROJECTNAME
  1

  9
$CAMERADISPLAY
290
     0
  9
$LENSLENGTH
 40
50.0
  9
$CAMERAHEIGHT
 40
0.0
  9
$STEPSPERSEC
 40
2.0
  9
$STEPSIZE
 40
6.0
  9
$3DDWFPREC
 40
2.0
  9
$PSOLWIDTH
 40
0.25
  9
$PSOLHEIGHT
 40
4.0
  9
$LOFTANG1
 40
1.570796326794897
  9
$LOFTANG2
 40
1.570796326794897
  9
$LOFTMAG1
 40
0.0
  9
$LOFTMAG2
 40
0.0
  9
$LOFTPARAM
 70
     7
  9
$LOFTNORMALS
280
     1
  9
$LATITUDE
 40
37.795
  9
$LONGITUDE
 40
-122.394
  9
$NORTHDIRECTION
 40
0.0
  9
$TIMEZONE
 70
 -8000
  9
$LIGHTGLYPHDISPLAY
280
     1
  9
$TILEMODELIGHTSYNCH
280
     1
  9
$CMATERIAL
347
3C
  9
$SOLIDHIST
280
     1
  9
$SHOWHIST
280
     1
  9
$DWFFRAME
280
     2
  9
$DGNFRAME
280
     2
  9
$REALWORLDSCALE
290
     1
  9
$INTERFERECOLOR
 62
   256
  9
$CSHADOW
280
     0
  9
$SHADOWPLANELOCATION
 40
0.0
  0
ENDSEC
  0
SECTION
  2
CLASSES
  0
CLASS
  1
ACDBDICTIONARYWDFLT
  2
AcDbDictionaryWithDefault
  3
ObjectDBX Classes
 90
        0
 91
        4
280
     0
281
     0
  0
CLASS
  1
VISUALSTYLE
  2
AcDbVisualStyle
  3
ObjectDBX Classes
 90
     4095
 91
        4
280
     0
281
     0
  0
CLASS
  1
MATERIAL
  2
AcDbMaterial
  3
ObjectDBX Classes
 90
     1153
 91
        4
280
     0
281
     0
  0
CLASS
  1
SUN
  2
AcDbSun
  3
SCENEOE
 90
     1024
 91
        4
280
     0
281
     0
  0
ENDSEC
  0
SECTION
  2
TABLES
  0
TABLE
  2
VPORT
  5
8
330
0
100
AcDbSymbolTable
 70
     1
  0
VPORT
  5
29
330
8
100
AcDbSymbolTableRecord
100
AcDbViewportTableRecord
  2
*Active
 70
     0
 10
0.0
 20
0.0
 11
1.0
 21
1.0
 12
0.0
 22
0.0
 13
0.0
 23
0.0
 14
0.5
 24
0.5
 15
0.5
 25
0.5
 16
0.0
 26
0.0
 36
1.0
 17
148.4999999628701
 27
-104.9999999737534
 37
0.0
 40
209.9999999475068
 41
1.414285714285622
 42
50.0
 43
0.0
 44
0.0
 50
0.0
 51
0.0
 71
     0
 72
   100
 73
     1
 74
     3
 75
     0
 76
     0
 77
     0
 78
     0
281
     0
 65
     1
110
0.0
120
0.0
130
0.0
111
1.0
121
0.0
131
0.0
112
0.0
122
1.0
132
0.0
 79
     0
146
0.0
 60
     3
 61
     5
292
     1
282
     1
141
0.0
142
0.0
 63
   250
361
3F
  0
ENDTAB
  0
TABLE
  2
LTYPE
  5
5
330
0
100
AcDbSymbolTable
 70
     1
  0
LTYPE
  5
14
330
5
100
AcDbSymbolTableRecord
100
AcDbLinetypeTableRecord
  2
ByBlock
 70
     0
  3

 72
    65
 73
     0
 40
0.0
  0
LTYPE
  5
15
330
5
100
AcDbSymbolTableRecord
100
AcDbLinetypeTableRecord
  2
ByLayer
 70
     0
  3

 72
    65
 73
     0
 40
0.0
  0
LTYPE
  5
16
330
5
100
AcDbSymbolTableRecord
100
AcDbLinetypeTableRecord
  2
Continuous
 70
     0
  3
Solid line
 72
    65
 73
     0
 40
0.0
  0
ENDTAB
  0
TABLE
  2
LAYER
  5
2
330
0
100
AcDbSymbolTable
 70
     2
  0
LAYER
  5
10
330
2
100
AcDbSymbolTableRecord
100
AcDbLayerTableRecord
  2
0
 70
     0
 62
     7
  6
Continuous
370
    -3
390
F
347
3E
  0
LAYER
  5
40
330
2
100
AcDbSymbolTableRecord
100
AcDbLayerTableRecord
  2
Layer 1
 70
     0
 62
     7
  6
Continuous
370
    -3
390
F
347
3E
  0
ENDTAB
  0
TABLE
  2
STYLE
  5
3
330
0
100
AcDbSymbolTable
 70
     1
  0
STYLE
  5
11
330
3
100
AcDbSymbolTableRecord
100
AcDbTextStyleTableRecord
  2
Standard
 70
     0
 40
0.0
 41
1.0
 50
0.0
 71
     0
 42
0.2
  3
txt
  4

  0
ENDTAB
  0
TABLE
  2
VIEW
  5
6
330
0
100
AcDbSymbolTable
 70
     0
  0
ENDTAB
  0
TABLE
  2
UCS
  5
7
330
0
100
AcDbSymbolTable
 70
     0
  0
ENDTAB
  0
TABLE
  2
APPID
  5
9
330
0
100
AcDbSymbolTable
 70
     1
  0
APPID
  5
12
330
9
100
AcDbSymbolTableRecord
100
AcDbRegAppTableRecord
  2
ACAD
 70
     0
  0
ENDTAB
  0
TABLE
  2
DIMSTYLE
  5
A
330
0
100
AcDbSymbolTable
 70
     1
100
AcDbDimStyleTable
  0
DIMSTYLE
105
27
330
A
100
AcDbSymbolTableRecord
100
AcDbDimStyleTableRecord
  2
Standard
 70
     0
178
     0
340
11
  0
ENDTAB
  0
TABLE
  2
BLOCK_RECORD
  5
1
330
0
100
AcDbSymbolTable
 70
     1
  0
BLOCK_RECORD
  5
1F
330
1
100
AcDbSymbolTableRecord
100
AcDbBlockTableRecord
  2
*Model_Space
340
22
 70
     0
280
     1
281
     0
  0
BLOCK_RECORD
  5
1B
330
1
100
AcDbSymbolTableRecord
100
AcDbBlockTableRecord
  2
*Paper_Space
340
1E
 70
     0
280
     1
281
     0
  0
BLOCK_RECORD
  5
23
330
1
100
AcDbSymbolTableRecord
100
AcDbBlockTableRecord
  2
*Paper_Space0
340
26
 70
     0
280
     1
281
     0
  0
ENDTAB
  0
ENDSEC
  0
SECTION
  2
BLOCKS
  0
BLOCK
  5
20
330
1F
100
AcDbEntity
  8
0
100
AcDbBlockBegin
  2
*Model_Space
 70
     0
 10
0.0
 20
0.0
 30
0.0
  3
*Model_Space
  1

  0
ENDBLK
  5
21
330
1F
100
AcDbEntity
  8
0
100
AcDbBlockEnd
  0
BLOCK
  5
1C
330
1B
100
AcDbEntity
 67
     1
  8
0
100
AcDbBlockBegin
  2
*Paper_Space
 70
     0
 10
0.0
 20
0.0
 30
0.0
  3
*Paper_Space
  1

  0
ENDBLK
  5
1D
330
1B
100
AcDbEntity
 67
     1
  8
0
100
AcDbBlockEnd
  0
BLOCK
  5
24
330
23
100
AcDbEntity
  8
0
100
AcDbBlockBegin
  2
*Paper_Space0
 70
     0
 10
0.0
 20
0.0
 30
0.0
  3
*Paper_Space0
  1

  0
ENDBLK
  5
25
330
23
100
AcDbEntity
  8
0
100
AcDbBlockEnd
  0
ENDSEC
  0
SECTION
  2
ENTITIES
  0
SPLINE
  5
41
330
1F
100
AcDbEntity
  8
Layer 1
 62
   250
420
  2301728
370
    35
100
AcDbSpline
210
0.0
220
0.0
230
1.0
 70
    11
 71
     3
 72
   113
 73
   109
 74
     0
 42
0.0000000001
 43
0.0000000001
 12
1.0
 22
0.0
 32
0.0
 13
1.0
 23
0.0
 33
0.0
 40
0.0
 40
0.0
 40
0.0
 40
0.0
 40
1.0
 40
1.0
 40
1.0
 40
2.0
 40
2.0
 40
2.0
 40
3.0
 40
3.0
 40
3.0
 40
4.0
 40
4.0
 40
4.0
 40
5.0
 40
5.0
 40
5.0
 40
6.0
 40
6.0
 40
6.0
 40
7.0
 40
7.0
 40
7.0
 40
8.0
 40
8.0
 40
8.0
 40
9.0
 40
9.0
 40
9.0
 40
10.0
 40
10.0
 40
10.0
 40
11.0
 40
11.0
 40
11.0
 40
12.0
 40
12.0
 40
12.0
 40
13.0
 40
13.0
 40
13.0
 40
14.0
 40
14.0
 40
14.0
 40
15.0
 40
15.0
 40
15.0
 40
16.0
 40
16.0
 40
16.0
 40
17.0
 40
17.0
 40
17.0
 40
18.0
 40
18.0
 40
18.0
 40
19.0
 40
19.0
 40
19.0
 40
20.0
 40
20.0
 40
20.0
 40
21.0
 40
21.0
 40
21.0
 40
22.0
 40
22.0
 40
22.0
 40
23.0
 40
23.0
 40
23.0
 40
24.0
 40
24.0
 40
24.0
 40
25.0
 40
25.0
 40
25.0
 40
26.0
 40
26.0
 40
26.0
 40
27.0
 40
27.0
 40
27.0
 40
28.0
 40
28.0
 40
28.0
 40
29.0
 40
29.0
 40
29.0
 40
30.0
 40
30.0
 40
30.0
 40
31.0
 40
31.0
 40
31.0
 40
32.0
 40
32.0
 40
32.0
 40
33.0
 40
33.0
 40
33.0
 40
34.0
 40
34.0
 40
34.0
 40
35.0
 40
35.0
 40
35.0
 40
36.0
 40
36.0
 40
36.0
 40
36.0
 10
251.9999928162318
 20
-117.5707882045818
 30
0.0
 10
251.9999928162318
 20
-117.5707882045818
 30
0.0
 10
246.7500118062596
 20
-117.5707882045818
 30
0.0
 10
246.7500118062596
 20
-117.5707882045818
 30
0.0
 10
246.7500118062596
 20
-117.5707882045818
 30
0.0
 10
246.7500118062596
 20
-111.5707883756239
 30
0.0
 10
246.7500118062596
 20
-111.5707883756239
 30
0.0
 10
246.7500118062596
 20
-111.5707883756239
 30
0.0
 10
240.7499904454549
 20
-111.5707883756239
 30
0.0
 10
240.7499904454549
 20
-111.5707883756239
 30
0.0
 10
240.7499904454549
 20
-111.5707883756239
 30
0.0
 10
240.7499904454549
 20
-117.5707882045818
 30
0.0
 10
240.7499904454549
 20
-117.5707882045818
 30
0.0
 10
240.7499904454549
 20
-117.5707882045818
 30
0.0
 10
201.000005036013
 20
-117.5707882045818
 30
0.0
 10
201.000005036013
 20
-117.5707882045818
 30
0.0
 10
201.000005036013
 20
-117.5707882045818
 30
0.0
 10
199.1250118181658
 20
-117.5707882045818
 30
0.0
 10
199.1250118181658
 20
-117.5707882045818
 30
0.0
 10
199.1250118181658
 20
-117.5707882045818
 30
0.0
 10
199.1250118181658
 20
-111.5707883756239
 30
0.0
 10
199.1250118181658
 20
-111.5707883756239
 30
0.0
 10
199.1250118181658
 20
-111.5707883756239
 30
0.0
 10
193.1249904573611
 20
-111.5707883756239
 30
0.0
 10
193.1249904573611
 20
-111.5707883756239
 30
0.0
 10
193.1249904573611
 20
-111.5707883756239
 30
0.0
 10
193.1249904573611
 20
-117.5707882045818
 30
0.0
 10
193.1249904573611
 20
-117.5707882045818
 30
0.0
 10
193.1249904573611
 20
-117.5707882045818
 30
0.0
 10
173.9999950397791
 20
-117.5707882045818
 30
0.0
 10
173.9999950397791
 20
-117.5707882045818
 30
0.0
 10
173.9999950397791
 20
-117.5707882045818
 30
0.0
 10
151.5000118300721
 20
-117.5707882045818
 30
0.0
 10
151.5000118300721
 20
-117.5707882045818
 30
0.0
 10
151.5000118300721
 20
-117.5707882045818
 30
0.0
 10
151.5000118300721
 20
-111.5707883756239
 30
0.0
 10
151.5000118300721
 20
-111.5707883756239
 30
0.0
 10
151.5000118300721
 20
-111.5707883756239
 30
0.0
 10
145.4999904692674
 20
-111.5707883756239
 30
0.0
 10
145.4999904692674
 20
-111.5707883756239
 30
0.0
 10
145.4999904692674
 20
-111.5707883756239
 30
0.0
 10
145.4999904692674
 20
-117.5707882045818
 30
0.0
 10
145.4999904692674
 20
-117.5707882045818
 30
0.0
 10
145.4999904692674
 20
-117.5707882045818
 30
0.0
 10
123.0000072595603
 20
-117.5707882045818
 30
0.0
 10
123.0000072595603
 20
-117.5707882045818
 30
0.0
 10
123.0000072595603
 20
-117.5707882045818
 30
0.0
 10
103.8750118419783
 20
-117.5707882045818
 30
0.0
 10
103.8750118419783
 20
-117.5707882045818
 30
0.0
 10
103.8750118419783
 20
-117.5707882045818
 30
0.0
 10
103.8750118419783
 20
-111.5707883756239
 30
0.0
 10
103.8750118419783
 20
-111.5707883756239
 30
0.0
 10
103.8750118419783
 20
-111.5707883756239
 30
0.0
 10
97.87499048117361
 20
-111.5707883756239
 30
0.0
 10
97.87499048117361
 20
-111.5707883756239
 30
0.0
 10
97.87499048117361
 20
-111.5707883756239
 30
0.0
 10
97.87499048117361
 20
-117.5707882045818
 30
0.0
 10
97.87499048117361
 20
-117.5707882045818
 30
0.0
 10
97.87499048117361
 20
-117.5707882045818
 30
0.0
 10
95.99999726332639
 20
-117.5707882045818
 30
0.0
 10
95.99999726332639
 20
-117.5707882045818
 30
0.0
 10
95.99999726332639
 20
-117.5707882045818
 30
0.0
 10
56.25001185388455
 20
-117.5707882045818
 30
0.0
 10
56.25001185388455
 20
-117.5707882045818
 30
0.0
 10
56.25001185388455
 20
-117.5707882045818
 30
0.0
 10
56.25001185388455
 20
-111.5707883756239
 30
0.0
 10
56.25001185388455
 20
-111.5707883756239
 30
0.0
 10
56.25001185388455
 20
-111.5707883756239
 30
0.0
 10
50.24999049307986
 20
-111.5707883756239
 30
0.0
 10
50.24999049307986
 20
-111.5707883756239
 30
0.0
 10
50.24999049307986
 20
-111.5707883756239
 30
0.0
 10
50.24999049307986
 20
-117.5707882045818
 30
0.0
 10
50.24999049307986
 20
-117.5707882045818
 30
0.0
 10
50.24999049307986
 20
-117.5707882045818
 30
0.0
 10
45.00000948310764
 20
-117.5707882045818
 30
0.0
 10
45.00000948310764
 20
-117.5707882045818
 30
0.0
 10
44.17157167813897
 20
-117.5707882045818
 30
0.0
 10
43.49999337698308
 20
-118.2423665057377
 30
0.0
 10
43.49999337698308
 20
-119.0708043107063
 30
0.0
 10
43.49999337698308
 20
-119.0708043107063
 30
0.0
 10
43.49999337698308
 20
-120.5707773531373
 30
0.0
 10
43.49999337698308
 20
-120.5707773531373
 30
0.0
 10
43.49999337698308
 20
-120.5707773531373
 30
0.0
 10
43.49999337698308
 20
-122.0003627884353
 30
0.0
 10
43.49999337698308
 20
-122.0003627884353
 30
0.0
 10
43.49999337698308
 20
-122.0003627884353
 30
0.0
 10
43.49999337698308
 20
-198.3510280537109
 30
0.0
 10
43.49999337698308
 20
-198.3510280537109
 30
0.0
 10
43.49999337698308
 20
-201.3442777342234
 30
0.0
 10
45.92650331832523
 20
-203.7707876755656
 30
0.0
 10
48.91975299883777
 20
-203.7707876755656
 30
0.0
 10
48.91975299883777
 20
-203.7707876755656
 30
0.0
 10
248.242900871099
 20
-203.7707876755656
 30
0.0
 10
248.242900871099
 20
-203.7707876755656
 30
0.0
 10
251.1463196868337
 20
-203.7707876755656
 30
0.0
 10
253.5000089223564
 20
-201.4170984400429
 30
0.0
 10
253.5000089223564
 20
-198.5136796243082
 30
0.0
 10
253.5000089223564
 20
-198.5136796243082
 30
0.0
 10
253.5000089223564
 20
-122.0003627884353
 30
0.0
 10
253.5000089223564
 20
-122.0003627884353
 30
0.0
 10
253.5000089223564
 20
-122.0003627884353
 30
0.0
 10
253.5000089223564
 20
-120.5707773531373
 30
0.0
 10
253.5000089223564
 20
-120.5707773531373
 30
0.0
 10
253.5000089223564
 20
-120.5707773531373
 30
0.0
 10
253.5000089223564
 20
-119.0708043107063
 30
0.0
 10
253.5000089223564
 20
-119.0708043107063
 30
0.0
 10
253.5000089223564
 20
-118.2423665057377
 30
0.0
 10
252.8284306212005
 20
-117.5707882045818
 30
0.0
 10
251.9999928162318
 20
-117.5707882045818
 30
0.0
  0
SPLINE
  5
42
330
1F
100
AcDbEntity
  8
Layer 1
 62
   250
420
  2301728
370
    35
100
AcDbSpline
210
0.0
220
0.0
230
1.0
 70
    11
 71
     3
 72
    17
 73
    13
 74
     0
 42
0.0000000001
 43
0.0000000001
 12
1.0
 22
0.0
 32
0.0
 13
1.0
 23
0.0
 33
0.0
 40
0.0
 40
0.0
 40
0.0
 40
0.0
 40
1.0
 40
1.0
 40
1.0
 40
2.0
 40
2.0
 40
2.0
 40
3.0
 40
3.0
 40
3.0
 40
4.0
 40
4.0
 40
4.0
 40
4.0
 10
57.19429099454474
 20
-194.4483808243263
 30
0.0
 10
56.92227917413749
 20
-196.1061607718285
 30
0.0
 10
55.58519455261846
 20
-197.443202329654
 30
0.0
 10
53.92739307326946
 20
-197.7151064908273
 30
0.0
 10
51.18981254145602
 20
-198.1641316236361
 30
0.0
 10
48.85662162407057
 20
-195.8308545788635
 30
0.0
 10
49.30568982057289
 20
-193.09327404705
 30
0.0
 10
49.57763704543979
 20
-191.435472567701
 30
0.0
 10
50.91472166695882
 20
-190.0984094780288
 30
0.0
 10
52.57252314630782
 20
-189.8264622531619
 30
0.0
 10
55.31018980550839
 20
-189.3773725248128
 30
0.0
 10
57.64346685028097
 20
-191.7107356969725
 30
0.0
 10
57.19429099454474
 20
-194.4483808243263
 30
0.0
  0
SPLINE
  5
43
330
1F
100
AcDbEntity
  8
Layer 1
 62
   250
420
  2301728
370
    35
100
AcDbSpline
210
0.0
220
0.0
230
1.0
 70
    11
 71
     3
 72
    17
 73
    13
 74
     0
 42
0.0000000001
 43
0.0000000001
 12
1.0
 22
0.0
 32
0.0
 13
1.0
 23
0.0
 33
0.0
 40
0.0
 40
0.0
 40
0.0
 40
0.0
 40
1.0
 40
1.0
 40
1.0
 40
2.0
 40
2.0
 40
2.0
 40
3.0
 40
3.0
 40
3.0
 40
4.0
 40
4.0
 40
4.0
 40
4.0
 10
57.19431252639153
 20
-134.4482533436666
 30
0.0
 10
56.92236530152462
 20
-136.1060548230156
 30
0.0
 10
55.58528068000559
 20
-137.4431394445346
 30
0.0
 10
53.92747920065658
 20
-137.7150866694015
 30
0.0
 10
51.18985560514959
 20
-138.1641548659038
 30
0.0
 10
48.85662162407057
 20
-135.8309208848248
 30
0.0
 10
49.30568982057289
 20
-133.0932972893178
 30
0.0
 10
49.57763704543979
 20
-131.4354958099688
 30
0.0
 10
50.91472166695882
 20
-130.0984111884498
 30
0.0
 10
52.57252314630782
 20
-129.8264639635829
 30
0.0
 10
55.31014674181483
 20
-129.3773957670806
 30
0.0
 10
57.64338072289384
 20
-131.7106297481596
 30
0.0
 10
57.19431252639153
 20
-134.4482533436666
 30
0.0
  0
SPLINE
  5
44
330
1F
100
AcDbEntity
  8
Layer 1
 62
   250
420
  2301728
370
    35
100
AcDbSpline
210
0.0
220
0.0
230
1.0
 70
    11
 71
     3
 72
    17
 73
    13
 74
     0
 42
0.0000000001
 43
0.0000000001
 12
1.0
 22
0.0
 32
0.0
 13
1.0
 23
0.0
 33
0.0
 40
0.0
 40
0.0
 40
0.0
 40
0.0
 40
1.0
 40
1.0
 40
1.0
 40
2.0
 40
2.0
 40
2.0
 40
3.0
 40
3.0
 40
3.0
 40
4.0
 40
4.0
 40
4.0
 40
4.0
 10
148.5000011496697
 20
-193.7707736060712
 30
0.0
 10
131.9314603687641
 20
-193.7707736060712
 30
0.0
 10
118.5000020048802
 20
-180.3393152421873
 30
0.0
 10
118.5000020048802
 20
-163.7707744612817
 30
0.0
 10
118.5000020048802
 20
-147.2022336803761
 30
0.0
 10
131.9314603687641
 20
-133.7707753164922
 30
0.0
 10
148.5000011496697
 20
-133.7707753164922
 30
0.0
 10
165.0685419305753
 20
-133.7707753164922
 30
0.0
 10
178.5000002944592
 20
-147.2022336803761
 30
0.0
 10
178.5000002944592
 20
-163.7707744612817
 30
0.0
 10
178.5000002944592
 20
-180.3393152421873
 30
0.0
 10
165.0685419305753
 20
-193.7707736060712
 30
0.0
 10
148.5000011496697
 20
-193.7707736060712
 30
0.0
  0
SPLINE
  5
45
330
1F
100
AcDbEntity
  8
Layer 1
 62
   250
420
  2301728
370
    35
100
AcDbSpline
210
0.0
220
0.0
230
1.0
 70
    11
 71
     3
 72
    17
 73
    13
 74
     0
 42
0.0000000001
 43
0.0000000001
 12
1.0
 22
0.0
 32
0.0
 13
1.0
 23
0.0
 33
0.0
 40
0.0
 40
0.0
 40
0.0
 40
0.0
 40
1.0
 40
1.0
 40
1.0
 40
2.0
 40
2.0
 40
2.0
 40
3.0
 40
3.0
 40
3.0
 40
4.0
 40
4.0
 40
4.0
 40
4.0
 10
247.6942909469198
 20
-194.4483808243263
 30
0.0
 10
247.4222791265125
 20
-196.1061607718285
 30
0.0
 10
246.0851945049935
 20
-197.443202329654
 30
0.0
 10
244.4273930256445
 20
-197.7151064908273
 30
0.0
 10
241.689812493831
 20
-198.1641316236361
 30
0.0
 10
239.3566215764456
 20
-195.8308545788635
 30
0.0
 10
239.8056897729479
 20
-193.09327404705
 30
0.0
 10
240.0776369978148
 20
-191.435472567701
 30
0.0
 10
241.4147216193338
 20
-190.0984094780288
 30
0.0
 10
243.0725230986828
 20
-189.8264622531619
 30
0.0
 10
245.8101897578834
 20
-189.3773725248128
 30
0.0
 10
248.143466802656
 20
-191.7107356969725
 30
0.0
 10
247.6942909469198
 20
-194.4483808243263
 30
0.0
  0
SPLINE
  5
46
330
1F
100
AcDbEntity
  8
Layer 1
 62
   250
420
  2301728
370
    35
100
AcDbSpline
210
0.0
220
0.0
230
1.0
 70
    11
 71
     3
 72
    17
 73
    13
 74
     0
 42
0.0000000001
 43
0.0000000001
 12
1.0
 22
0.0
 32
0.0
 13
1.0
 23
0.0
 33
0.0
 40
0.0
 40
0.0
 40
0.0
 40
0.0
 40
1.0
 40
1.0
 40
1.0
 40
2.0
 40
2.0
 40
2.0
 40
3.0
 40
3.0
 40
3.0
 40
4.0
 40
4.0
 40
4.0
 40
4.0
 10
247.6943124787665
 20
-134.4482533436666
 30
0.0
 10
247.4223652538996
 20
-136.1060548230156
 30
0.0
 10
246.0852806323806
 20
-137.4431394445346
 30
0.0
 10
244.4274791530316
 20
-137.7150866694015
 30
0.0
 10
241.6898555575246
 20
-138.1641548659038
 30
0.0
 10
239.3566215764456
 20
-135.8309208848248
 30
0.0
 10
239.8056897729479
 20
-133.0932972893178
 30
0.0
 10
240.0776369978148
 20
-131.4354958099688
 30
0.0
 10
241.4147216193338
 20
-130.0984111884498
 30
0.0
 10
243.0725230986828
 20
-129.8264639635829
 30
0.0
 10
245.8101466941898
 20
-129.3773957670806
 30
0.0
 10
248.1433806752688
 20
-131.7106297481596
 30
0.0
 10
247.6943124787665
 20
-134.4482533436666
 30
0.0
  0
HATCH
  5
47
330
1F
100
AcDbEntity
  8
Layer 1
 62
   254
420
 13750996
100
AcDbHatch
 10
0.0
 20
0.0
 30
0.0
210
0.0
220
0.0
230
1.0
  2
SOLID
 70
     1
 71
     0
 91
        6
 92
        1
 93
        1
 72
     4
 94
        3
 73
     0
 74
     1
 95
      113
 96
      109
 40
0.0
 40
0.0
 40
0.0
 40
0.0
 40
1.0
 40
1.0
 40
1.0
 40
2.0
 40
2.0
 40
2.0
 40
3.0
 40
3.0
 40
3.0
 40
4.0
 40
4.0
 40
4.0
 40
5.0
 40
5.0
 40
5.0
 40
6.0
 40
6.0
 40
6.0
 40
7.0
 40
7.0
 40
7.0
 40
8.0
 40
8.0
 40
8.0
 40
9.0
 40
9.0
 40
9.0
 40
10.0
 40
10.0
 40
10.0
 40
11.0
 40
11.0
 40
11.0
 40
12.0
 40
12.0
 40
12.0
 40
13.0
 40
13.0
 40
13.0
 40
14.0
 40
14.0
 40
14.0
 40
15.0
 40
15.0
 40
15.0
 40
16.0
 40
16.0
 40
16.0
 40
17.0
 40
17.0
 40
17.0
 40
18.0
 40
18.0
 40
18.0
 40
19.0
 40
19.0
 40
19.0
 40
20.0
 40
20.0
 40
20.0
 40
21.0
 40
21.0
 40
21.0
 40
22.0
 40
22.0
 40
22.0
 40
23.0
 40
23.0
 40
23.0
 40
24.0
 40
24.0
 40
24.0
 40
25.0
 40
25.0
 40
25.0
 40
26.0
 40
26.0
 40
26.0
 40
27.0
 40
27.0
 40
27.0
 40
28.0
 40
28.0
 40
28.0
 40
29.0
 40
29.0
 40
29.0
 40
30.0
 40
30.0
 40
30.0
 40
31.0
 40
31.0
 40
31.0
 40
32.0
 40
32.0
 40
32.0
 40
33.0
 40
33.0
 40
33.0
 40
34.0
 40
34.0
 40
34.0
 40
35.0
 40
35.0
 40
35.0
 40
36.0
 40
36.0
 40
36.0
 40
36.0
 10
251.9999928162318
 20
-117.5707882045818
 10
251.9999928162318
 20
-117.5707882045818
 10
246.7500118062596
 20
-117.5707882045818
 10
246.7500118062596
 20
-117.5707882045818
 10
246.7500118062596
 20
-117.5707882045818
 10
246.7500118062596
 20
-111.5707883756239
 10
246.7500118062596
 20
-111.5707883756239
 10
246.7500118062596
 20
-111.5707883756239
 10
240.7499904454549
 20
-111.5707883756239
 10
240.7499904454549
 20
-111.5707883756239
 10
240.7499904454549
 20
-111.5707883756239
 10
240.7499904454549
 20
-117.5707882045818
 10
240.7499904454549
 20
-117.5707882045818
 10
240.7499904454549
 20
-117.5707882045818
 10
201.000005036013
 20
-117.5707882045818
 10
201.000005036013
 20
-117.5707882045818
 10
201.000005036013
 20
-117.5707882045818
 10
199.1250118181658
 20
-117.5707882045818
 10
199.1250118181658
 20
-117.5707882045818
 10
199.1250118181658
 20
-117.5707882045818
 10
199.1250118181658
 20
-111.5707883756239
 10
199.1250118181658
 20
-111.5707883756239
 10
199.1250118181658
 20
-111.5707883756239
 10
193.1249904573611
 20
-111.5707883756239
 10
193.1249904573611
 20
-111.5707883756239
 10
193.1249904573611
 20
-111.5707883756239
 10
193.1249904573611
 20
-117.5707882045818
 10
193.1249904573611
 20
-117.5707882045818
 10
193.1249904573611
 20
-117.5707882045818
 10
173.9999950397791
 20
-117.5707882045818
 10
173.9999950397791
 20
-117.5707882045818
 10
173.9999950397791
 20
-117.5707882045818
 10
151.5000118300721
 20
-117.5707882045818
 10
151.5000118300721
 20
-117.5707882045818
 10
151.5000118300721
 20
-117.5707882045818
 10
151.5000118300721
 20
-111.5707883756239
 10
151.5000118300721
 20
-111.5707883756239
 10
151.5000118300721
 20
-111.5707883756239
 10
145.4999904692674
 20
-111.5707883756239
 10
145.4999904692674
 20
-111.5707883756239
 10
145.4999904692674
 20
-111.5707883756239
 10
145.4999904692674
 20
-117.5707882045818
 10
145.4999904692674
 20
-117.5707882045818
 10
145.4999904692674
 20
-117.5707882045818
 10
123.0000072595603
 20
-117.5707882045818
 10
123.0000072595603
 20
-117.5707882045818
 10
123.0000072595603
 20
-117.5707882045818
 10
103.8750118419783
 20
-117.5707882045818
 10
103.8750118419783
 20
-117.5707882045818
 10
103.8750118419783
 20
-117.5707882045818
 10
103.8750118419783
 20
-111.5707883756239
 10
103.8750118419783
 20
-111.5707883756239
 10
103.8750118419783
 20
-111.5707883756239
 10
97.87499048117361
 20
-111.5707883756239
 10
97.87499048117361
 20
-111.5707883756239
 10
97.87499048117361
 20
-111.5707883756239
 10
97.87499048117361
 20
-117.5707882045818
 10
97.87499048117361
 20
-117.5707882045818
 10
97.87499048117361
 20
-117.5707882045818
 10
95.99999726332639
 20
-117.5707882045818
 10
95.99999726332639
 20
-117.5707882045818
 10
95.99999726332639
 20
-117.5707882045818
 10
56.25001185388455
 20
-117.5707882045818
 10
56.25001185388455
 20
-117.5707882045818
 10
56.25001185388455
 20
-117.5707882045818
 10
56.25001185388455
 20
-111.5707883756239
 10
56.25001185388455
 20
-111.5707883756239
 10
56.25001185388455
 20
-111.5707883756239
 10
50.24999049307986
 20
-111.5707883756239
 10
50.24999049307986
 20
-111.5707883756239
 10
50.24999049307986
 20
-111.5707883756239
 10
50.24999049307986
 20
-117.5707882045818
 10
50.24999049307986
 20
-117.5707882045818
 10
50.24999049307986
 20
-117.5707882045818
 10
45.00000948310764
 20
-117.5707882045818
 10
45.00000948310764
 20
-117.5707882045818
 10
44.17157167813897
 20
-117.5707882045818
 10
43.49999337698308
 20
-118.2423665057377
 10
43.49999337698308
 20
-119.0708043107063
 10
43.49999337698308
 20
-119.0708043107063
 10
43.49999337698308
 20
-120.5707773531373
 10
43.49999337698308
 20
-120.5707773531373
 10
43.49999337698308
 20
-120.5707773531373
 10
43.49999337698308
 20
-122.0003627884353
 10
43.49999337698308
 20
-122.0003627884353
 10
43.49999337698308
 20
-122.0003627884353
 10
43.49999337698308
 20
-198.3510280537109
 10
43.49999337698308
 20
-198.3510280537109
 10
43.49999337698308
 20
-201.3442777342234
 10
45.92650331832523
 20
-203.7707876755656
 10
48.91975299883777
 20
-203.7707876755656
 10
48.91975299883777
 20
-203.7707876755656
 10
248.242900871099
 20
-203.7707876755656
 10
248.242900871099
 20
-203.7707876755656
 10
251.1463196868337
 20
-203.7707876755656
 10
253.5000089223564
 20
-201.4170984400429
 10
253.5000089223564
 20
-198.5136796243082
 10
253.5000089223564
 20
-198.5136796243082
 10
253.5000089223564
 20
-122.0003627884353
 10
253.5000089223564
 20
-122.0003627884353
 10
253.5000089223564
 20
-122.0003627884353
 10
253.5000089223564
 20
-120.5707773531373
 10
253.5000089223564
 20
-120.5707773531373
 10
253.5000089223564
 20
-120.5707773531373
 10
253.5000089223564
 20
-119.0708043107063
 10
253.5000089223564
 20
-119.0708043107063
 10
253.5000089223564
 20
-118.2423665057377
 10
252.8284306212005
 20
-117.5707882045818
 10
251.9999928162318
 20
-117.5707882045818
 97
        0
 97
        0
 92
        1
 93
        1
 72
     4
 94
        3
 73
     0
 74
     1
 95
       17
 96
       13
 40
0.0
 40
0.0
 40
0.0
 40
0.0
 40
1.0
 40
1.0
 40
1.0
 40
2.0
 40
2.0
 40
2.0
 40
3.0
 40
3.0
 40
3.0
 40
4.0
 40
4.0
 40
4.0
 40
4.0
 10
57.19429099454474
 20
-194.4483808243263
 10
56.92227917413749
 20
-196.1061607718285
 10
55.58519455261846
 20
-197.443202329654
 10
53.92739307326946
 20
-197.7151064908273
 10
51.18981254145602
 20
-198.1641316236361
 10
48.85662162407057
 20
-195.8308545788635
 10
49.30568982057289
 20
-193.09327404705
 10
49.57763704543979
 20
-191.435472567701
 10
50.91472166695882
 20
-190.0984094780288
 10
52.57252314630782
 20
-189.8264622531619
 10
55.31018980550839
 20
-189.3773725248128
 10
57.64346685028097
 20
-191.7107356969725
 10
57.19429099454474
 20
-194.4483808243263
 97
        0
 97
        0
 92
        1
 93
        1
 72
     4
 94
        3
 73
     0
 74
     1
 95
       17
 96
       13
 40
0.0
 40
0.0
 40
0.0
 40
0.0
 40
1.0
 40
1.0
 40
1.0
 40
2.0
 40
2.0
 40
2.0
 40
3.0
 40
3.0
 40
3.0
 40
4.0
 40
4.0
 40
4.0
 40
4.0
 10
57.19431252639153
 20
-134.4482533436666
 10
56.92236530152462
 20
-136.1060548230156
 10
55.58528068000559
 20
-137.4431394445346
 10
53.92747920065658
 20
-137.7150866694015
 10
51.18985560514959
 20
-138.1641548659038
 10
48.85662162407057
 20
-135.8309208848248
 10
49.30568982057289
 20
-133.0932972893178
 10
49.57763704543979
 20
-131.4354958099688
 10
50.91472166695882
 20
-130.0984111884498
 10
52.57252314630782
 20
-129.8264639635829
 10
55.31014674181483
 20
-129.3773957670806
 10
57.64338072289384
 20
-131.7106297481596
 10
57.19431252639153
 20
-134.4482533436666
 97
        0
 97
        0
 92
        1
 93
        1
 72
     4
 94
        3
 73
     0
 74
     1
 95
       17
 96
       13
 40
0.0
 40
0.0
 40
0.0
 40
0.0
 40
1.0
 40
1.0
 40
1.0
 40
2.0
 40
2.0
 40
2.0
 40
3.0
 40
3.0
 40
3.0
 40
4.0
 40
4.0
 40
4.0
 40
4.0
 10
148.5000011496697
 20
-193.7707736060712
 10
131.9314603687641
 20
-193.7707736060712
 10
118.5000020048802
 20
-180.3393152421873
 10
118.5000020048802
 20
-163.7707744612817
 10
118.5000020048802
 20
-147.2022336803761
 10
131.9314603687641
 20
-133.7707753164922
 10
148.5000011496697
 20
-133.7707753164922
 10
165.0685419305753
 20
-133.7707753164922
 10
178.5000002944592
 20
-147.2022336803761
 10
178.5000002944592
 20
-163.7707744612817
 10
178.5000002944592
 20
-180.3393152421873
 10
165.0685419305753
 20
-193.7707736060712
 10
148.5000011496697
 20
-193.7707736060712
 97
        0
 97
        0
 92
        1
 93
        1
 72
     4
 94
        3
 73
     0
 74
     1
 95
       17
 96
       13
 40
0.0
 40
0.0
 40
0.0
 40
0.0
 40
1.0
 40
1.0
 40
1.0
 40
2.0
 40
2.0
 40
2.0
 40
3.0
 40
3.0
 40
3.0
 40
4.0
 40
4.0
 40
4.0
 40
4.0
 10
247.6942909469198
 20
-194.4483808243263
 10
247.4222791265125
 20
-196.1061607718285
 10
246.0851945049935
 20
-197.443202329654
 10
244.4273930256445
 20
-197.7151064908273
 10
241.689812493831
 20
-198.1641316236361
 10
239.3566215764456
 20
-195.8308545788635
 10
239.8056897729479
 20
-193.09327404705
 10
240.0776369978148
 20
-191.435472567701
 10
241.4147216193338
 20
-190.0984094780288
 10
243.0725230986828
 20
-189.8264622531619
 10
245.8101897578834
 20
-189.3773725248128
 10
248.143466802656
 20
-191.7107356969725
 10
247.6942909469198
 20
-194.4483808243263
 97
        0
 97
        0
 92
        1
 93
        1
 72
     4
 94
        3
 73
     0
 74
     1
 95
       17
 96
       13
 40
0.0
 40
0.0
 40
0.0
 40
0.0
 40
1.0
 40
1.0
 40
1.0
 40
2.0
 40
2.0
 40
2.0
 40
3.0
 40
3.0
 40
3.0
 40
4.0
 40
4.0
 40
4.0
 40
4.0
 10
247.6943124787665
 20
-134.4482533436666
 10
247.4223652538996
 20
-136.1060548230156
 10
246.0852806323806
 20
-137.4431394445346
 10
244.4274791530316
 20
-137.7150866694015
 10
241.6898555575246
 20
-138.1641548659038
 10
239.3566215764456
 20
-135.8309208848248
 10
239.8056897729479
 20
-133.0932972893178
 10
240.0776369978148
 20
-131.4354958099688
 10
241.4147216193338
 20
-130.0984111884498
 10
243.0725230986828
 20
-129.8264639635829
 10
245.8101466941898
 20
-129.3773957670806
 10
248.1433806752688
 20
-131.7106297481596
 10
247.6943124787665
 20
-134.4482533436666
 97
        0
 97
        0
 75
     2
 76
     1
 98
        0
  0
SPLINE
  5
48
330
1F
100
AcDbEntity
  8
Layer 1
 62
   250
420
  2301728
370
    35
100
AcDbSpline
210
0.0
220
0.0
230
1.0
 70
    11
 71
     3
 72
   113
 73
   109
 74
     0
 42
0.0000000001
 43
0.0000000001
 12
1.0
 22
0.0
 32
0.0
 13
1.0
 23
0.0
 33
0.0
 40
0.0
 40
0.0
 40
0.0
 40
0.0
 40
1.0
 40
1.0
 40
1.0
 40
2.0
 40
2.0
 40
2.0
 40
3.0
 40
3.0
 40
3.0
 40
4.0
 40
4.0
 40
4.0
 40
5.0
 40
5.0
 40
5.0
 40
6.0
 40
6.0
 40
6.0
 40
7.0
 40
7.0
 40
7.0
 40
8.0
 40
8.0
 40
8.0
 40
9.0
 40
9.0
 40
9.0
 40
10.0
 40
10.0
 40
10.0
 40
11.0
 40
11.0
 40
11.0
 40
12.0
 40
12.0
 40
12.0
 40
13.0
 40
13.0
 40
13.0
 40
14.0
 40
14.0
 40
14.0
 40
15.0
 40
15.0
 40
15.0
 40
16.0
 40
16.0
 40
16.0
 40
17.0
 40
17.0
 40
17.0
 40
18.0
 40
18.0
 40
18.0
 40
19.0
 40
19.0
 40
19.0
 40
20.0
 40
20.0
 40
20.0
 40
21.0
 40
21.0
 40
21.0
 40
22.0
 40
22.0
 40
22.0
 40
23.0
 40
23.0
 40
23.0
 40
24.0
 40
24.0
 40
24.0
 40
25.0
 40
25.0
 40
25.0
 40
26.0
 40
26.0
 40
26.0
 40
27.0
 40
27.0
 40
27.0
 40
28.0
 40
28.0
 40
28.0
 40
29.0
 40
29.0
 40
29.0
 40
30.0
 40
30.0
 40
30.0
 40
31.0
 40
31.0
 40
31.0
 40
32.0
 40
32.0
 40
32.0
 40
33.0
 40
33.0
 40
33.0
 40
34.0
 40
34.0
 40
34.0
 40
35.0
 40
35.0
 40
35.0
 40
36.0
 40
36.0
 40
36.0
 40
36.0
 10
243.4774294774336
 20
-11.77100025137026
 30
0.0
 10
243.4774294774336
 20
-11.77100025137026
 30
0.0
 10
53.68522439250317
 20
-11.77100025137026
 30
0.0
 10
53.68522439250317
 20
-11.77100025137026
 30
0.0
 10
48.06007248418724
 20
-11.77100025137026
 30
0.0
 10
43.49999337698308
 20
-16.33107935857443
 30
0.0
 10
43.49999337698308
 20
-21.95623126689036
 30
0.0
 10
43.49999337698308
 20
-21.95623126689036
 30
0.0
 10
43.49999337698308
 20
-85.77516096556236
 30
0.0
 10
43.49999337698308
 20
-85.77516096556236
 30
0.0
 10
43.49999337698308
 20
-85.77516096556236
 30
0.0
 10
43.49999337698308
 20
-90.27101057381341
 30
0.0
 10
43.49999337698308
 20
-90.27101057381341
 30
0.0
 10
43.49999337698308
 20
-90.27101057381341
 30
0.0
 10
43.49999337698308
 20
-91.77098361624441
 30
0.0
 10
43.49999337698308
 20
-91.77098361624441
 30
0.0
 10
43.49999337698308
 20
-92.59942142121308
 30
0.0
 10
44.17157167813897
 20
-93.27099972236897
 30
0.0
 10
45.00000948310764
 20
-93.27099972236897
 30
0.0
 10
45.00000948310764
 20
-93.27099972236897
 30
0.0
 10
50.24999049307986
 20
-93.27099972236897
 30
0.0
 10
50.24999049307986
 20
-93.27099972236897
 30
0.0
 10
50.24999049307986
 20
-93.27099972236897
 30
0.0
 10
50.24999049307986
 20
-87.27099989341107
 30
0.0
 10
50.24999049307986
 20
-87.27099989341107
 30
0.0
 10
50.24999049307986
 20
-87.27099989341107
 30
0.0
 10
56.25001185388455
 20
-87.27099989341107
 30
0.0
 10
56.25001185388455
 20
-87.27099989341107
 30
0.0
 10
56.25001185388455
 20
-87.27099989341107
 30
0.0
 10
56.25001185388455
 20
-93.27099972236897
 30
0.0
 10
56.25001185388455
 20
-93.27099972236897
 30
0.0
 10
56.25001185388455
 20
-93.27099972236897
 30
0.0
 10
95.99999726332639
 20
-93.27099972236897
 30
0.0
 10
95.99999726332639
 20
-93.27099972236897
 30
0.0
 10
95.99999726332639
 20
-93.27099972236897
 30
0.0
 10
97.87499048117361
 20
-93.27099972236897
 30
0.0
 10
97.87499048117361
 20
-93.27099972236897
 30
0.0
 10
97.87499048117361
 20
-93.27099972236897
 30
0.0
 10
97.87499048117361
 20
-87.27099989341107
 30
0.0
 10
97.87499048117361
 20
-87.27099989341107
 30
0.0
 10
97.87499048117361
 20
-87.27099989341107
 30
0.0
 10
103.8750118419783
 20
-87.27099989341107
 30
0.0
 10
103.8750118419783
 20
-87.27099989341107
 30
0.0
 10
103.8750118419783
 20
-87.27099989341107
 30
0.0
 10
103.8750118419783
 20
-93.27099972236897
 30
0.0
 10
103.8750118419783
 20
-93.27099972236897
 30
0.0
 10
103.8750118419783
 20
-93.27099972236897
 30
0.0
 10
123.0000072595603
 20
-93.27099972236897
 30
0.0
 10
123.0000072595603
 20
-93.27099972236897
 30
0.0
 10
123.0000072595603
 20
-93.27099972236897
 30
0.0
 10
145.4999904692674
 20
-93.27099972236897
 30
0.0
 10
145.4999904692674
 20
-93.27099972236897
 30
0.0
 10
145.4999904692674
 20
-93.27099972236897
 30
0.0
 10
145.4999904692674
 20
-87.27099989341107
 30
0.0
 10
145.4999904692674
 20
-87.27099989341107
 30
0.0
 10
145.4999904692674
 20
-87.27099989341107
 30
0.0
 10
151.5000118300721
 20
-87.27099989341107
 30
0.0
 10
151.5000118300721
 20
-87.27099989341107
 30
0.0
 10
151.5000118300721
 20
-87.27099989341107
 30
0.0
 10
151.5000118300721
 20
-93.27099972236897
 30
0.0
 10
151.5000118300721
 20
-93.27099972236897
 30
0.0
 10
151.5000118300721
 20
-93.27099972236897
 30
0.0
 10
173.9999950397791
 20
-93.27099972236897
 30
0.0
 10
173.9999950397791
 20
-93.27099972236897
 30
0.0
 10
173.9999950397791
 20
-93.27099972236897
 30
0.0
 10
193.1249904573611
 20
-93.27099972236897
 30
0.0
 10
193.1249904573611
 20
-93.27099972236897
 30
0.0
 10
193.1249904573611
 20
-93.27099972236897
 30
0.0
 10
193.1249904573611
 20
-87.27099989341107
 30
0.0
 10
193.1249904573611
 20
-87.27099989341107
 30
0.0
 10
193.1249904573611
 20
-87.27099989341107
 30
0.0
 10
199.1250118181658
 20
-87.27099989341107
 30
0.0
 10
199.1250118181658
 20
-87.27099989341107
 30
0.0
 10
199.1250118181658
 20
-87.27099989341107
 30
0.0
 10
199.1250118181658
 20
-93.27099972236897
 30
0.0
 10
199.1250118181658
 20
-93.27099972236897
 30
0.0
 10
199.1250118181658
 20
-93.27099972236897
 30
0.0
 10
201.000005036013
 20
-93.27099972236897
 30
0.0
 10
201.000005036013
 20
-93.27099972236897
 30
0.0
 10
201.000005036013
 20
-93.27099972236897
 30
0.0
 10
240.7499904454549
 20
-93.27099972236897
 30
0.0
 10
240.7499904454549
 20
-93.27099972236897
 30
0.0
 10
240.7499904454549
 20
-93.27099972236897
 30
0.0
 10
240.7499904454549
 20
-87.27099989341107
 30
0.0
 10
240.7499904454549
 20
-87.27099989341107
 30
0.0
 10
240.7499904454549
 20
-87.27099989341107
 30
0.0
 10
246.7500118062596
 20
-87.27099989341107
 30
0.0
 10
246.7500118062596
 20
-87.27099989341107
 30
0.0
 10
246.7500118062596
 20
-87.27099989341107
 30
0.0
 10
246.7500118062596
 20
-93.27099972236897
 30
0.0
 10
246.7500118062596
 20
-93.27099972236897
 30
0.0
 10
246.7500118062596
 20
-93.27099972236897
 30
0.0
 10
251.9999928162318
 20
-93.27099972236897
 30
0.0
 10
251.9999928162318
 20
-93.27099972236897
 30
0.0
 10
252.8284306212005
 20
-93.27099972236897
 30
0.0
 10
253.5000089223564
 20
-92.59942142121308
 30
0.0
 10
253.5000089223564
 20
-91.77098361624441
 30
0.0
 10
253.5000089223564
 20
-91.77098361624441
 30
0.0
 10
253.5000089223564
 20
-90.27101057381341
 30
0.0
 10
253.5000089223564
 20
-90.27101057381341
 30
0.0
 10
253.5000089223564
 20
-90.27101057381341
 30
0.0
 10
253.5000089223564
 20
-85.77516096556236
 30
0.0
 10
253.5000089223564
 20
-85.77516096556236
 30
0.0
 10
253.5000089223564
 20
-85.77516096556236
 30
0.0
 10
253.5000089223564
 20
-21.793579696293
 30
0.0
 10
253.5000089223564
 20
-21.793579696293
 30
0.0
 10
253.5000089223564
 20
-16.25825865275496
 30
0.0
 10
249.0127505209717
 20
-11.77100025137026
 30
0.0
 10
243.4774294774336
 20
-11.77100025137026
 30
0.0
  0
SPLINE
  5
49
330
1F
100
AcDbEntity
  8
Layer 1
 62
   250
420
  2301728
370
    35
100
AcDbSpline
210
0.0
220
0.0
230
1.0
 70
    11
 71
     3
 72
    17
 73
    13
 74
     0
 42
0.0000000001
 43
0.0000000001
 12
1.0
 22
0.0
 32
0.0
 13
1.0
 23
0.0
 33
0.0
 40
0.0
 40
0.0
 40
0.0
 40
0.0
 40
1.0
 40
1.0
 40
1.0
 40
2.0
 40
2.0
 40
2.0
 40
3.0
 40
3.0
 40
3.0
 40
4.0
 40
4.0
 40
4.0
 40
4.0
 10
53.55080107303808
 20
-23.31342663330454
 30
0.0
 10
53.71384021687753
 20
-22.57817866121187
 30
0.0
 10
54.30717178682468
 20
-21.98491168680507
 30
0.0
 10
55.04241975891735
 20
-21.82195867035275
 30
0.0
 10
56.50148229246101
 20
-21.49861492721527
 30
0.0
 10
57.77265793097784
 20
-22.76987669311924
 30
0.0
 10
57.44920652860645
 20
-24.22889616296933
 30
0.0
 10
57.28623198030735
 20
-24.964144135062
 30
0.0
 10
56.69292194220698
 20
-25.55745417316237
 30
0.0
 10
55.95767397011431
 20
-25.72042872146147
 30
0.0
 10
54.4985683728771
 20
-26.04390165567964
 30
0.0
 10
53.22728507512634
 20
-24.77253223054176
 30
0.0
 10
53.55080107303808
 20
-23.31342663330454
 30
0.0
  0
SPLINE
  5
4A
330
1F
100
AcDbEntity
  8
Layer 1
 62
   250
420
  2301728
370
    35
100
AcDbSpline
210
0.0
220
0.0
230
1.0
 70
    11
 71
     3
 72
    17
 73
    13
 74
     0
 42
0.0000000001
 43
0.0000000001
 12
1.0
 22
0.0
 32
0.0
 13
1.0
 23
0.0
 33
0.0
 40
0.0
 40
0.0
 40
0.0
 40
0.0
 40
1.0
 40
1.0
 40
1.0
 40
2.0
 40
2.0
 40
2.0
 40
3.0
 40
3.0
 40
3.0
 40
4.0
 40
4.0
 40
4.0
 40
4.0
 10
57.44924959230001
 20
-80.22879408462474
 30
0.0
 10
57.2862965758477
 20
-80.96406358856419
 30
0.0
 10
56.69302960144089
 20
-81.55737362666456
 30
0.0
 10
55.95778162934823
 20
-81.72039123865723
 30
0.0
 10
54.49863296841745
 20
-82.04392876841575
 30
0.0
 10
53.22726354327956
 20
-80.77258087512465
 30
0.0
 10
53.55082260488486
 20
-79.31341068234708
 30
0.0
 10
53.71384021687753
 20
-78.5781842421012
 30
0.0
 10
54.30715025497791
 20
-77.98491726769439
 30
0.0
 10
55.04239822707056
 20
-77.82196425124208
 30
0.0
 10
56.50143922876744
 20
-77.4986205081046
 30
0.0
 10
57.7725933354375
 20
-78.76977461477465
 30
0.0
 10
57.44924959230001
 20
-80.22879408462474
 30
0.0
  0
SPLINE
  5
4B
330
1F
100
AcDbEntity
  8
Layer 1
 62
   250
420
  2301728
370
    35
100
AcDbSpline
210
0.0
220
0.0
230
1.0
 70
    11
 71
     3
 72
    17
 73
    13
 74
     0
 42
0.0000000001
 43
0.0000000001
 12
1.0
 22
0.0
 32
0.0
 13
1.0
 23
0.0
 33
0.0
 40
0.0
 40
0.0
 40
0.0
 40
0.0
 40
1.0
 40
1.0
 40
1.0
 40
2.0
 40
2.0
 40
2.0
 40
3.0
 40
3.0
 40
3.0
 40
4.0
 40
4.0
 40
4.0
 40
4.0
 10
57.44922806045324
 20
-52.2288881874906
 30
0.0
 10
57.28623198030735
 20
-52.96413615958327
 30
0.0
 10
56.69292194220698
 20
-53.55744619768364
 30
0.0
 10
55.95767397011431
 20
-53.72042074598274
 30
0.0
 10
54.49861143657066
 20
-54.04387214835413
 30
0.0
 10
53.22737120251347
 20
-52.77263191429694
 30
0.0
 10
53.5507795411913
 20
-51.3135478489065
 30
0.0
 10
53.7137540894904
 20
-50.57827834496706
 30
0.0
 10
54.30706412759077
 20
-49.98496830686668
 30
0.0
 10
55.04233363153022
 20
-49.82199375856759
 30
0.0
 10
56.50141769692065
 20
-49.49858541988976
 30
0.0
 10
57.77265793097784
 20
-50.76982565394695
 30
0.0
 10
57.44922806045324
 20
-52.2288881874906
 30
0.0
  0
SPLINE
  5
4C
330
1F
100
AcDbEntity
  8
Layer 1
 62
   250
420
  2301728
370
    35
100
AcDbSpline
210
0.0
220
0.0
230
1.0
 70
    11
 71
     3
 72
    17
 73
    13
 74
     0
 42
0.0000000001
 43
0.0000000001
 12
1.0
 22
0.0
 32
0.0
 13
1.0
 23
0.0
 33
0.0
 40
0.0
 40
0.0
 40
0.0
 40
0.0
 40
1.0
 40
1.0
 40
1.0
 40
2.0
 40
2.0
 40
2.0
 40
3.0
 40
3.0
 40
3.0
 40
4.0
 40
4.0
 40
4.0
 40
4.0
 10
94.64919685540671
 20
-24.22900382220325
 30
0.0
 10
94.48615771156727
 20
-24.96425179429591
 30
0.0
 10
93.89282614162012
 20
-25.55751876870271
 30
0.0
 10
93.15757816952745
 20
-25.72047178515503
 30
0.0
 10
91.6985156359838
 20
-26.04381552829251
 30
0.0
 10
90.42733999746696
 20
-24.77253223054176
 30
0.0
 10
90.75079139983835
 20
-23.31351276069167
 30
0.0
 10
90.91376594813745
 20
-22.578264788599
 30
0.0
 10
91.50707598623782
 20
-21.98497628234541
 30
0.0
 10
92.24232395833049
 20
-21.82198020219953
 30
0.0
 10
93.7014295555677
 20
-21.49852879982814
 30
0.0
 10
94.97271285331846
 20
-22.76989822496603
 30
0.0
 10
94.64919685540671
 20
-24.22900382220325
 30
0.0
  0
SPLINE
  5
4D
330
1F
100
AcDbEntity
  8
Layer 1
 62
   250
420
  2301728
370
    35
100
AcDbSpline
210
0.0
220
0.0
230
1.0
 70
    11
 71
     3
 72
    17
 73
    13
 74
     0
 42
0.0000000001
 43
0.0000000001
 12
1.0
 22
0.0
 32
0.0
 13
1.0
 23
0.0
 33
0.0
 40
0.0
 40
0.0
 40
0.0
 40
0.0
 40
1.0
 40
1.0
 40
1.0
 40
2.0
 40
2.0
 40
2.0
 40
3.0
 40
3.0
 40
3.0
 40
4.0
 40
4.0
 40
4.0
 40
4.0
 10
127.9508032584854
 20
-23.31342663330454
 30
0.0
 10
128.1138424023248
 20
-22.57817866121187
 30
0.0
 10
128.707173972272
 20
-21.98491168680507
 30
0.0
 10
129.4424219443647
 20
-21.82195867035275
 30
0.0
 10
130.9014844779083
 20
-21.49861492721527
 30
0.0
 10
132.1726601164252
 20
-22.76987669311924
 30
0.0
 10
131.8492087140538
 20
-24.22889616296933
 30
0.0
 10
131.6862341657547
 20
-24.964144135062
 30
0.0
 10
131.0929241276543
 20
-25.55745417316237
 30
0.0
 10
130.3576761555616
 20
-25.72042872146147
 30
0.0
 10
128.8985705583244
 20
-26.04390165567964
 30
0.0
 10
127.6272872605737
 20
-24.77253223054176
 30
0.0
 10
127.9508032584854
 20
-23.31342663330454
 30
0.0
  0
SPLINE
  5
4E
330
1F
100
AcDbEntity
  8
Layer 1
 62
   250
420
  2301728
370
    35
100
AcDbSpline
210
0.0
220
0.0
230
1.0
 70
    11
 71
     3
 72
    17
 73
    13
 74
     0
 42
0.0000000001
 43
0.0000000001
 12
1.0
 22
0.0
 32
0.0
 13
1.0
 23
0.0
 33
0.0
 40
0.0
 40
0.0
 40
0.0
 40
0.0
 40
1.0
 40
1.0
 40
1.0
 40
2.0
 40
2.0
 40
2.0
 40
3.0
 40
3.0
 40
3.0
 40
4.0
 40
4.0
 40
4.0
 40
4.0
 10
131.8492302459005
 20
-52.2288881874906
 30
0.0
 10
131.6862341657547
 20
-52.96413615958327
 30
0.0
 10
131.0929241276543
 20
-53.55744619768364
 30
0.0
 10
130.3576761555616
 20
-53.72042074598274
 30
0.0
 10
128.898613622018
 20
-54.04387214835413
 30
0.0
 10
127.6273733879608
 20
-52.77263191429694
 30
0.0
 10
127.9507817266386
 20
-51.3135478489065
 30
0.0
 10
128.1137562749377
 20
-50.57827834496706
 30
0.0
 10
128.7070663130381
 20
-49.98496830686668
 30
0.0
 10
129.4423358169775
 20
-49.82199375856759
 30
0.0
 10
130.901419882368
 20
-49.49858541988976
 30
0.0
 10
132.1726601164252
 20
-50.76982565394695
 30
0.0
 10
131.8492302459005
 20
-52.2288881874906
 30
0.0
  0
SPLINE
  5
4F
330
1F
100
AcDbEntity
  8
Layer 1
 62
   250
420
  2301728
370
    35
100
AcDbSpline
210
0.0
220
0.0
230
1.0
 70
    11
 71
     3
 72
    17
 73
    13
 74
     0
 42
0.0000000001
 43
0.0000000001
 12
1.0
 22
0.0
 32
0.0
 13
1.0
 23
0.0
 33
0.0
 40
0.0
 40
0.0
 40
0.0
 40
0.0
 40
1.0
 40
1.0
 40
1.0
 40
2.0
 40
2.0
 40
2.0
 40
3.0
 40
3.0
 40
3.0
 40
4.0
 40
4.0
 40
4.0
 40
4.0
 10
169.0491775090073
 20
-52.22899584672452
 30
0.0
 10
168.8861598970146
 20
-52.96424381881718
 30
0.0
 10
168.2928498589142
 20
-53.55751079322398
 30
0.0
 10
167.5576018868215
 20
-53.72044227782952
 30
0.0
 10
166.0985608851247
 20
-54.04380755281378
 30
0.0
 10
164.8274067784546
 20
-52.77263191429694
 30
0.0
 10
165.1507505215921
 20
-51.31361244444685
 30
0.0
 10
165.3137035380444
 20
-50.57836447235419
 30
0.0
 10
165.9069705124512
 20
-49.98505443425382
 30
0.0
 10
166.6422184845439
 20
-49.82201529041437
 30
0.0
 10
168.1013671454747
 20
-49.49847776065585
 30
0.0
 10
169.3727365706125
 20
-50.76984718579373
 30
0.0
 10
169.0491775090073
 20
-52.22899584672452
 30
0.0
  0
SPLINE
  5
50
330
1F
100
AcDbEntity
  8
Layer 1
 62
   250
420
  2301728
370
    35
100
AcDbSpline
210
0.0
220
0.0
230
1.0
 70
    11
 71
     3
 72
    17
 73
    13
 74
     0
 42
0.0000000001
 43
0.0000000001
 12
1.0
 22
0.0
 32
0.0
 13
1.0
 23
0.0
 33
0.0
 40
0.0
 40
0.0
 40
0.0
 40
0.0
 40
1.0
 40
1.0
 40
1.0
 40
2.0
 40
2.0
 40
2.0
 40
3.0
 40
3.0
 40
3.0
 40
4.0
 40
4.0
 40
4.0
 40
4.0
 10
169.049199040854
 20
-24.22900382220325
 30
0.0
 10
168.8861598970146
 20
-24.96425179429591
 30
0.0
 10
168.2928283270674
 20
-25.55751876870271
 30
0.0
 10
167.5575803549748
 20
-25.72047178515503
 30
0.0
 10
166.0985178214311
 20
-26.04381552829251
 30
0.0
 10
164.8273421829143
 20
-24.77253223054176
 30
0.0
 10
165.1507935852857
 20
-23.31351276069167
 30
0.0
 10
165.3137681335848
 20
-22.578264788599
 30
0.0
 10
165.9070781716851
 20
-21.98497628234541
 30
0.0
 10
166.6423261437778
 20
-21.82198020219953
 30
0.0
 10
168.101431741015
 20
-21.49852879982814
 30
0.0
 10
169.3727150387658
 20
-22.76989822496603
 30
0.0
 10
169.049199040854
 20
-24.22900382220325
 30
0.0
  0
SPLINE
  5
51
330
1F
100
AcDbEntity
  8
Layer 1
 62
   250
420
  2301728
370
    35
100
AcDbSpline
210
0.0
220
0.0
230
1.0
 70
    11
 71
     3
 72
    17
 73
    13
 74
     0
 42
0.0000000001
 43
0.0000000001
 12
1.0
 22
0.0
 32
0.0
 13
1.0
 23
0.0
 33
0.0
 40
0.0
 40
0.0
 40
0.0
 40
0.0
 40
1.0
 40
1.0
 40
1.0
 40
2.0
 40
2.0
 40
2.0
 40
3.0
 40
3.0
 40
3.0
 40
4.0
 40
4.0
 40
4.0
 40
4.0
 10
206.2492324313478
 20
-24.22887463112255
 30
0.0
 10
206.086236351202
 20
-24.964144135062
 30
0.0
 10
205.4929263131016
 20
-25.55745417316237
 30
0.0
 10
204.7576783410089
 20
-25.72042872146147
 30
0.0
 10
203.2986158074653
 20
-26.04388012383286
 30
0.0
 10
202.0273325097145
 20
-24.7725968260821
 30
0.0
 10
202.3507623802391
 20
-23.31353429253845
 30
0.0
 10
202.513758460385
 20
-22.57828632044579
 30
0.0
 10
203.1070684984854
 20
-21.98497628234541
 30
0.0
 10
203.8423164705781
 20
-21.82198020219953
 30
0.0
 10
205.3013790041217
 20
-21.49855033167492
 30
0.0
 10
206.5726623018725
 20
-22.76983362942568
 30
0.0
 10
206.2492324313478
 20
-24.22887463112255
 30
0.0
  0
SPLINE
  5
52
330
1F
100
AcDbEntity
  8
Layer 1
 62
   250
420
  2301728
370
    35
100
AcDbSpline
210
0.0
220
0.0
230
1.0
 70
    11
 71
     3
 72
    17
 73
    13
 74
     0
 42
0.0000000001
 43
0.0000000001
 12
1.0
 22
0.0
 32
0.0
 13
1.0
 23
0.0
 33
0.0
 40
0.0
 40
0.0
 40
0.0
 40
0.0
 40
1.0
 40
1.0
 40
1.0
 40
2.0
 40
2.0
 40
2.0
 40
3.0
 40
3.0
 40
3.0
 40
4.0
 40
4.0
 40
4.0
 40
4.0
 10
243.4492227581481
 20
-80.22888021201187
 30
0.0
 10
243.286248209849
 20
-80.96414971595132
 30
0.0
 10
242.6929381717487
 20
-81.55745975405169
 30
0.0
 10
241.9576686678092
 20
-81.7204343023508
 30
0.0
 10
240.4985846024188
 20
-82.04384264102862
 30
0.0
 10
239.2273443683616
 20
-80.77258087512465
 30
0.0
 10
239.5507742388862
 20
-79.31353987342777
 30
0.0
 10
239.7137703190321
 20
-78.57827036948832
 30
0.0
 10
240.3070803571324
 20
-77.98498186323474
 30
0.0
 10
241.0423283292251
 20
-77.82198578308886
 30
0.0
 10
242.5013908627688
 20
-77.49855591256424
 30
0.0
 10
243.772631096826
 20
-78.76979614662143
 30
0.0
 10
243.4492227581481
 20
-80.22888021201187
 30
0.0
  0
SPLINE
  5
53
330
1F
100
AcDbEntity
  8
Layer 1
 62
   250
420
  2301728
370
    35
100
AcDbSpline
210
0.0
220
0.0
230
1.0
 70
    11
 71
     3
 72
    17
 73
    13
 74
     0
 42
0.0000000001
 43
0.0000000001
 12
1.0
 22
0.0
 32
0.0
 13
1.0
 23
0.0
 33
0.0
 40
0.0
 40
0.0
 40
0.0
 40
0.0
 40
1.0
 40
1.0
 40
1.0
 40
2.0
 40
2.0
 40
2.0
 40
3.0
 40
3.0
 40
3.0
 40
4.0
 40
4.0
 40
4.0
 40
4.0
 10
243.4491796944546
 20
-52.22899584672452
 30
0.0
 10
243.2861620824619
 20
-52.96424381881718
 30
0.0
 10
242.6928520443615
 20
-53.55751079322398
 30
0.0
 10
241.9576040722689
 20
-53.72044227782952
 30
0.0
 10
240.498563070572
 20
-54.04380755281378
 30
0.0
 10
239.2274089639019
 20
-52.77263191429694
 30
0.0
 10
239.5507527070394
 20
-51.31361244444685
 30
0.0
 10
239.7137057234917
 20
-50.57836447235419
 30
0.0
 10
240.3069726978985
 20
-49.98505443425382
 30
0.0
 10
241.0422206699912
 20
-49.82201529041437
 30
0.0
 10
242.501369330922
 20
-49.49847776065585
 30
0.0
 10
243.7727387560599
 20
-50.76984718579373
 30
0.0
 10
243.4491796944546
 20
-52.22899584672452
 30
0.0
  0
SPLINE
  5
54
330
1F
100
AcDbEntity
  8
Layer 1
 62
   250
420
  2301728
370
    35
100
AcDbSpline
210
0.0
220
0.0
230
1.0
 70
    11
 71
     3
 72
    17
 73
    13
 74
     0
 42
0.0000000001
 43
0.0000000001
 12
1.0
 22
0.0
 32
0.0
 13
1.0
 23
0.0
 33
0.0
 40
0.0
 40
0.0
 40
0.0
 40
0.0
 40
1.0
 40
1.0
 40
1.0
 40
2.0
 40
2.0
 40
2.0
 40
3.0
 40
3.0
 40
3.0
 40
4.0
 40
4.0
 40
4.0
 40
4.0
 10
243.4492012263013
 20
-24.22900382220325
 30
0.0
 10
243.2861620824619
 20
-24.96425179429591
 30
0.0
 10
242.6928305125147
 20
-25.55751876870271
 30
0.0
 10
241.9575825404221
 20
-25.72047178515503
 30
0.0
 10
240.4985200068784
 20
-26.04381552829251
 30
0.0
 10
239.2273443683616
 20
-24.77253223054176
 30
0.0
 10
239.550795770733
 20
-23.31351276069167
 30
0.0
 10
239.7137703190321
 20
-22.578264788599
 30
0.0
 10
240.3070803571324
 20
-21.98497628234541
 30
0.0
 10
241.0423283292251
 20
-21.82198020219953
 30
0.0
 10
242.5014339264623
 20
-21.49852879982814
 30
0.0
 10
243.7727172242131
 20
-22.76989822496603
 30
0.0
 10
243.4492012263013
 20
-24.22900382220325
 30
0.0
  0
HATCH
  5
55
330
1F
100
AcDbEntity
  8
Layer 1
 62
   254
420
 13750996
100
AcDbHatch
 10
0.0
 20
0.0
 30
0.0
210
0.0
220
0.0
230
1.0
  2
SOLID
 70
     1
 71
     0
 91
       13
 92
        1
 93
        1
 72
     4
 94
        3
 73
     0
 74
     1
 95
      113
 96
      109
 40
0.0
 40
0.0
 40
0.0
 40
0.0
 40
1.0
 40
1.0
 40
1.0
 40
2.0
 40
2.0
 40
2.0
 40
3.0
 40
3.0
 40
3.0
 40
4.0
 40
4.0
 40
4.0
 40
5.0
 40
5.0
 40
5.0
 40
6.0
 40
6.0
 40
6.0
 40
7.0
 40
7.0
 40
7.0
 40
8.0
 40
8.0
 40
8.0
 40
9.0
 40
9.0
 40
9.0
 40
10.0
 40
10.0
 40
10.0
 40
11.0
 40
11.0
 40
11.0
 40
12.0
 40
12.0
 40
12.0
 40
13.0
 40
13.0
 40
13.0
 40
14.0
 40
14.0
 40
14.0
 40
15.0
 40
15.0
 40
15.0
 40
16.0
 40
16.0
 40
16.0
 40
17.0
 40
17.0
 40
17.0
 40
18.0
 40
18.0
 40
18.0
 40
19.0
 40
19.0
 40
19.0
 40
20.0
 40
20.0
 40
20.0
 40
21.0
 40
21.0
 40
21.0
 40
22.0
 40
22.0
 40
22.0
 40
23.0
 40
23.0
 40
23.0
 40
24.0
 40
24.0
 40
24.0
 40
25.0
 40
25.0
 40
25.0
 40
26.0
 40
26.0
 40
26.0
 40
27.0
 40
27.0
 40
27.0
 40
28.0
 40
28.0
 40
28.0
 40
29.0
 40
29.0
 40
29.0
 40
30.0
 40
30.0
 40
30.0
 40
31.0
 40
31.0
 40
31.0
 40
32.0
 40
32.0
 40
32.0
 40
33.0
 40
33.0
 40
33.0
 40
34.0
 40
34.0
 40
34.0
 40
35.0
 40
35.0
 40
35.0
 40
36.0
 40
36.0
 40
36.0
 40
36.0
 10
243.4774294774336
 20
-11.77100025137026
 10
243.4774294774336
 20
-11.77100025137026
 10
53.68522439250317
 20
-11.77100025137026
 10
53.68522439250317
 20
-11.77100025137026
 10
48.06007248418724
 20
-11.77100025137026
 10
43.49999337698308
 20
-16.33107935857443
 10
43.49999337698308
 20
-21.95623126689036
 10
43.49999337698308
 20
-21.95623126689036
 10
43.49999337698308
 20
-85.77516096556236
 10
43.49999337698308
 20
-85.77516096556236
 10
43.49999337698308
 20
-85.77516096556236
 10
43.49999337698308
 20
-90.27101057381341
 10
43.49999337698308
 20
-90.27101057381341
 10
43.49999337698308
 20
-90.27101057381341
 10
43.49999337698308
 20
-91.77098361624441
 10
43.49999337698308
 20
-91.77098361624441
 10
43.49999337698308
 20
-92.59942142121308
 10
44.17157167813897
 20
-93.27099972236897
 10
45.00000948310764
 20
-93.27099972236897
 10
45.00000948310764
 20
-93.27099972236897
 10
50.24999049307986
 20
-93.27099972236897
 10
50.24999049307986
 20
-93.27099972236897
 10
50.24999049307986
 20
-93.27099972236897
 10
50.24999049307986
 20
-87.27099989341107
 10
50.24999049307986
 20
-87.27099989341107
 10
50.24999049307986
 20
-87.27099989341107
 10
56.25001185388455
 20
-87.27099989341107
 10
56.25001185388455
 20
-87.27099989341107
 10
56.25001185388455
 20
-87.27099989341107
 10
56.25001185388455
 20
-93.27099972236897
 10
56.25001185388455
 20
-93.27099972236897
 10
56.25001185388455
 20
-93.27099972236897
 10
95.99999726332639
 20
-93.27099972236897
 10
95.99999726332639
 20
-93.27099972236897
 10
95.99999726332639
 20
-93.27099972236897
 10
97.87499048117361
 20
-93.27099972236897
 10
97.87499048117361
 20
-93.27099972236897
 10
97.87499048117361
 20
-93.27099972236897
 10
97.87499048117361
 20
-87.27099989341107
 10
97.87499048117361
 20
-87.27099989341107
 10
97.87499048117361
 20
-87.27099989341107
 10
103.8750118419783
 20
-87.27099989341107
 10
103.8750118419783
 20
-87.27099989341107
 10
103.8750118419783
 20
-87.27099989341107
 10
103.8750118419783
 20
-93.27099972236897
 10
103.8750118419783
 20
-93.27099972236897
 10
103.8750118419783
 20
-93.27099972236897
 10
123.0000072595603
 20
-93.27099972236897
 10
123.0000072595603
 20
-93.27099972236897
 10
123.0000072595603
 20
-93.27099972236897
 10
145.4999904692674
 20
-93.27099972236897
 10
145.4999904692674
 20
-93.27099972236897
 10
145.4999904692674
 20
-93.27099972236897
 10
145.4999904692674
 20
-87.27099989341107
 10
145.4999904692674
 20
-87.27099989341107
 10
145.4999904692674
 20
-87.27099989341107
 10
151.5000118300721
 20
-87.27099989341107
 10
151.5000118300721
 20
-87.27099989341107
 10
151.5000118300721
 20
-87.27099989341107
 10
151.5000118300721
 20
-93.27099972236897
 10
151.5000118300721
 20
-93.27099972236897
 10
151.5000118300721
 20
-93.27099972236897
 10
173.9999950397791
 20
-93.27099972236897
 10
173.9999950397791
 20
-93.27099972236897
 10
173.9999950397791
 20
-93.27099972236897
 10
193.1249904573611
 20
-93.27099972236897
 10
193.1249904573611
 20
-93.27099972236897
 10
193.1249904573611
 20
-93.27099972236897
 10
193.1249904573611
 20
-87.27099989341107
 10
193.1249904573611
 20
-87.27099989341107
 10
193.1249904573611
 20
-87.27099989341107
 10
199.1250118181658
 20
-87.27099989341107
 10
199.1250118181658
 20
-87.27099989341107
 10
199.1250118181658
 20
-87.27099989341107
 10
199.1250118181658
 20
-93.27099972236897
 10
199.1250118181658
 20
-93.27099972236897
 10
199.1250118181658
 20
-93.27099972236897
 10
201.000005036013
 20
-93.27099972236897
 10
201.000005036013
 20
-93.27099972236897
 10
201.000005036013
 20
-93.27099972236897
 10
240.7499904454549
 20
-93.27099972236897
 10
240.7499904454549
 20
-93.27099972236897
 10
240.7499904454549
 20
-93.27099972236897
 10
240.7499904454549
 20
-87.27099989341107
 10
240.7499904454549
 20
-87.27099989341107
 10
240.7499904454549
 20
-87.27099989341107
 10
246.7500118062596
 20
-87.27099989341107
 10
246.7500118062596
 20
-87.27099989341107
 10
246.7500118062596
 20
-87.27099989341107
 10
246.7500118062596
 20
-93.27099972236897
 10
246.7500118062596
 20
-93.27099972236897
 10
246.7500118062596
 20
-93.27099972236897
 10
251.9999928162318
 20
-93.27099972236897
 10
251.9999928162318
 20
-93.27099972236897
 10
252.8284306212005
 20
-93.27099972236897
 10
253.5000089223564
 20
-92.59942142121308
 10
253.5000089223564
 20
-91.77098361624441
 10
253.5000089223564
 20
-91.77098361624441
 10
253.5000089223564
 20
-90.27101057381341
 10
253.5000089223564
 20
-90.27101057381341
 10
253.5000089223564
 20
-90.27101057381341
 10
253.5000089223564
 20
-85.77516096556236
 10
253.5000089223564
 20
-85.77516096556236
 10
253.5000089223564
 20
-85.77516096556236
 10
253.5000089223564
 20
-21.793579696293
 10
253.5000089223564
 20
-21.793579696293
 10
253.5000089223564
 20
-16.25825865275496
 10
249.0127505209717
 20
-11.77100025137026
 10
243.4774294774336
 20
-11.77100025137026
 97
        0
 97
        0
 92
        1
 93
        1
 72
     4
 94
        3
 73
     0
 74
     1
 95
       17
 96
       13
 40
0.0
 40
0.0
 40
0.0
 40
0.0
 40
1.0
 40
1.0
 40
1.0
 40
2.0
 40
2.0
 40
2.0
 40
3.0
 40
3.0
 40
3.0
 40
4.0
 40
4.0
 40
4.0
 40
4.0
 10
53.55080107303808
 20
-23.31342663330454
 10
53.71384021687753
 20
-22.57817866121187
 10
54.30717178682468
 20
-21.98491168680507
 10
55.04241975891735
 20
-21.82195867035275
 10
56.50148229246101
 20
-21.49861492721527
 10
57.77265793097784
 20
-22.76987669311924
 10
57.44920652860645
 20
-24.22889616296933
 10
57.28623198030735
 20
-24.964144135062
 10
56.69292194220698
 20
-25.55745417316237
 10
55.95767397011431
 20
-25.72042872146147
 10
54.4985683728771
 20
-26.04390165567964
 10
53.22728507512634
 20
-24.77253223054176
 10
53.55080107303808
 20
-23.31342663330454
 97
        0
 97
        0
 92
        1
 93
        1
 72
     4
 94
        3
 73
     0
 74
     1
 95
       17
 96
       13
 40
0.0
 40
0.0
 40
0.0
 40
0.0
 40
1.0
 40
1.0
 40
1.0
 40
2.0
 40
2.0
 40
2.0
 40
3.0
 40
3.0
 40
3.0
 40
4.0
 40
4.0
 40
4.0
 40
4.0
 10
57.44924959230001
 20
-80.22879408462474
 10
57.2862965758477
 20
-80.96406358856419
 10
56.69302960144089
 20
-81.55737362666456
 10
55.95778162934823
 20
-81.72039123865723
 10
54.49863296841745
 20
-82.04392876841575
 10
53.22726354327956
 20
-80.77258087512465
 10
53.55082260488486
 20
-79.31341068234708
 10
53.71384021687753
 20
-78.5781842421012
 10
54.30715025497791
 20
-77.98491726769439
 10
55.04239822707056
 20
-77.82196425124208
 10
56.50143922876744
 20
-77.4986205081046
 10
57.7725933354375
 20
-78.76977461477465
 10
57.44924959230001
 20
-80.22879408462474
 97
        0
 97
        0
 92
        1
 93
        1
 72
     4
 94
        3
 73
     0
 74
     1
 95
       17
 96
       13
 40
0.0
 40
0.0
 40
0.0
 40
0.0
 40
1.0
 40
1.0
 40
1.0
 40
2.0
 40
2.0
 40
2.0
 40
3.0
 40
3.0
 40
3.0
 40
4.0
 40
4.0
 40
4.0
 40
4.0
 10
57.44922806045324
 20
-52.2288881874906
 10
57.28623198030735
 20
-52.96413615958327
 10
56.69292194220698
 20
-53.55744619768364
 10
55.95767397011431
 20
-53.72042074598274
 10
54.49861143657066
 20
-54.04387214835413
 10
53.22737120251347
 20
-52.77263191429694
 10
53.5507795411913
 20
-51.3135478489065
 10
53.7137540894904
 20
-50.57827834496706
 10
54.30706412759077
 20
-49.98496830686668
 10
55.04233363153022
 20
-49.82199375856759
 10
56.50141769692065
 20
-49.49858541988976
 10
57.77265793097784
 20
-50.76982565394695
 10
57.44922806045324
 20
-52.2288881874906
 97
        0
 97
        0
 92
        1
 93
        1
 72
     4
 94
        3
 73
     0
 74
     1
 95
       17
 96
       13
 40
0.0
 40
0.0
 40
0.0
 40
0.0
 40
1.0
 40
1.0
 40
1.0
 40
2.0
 40
2.0
 40
2.0
 40
3.0
 40
3.0
 40
3.0
 40
4.0
 40
4.0
 40
4.0
 40
4.0
 10
94.64919685540671
 20
-24.22900382220325
 10
94.48615771156727
 20
-24.96425179429591
 10
93.89282614162012
 20
-25.55751876870271
 10
93.15757816952745
 20
-25.72047178515503
 10
91.6985156359838
 20
-26.04381552829251
 10
90.42733999746696
 20
-24.77253223054176
 10
90.75079139983835
 20
-23.31351276069167
 10
90.91376594813745
 20
-22.578264788599
 10
91.50707598623782
 20
-21.98497628234541
 10
92.24232395833049
 20
-21.82198020219953
 10
93.7014295555677
 20
-21.49852879982814
 10
94.97271285331846
 20
-22.76989822496603
 10
94.64919685540671
 20
-24.22900382220325
 97
        0
 97
        0
 92
        1
 93
        1
 72
     4
 94
        3
 73
     0
 74
     1
 95
       17
 96
       13
 40
0.0
 40
0.0
 40
0.0
 40
0.0
 40
1.0
 40
1.0
 40
1.0
 40
2.0
 40
2.0
 40
2.0
 40
3.0
 40
3.0
 40
3.0
 40
4.0
 40
4.0
 40
4.0
 40
4.0
 10
127.9508032584854
 20
-23.31342663330454
 10
128.1138424023248
 20
-22.57817866121187
 10
128.707173972272
 20
-21.98491168680507
 10
129.4424219443647
 20
-21.82195867035275
 10
130.9014844779083
 20
-21.49861492721527
 10
132.1726601164252
 20
-22.76987669311924
 10
131.8492087140538
 20
-24.22889616296933
 10
131.6862341657547
 20
-24.964144135062
 10
131.0929241276543
 20
-25.55745417316237
 10
130.3576761555616
 20
-25.72042872146147
 10
128.8985705583244
 20
-26.04390165567964
 10
127.6272872605737
 20
-24.77253223054176
 10
127.9508032584854
 20
-23.31342663330454
 97
        0
 97
        0
 92
        1
 93
        1
 72
     4
 94
        3
 73
     0
 74
     1
 95
       17
 96
       13
 40
0.0
 40
0.0
 40
0.0
 40
0.0
 40
1.0
 40
1.0
 40
1.0
 40
2.0
 40
2.0
 40
2.0
 40
3.0
 40
3.0
 40
3.0
 40
4.0
 40
4.0
 40
4.0
 40
4.0
 10
131.8492302459005
 20
-52.2288881874906
 10
131.6862341657547
 20
-52.96413615958327
 10
131.0929241276543
 20
-53.55744619768364
 10
130.3576761555616
 20
-53.72042074598274
 10
128.898613622018
 20
-54.04387214835413
 10
127.6273733879608
 20
-52.77263191429694
 10
127.9507817266386
 20
-51.3135478489065
 10
128.1137562749377
 20
-50.57827834496706
 10
128.7070663130381
 20
-49.98496830686668
 10
129.4423358169775
 20
-49.82199375856759
 10
130.901419882368
 20
-49.49858541988976
 10
132.1726601164252
 20
-50.76982565394695
 10
131.8492302459005
 20
-52.2288881874906
 97
        0
 97
        0
 92
        1
 93
        1
 72
     4
 94
        3
 73
     0
 74
     1
 95
       17
 96
       13
 40
0.0
 40
0.0
 40
0.0
 40
0.0
 40
1.0
 40
1.0
 40
1.0
 40
2.0
 40
2.0
 40
2.0
 40
3.0
 40
3.0
 40
3.0
 40
4.0
 40
4.0
 40
4.0
 40
4.0
 10
169.0491775090073
 20
-52.22899584672452
 10
168.8861598970146
 20
-52.96424381881718
 10
168.2928498589142
 20
-53.55751079322398
 10
167.5576018868215
 20
-53.72044227782952
 10
166.0985608851247
 20
-54.04380755281378
 10
164.8274067784546
 20
-52.77263191429694
 10
165.1507505215921
 20
-51.31361244444685
 10
165.3137035380444
 20
-50.57836447235419
 10
165.9069705124512
 20
-49.98505443425382
 10
166.6422184845439
 20
-49.82201529041437
 10
168.1013671454747
 20
-49.49847776065585
 10
169.3727365706125
 20
-50.76984718579373
 10
169.0491775090073
 20
-52.22899584672452
 97
        0
 97
        0
 92
        1
 93
        1
 72
     4
 94
        3
 73
     0
 74
     1
 95
       17
 96
       13
 40
0.0
 40
0.0
 40
0.0
 40
0.0
 40
1.0
 40
1.0
 40
1.0
 40
2.0
 40
2.0
 40
2.0
 40
3.0
 40
3.0
 40
3.0
 40
4.0
 40
4.0
 40
4.0
 40
4.0
 10
169.049199040854
 20
-24.22900382220325
 10
168.8861598970146
 20
-24.96425179429591
 10
168.2928283270674
 20
-25.55751876870271
 10
167.5575803549748
 20
-25.72047178515503
 10
166.0985178214311
 20
-26.04381552829251
 10
164.8273421829143
 20
-24.77253223054176
 10
165.1507935852857
 20
-23.31351276069167
 10
165.3137681335848
 20
-22.578264788599
 10
165.9070781716851
 20
-21.98497628234541
 10
166.6423261437778
 20
-21.82198020219953
 10
168.101431741015
 20
-21.49852879982814
 10
169.3727150387658
 20
-22.76989822496603
 10
169.049199040854
 20
-24.22900382220325
 97
        0
 97
        0
 92
        1
 93
        1
 72
     4
 94
        3
 73
     0
 74
     1
 95
       17
 96
       13
 40
0.0
 40
0.0
 40
0.0
 40
0.0
 40
1.0
 40
1.0
 40
1.0
 40
2.0
 40
2.0
 40
2.0
 40
3.0
 40
3.0
 40
3.0
 40
4.0
 40
4.0
 40
4.0
 40
4.0
 10
206.2492324313478
 20
-24.22887463112255
 10
206.086236351202
 20
-24.964144135062
 10
205.4929263131016
 20
-25.55745417316237
 10
204.7576783410089
 20
-25.72042872146147
 10
203.2986158074653
 20
-26.04388012383286
 10
202.0273325097145
 20
-24.7725968260821
 10
202.3507623802391
 20
-23.31353429253845
 10
202.513758460385
 20
-22.57828632044579
 10
203.1070684984854
 20
-21.98497628234541
 10
203.8423164705781
 20
-21.82198020219953
 10
205.3013790041217
 20
-21.49855033167492
 10
206.5726623018725
 20
-22.76983362942568
 10
206.2492324313478
 20
-24.22887463112255
 97
        0
 97
        0
 92
        1
 93
        1
 72
     4
 94
        3
 73
     0
 74
     1
 95
       17
 96
       13
 40
0.0
 40
0.0
 40
0.0
 40
0.0
 40
1.0
 40
1.0
 40
1.0
 40
2.0
 40
2.0
 40
2.0
 40
3.0
 40
3.0
 40
3.0
 40
4.0
 40
4.0
 40
4.0
 40
4.0
 10
243.4492227581481
 20
-80.22888021201187
 10
243.286248209849
 20
-80.96414971595132
 10
242.6929381717487
 20
-81.55745975405169
 10
241.9576686678092
 20
-81.7204343023508
 10
240.4985846024188
 20
-82.04384264102862
 10
239.2273443683616
 20
-80.77258087512465
 10
239.5507742388862
 20
-79.31353987342777
 10
239.7137703190321
 20
-78.57827036948832
 10
240.3070803571324
 20
-77.98498186323474
 10
241.0423283292251
 20
-77.82198578308886
 10
242.5013908627688
 20
-77.49855591256424
 10
243.772631096826
 20
-78.76979614662143
 10
243.4492227581481
 20
-80.22888021201187
 97
        0
 97
        0
 92
        1
 93
        1
 72
     4
 94
        3
 73
     0
 74
     1
 95
       17
 96
       13
 40
0.0
 40
0.0
 40
0.0
 40
0.0
 40
1.0
 40
1.0
 40
1.0
 40
2.0
 40
2.0
 40
2.0
 40
3.0
 40
3.0
 40
3.0
 40
4.0
 40
4.0
 40
4.0
 40
4.0
 10
243.4491796944546
 20
-52.22899584672452
 10
243.2861620824619
 20
-52.96424381881718
 10
242.6928520443615
 20
-53.55751079322398
 10
241.9576040722689
 20
-53.72044227782952
 10
240.498563070572
 20
-54.04380755281378
 10
239.2274089639019
 20
-52.77263191429694
 10
239.5507527070394
 20
-51.31361244444685
 10
239.7137057234917
 20
-50.57836447235419
 10
240.3069726978985
 20
-49.98505443425382
 10
241.0422206699912
 20
-49.82201529041437
 10
242.501369330922
 20
-49.49847776065585
 10
243.7727387560599
 20
-50.76984718579373
 10
243.4491796944546
 20
-52.22899584672452
 97
        0
 97
        0
 92
        1
 93
        1
 72
     4
 94
        3
 73
     0
 74
     1
 95
       17
 96
       13
 40
0.0
 40
0.0
 40
0.0
 40
0.0
 40
1.0
 40
1.0
 40
1.0
 40
2.0
 40
2.0
 40
2.0
 40
3.0
 40
3.0
 40
3.0
 40
4.0
 40
4.0
 40
4.0
 40
4.0
 10
243.4492012263013
 20
-24.22900382220325
 10
243.2861620824619
 20
-24.96425179429591
 10
242.6928305125147
 20
-25.55751876870271
 10
241.9575825404221
 20
-25.72047178515503
 10
240.4985200068784
 20
-26.04381552829251
 10
239.2273443683616
 20
-24.77253223054176
 10
239.550795770733
 20
-23.31351276069167
 10
239.7137703190321
 20
-22.578264788599
 10
240.3070803571324
 20
-21.98497628234541
 10
241.0423283292251
 20
-21.82198020219953
 10
242.5014339264623
 20
-21.49852879982814
 10
243.7727172242131
 20
-22.76989822496603
 10
243.4492012263013
 20
-24.22900382220325
 97
        0
 97
        0
 75
     2
 76
     1
 98
        0
  0
ENDSEC
  0
SECTION
  2
OBJECTS
  0
DICTIONARY
  5
C
330
0
100
AcDbDictionary
281
     1
  3
ACAD_GROUP
350
D
  3
ACAD_LAYOUT
350
1A
  3
ACAD_MATERIAL
350
3B
  3
ACAD_MLEADERSTYLE
350
57
  3
ACAD_MLINESTYLE
350
17
  3
ACAD_PLOTSETTINGS
350
19
  3
ACAD_PLOTSTYLENAME
350
E
  3
ACAD_TABLESTYLE
350
56
  3
ACAD_VISUALSTYLE
350
2A
  0
SUN
  5
3F
330
29
100
AcDbSun
 90
        1
290
     0
 63
     7
421
 16777215
 40
1.0
291
     1
 91
  2455826
 92
 54000000
292
     0
 70
     2
 71
   256
280
     1
  0
DICTIONARY
  5
D
102
{ACAD_REACTORS
330
C
102
}
330
C
100
AcDbDictionary
281
     1
  0
DICTIONARY
  5
1A
102
{ACAD_REACTORS
330
C
102
}
330
C
100
AcDbDictionary
281
     1
  3
Layout1
350
1E
  3
Layout2
350
26
  3
Model
350
22
  0
DICTIONARY
  5
3B
102
{ACAD_REACTORS
330
C
102
}
330
C
100
AcDbDictionary
281
     1
  3
ByBlock
350
3D
  3
ByLayer
350
3C
  3
Global
350
3E
  0
DICTIONARY
  5
57
102
{ACAD_REACTORS
330
C
102
}
330
C
100
AcDbDictionary
281
     1
  0
DICTIONARY
  5
17
102
{ACAD_REACTORS
330
C
102
}
330
C
100
AcDbDictionary
281
     1
  3
Standard
350
18
  0
DICTIONARY
  5
19
102
{ACAD_REACTORS
330
C
102
}
330
C
100
AcDbDictionary
281
     1
  0
ACDBDICTIONARYWDFLT
  5
E
102
{ACAD_REACTORS
330
C
102
}
330
C
100
AcDbDictionary
281
     1
  3
Normal
350
F
100
AcDbDictionaryWithDefault
340
F
  0
DICTIONARY
  5
56
102
{ACAD_REACTORS
330
C
102
}
330
C
100
AcDbDictionary
281
     1
  0
DICTIONARY
  5
2A
102
{ACAD_REACTORS
330
C
102
}
330
C
100
AcDbDictionary
281
     1
  3
2dWireframe
350
2F
  3
3D Hidden
350
31
  3
3dWireframe
350
30
  3
Basic
350
32
  3
Brighten
350
36
  3
ColorChange
350
3A
  3
Conceptual
350
34
  3
Dim
350
35
  3
Facepattern
350
39
  3
Flat
350
2B
  3
FlatWithEdges
350
2C
  3
Gouraud
350
2D
  3
GouraudWithEdges
350
2E
  3
Linepattern
350
38
  3
Realistic
350
33
  3
Thicken
350
37
  0
LAYOUT
  5
1E
102
{ACAD_REACTORS
330
1A
102
}
330
1A
100
AcDbPlotSettings
  1

  2
none_device
  4

  6

 40
0.0
 41
0.0
 42
0.0
 43
0.0
 44
0.0
 45
0.0
 46
0.0
 47
0.0
 48
0.0
 49
0.0
140
0.0
141
0.0
142
1.0
143
1.0
 70
   688
 72
     0
 73
     0
 74
     5
  7

 75
    16
 76
     0
 77
     2
 78
   300
147
1.0
148
0.0
149
0.0
100
AcDbLayout
  1
Layout1
 70
     1
 71
     1
 10
0.0
 20
0.0
 11
12.0
 21
9.0
 12
0.0
 22
0.0
 32
0.0
 14
1.000000000000000E+20
 24
1.000000000000000E+20
 34
1.000000000000000E+20
 15
-1.000000000000000E+20
 25
-1.000000000000000E+20
 35
-1.000000000000000E+20
146
0.0
 13
0.0
 23
0.0
 33
0.0
 16
1.0
 26
0.0
 36
0.0
 17
0.0
 27
1.0
 37
0.0
 76
     0
330
1B
  0
LAYOUT
  5
26
102
{ACAD_REACTORS
330
1A
102
}
330
1A
100
AcDbPlotSettings
  1

  2
none_device
  4

  6

 40
0.0
 41
0.0
 42
0.0
 43
0.0
 44
0.0
 45
0.0
 46
0.0
 47
0.0
 48
0.0
 49
0.0
140
0.0
141
0.0
142
1.0
143
1.0
 70
   688
 72
     0
 73
     0
 74
     5
  7

 75
    16
 76
     0
 77
     2
 78
   300
147
1.0
148
0.0
149
0.0
100
AcDbLayout
  1
Layout2
 70
     1
 71
     2
 10
0.0
 20
0.0
 11
0.0
 21
0.0
 12
0.0
 22
0.0
 32
0.0
 14
0.0
 24
0.0
 34
0.0
 15
0.0
 25
0.0
 35
0.0
146
0.0
 13
0.0
 23
0.0
 33
0.0
 16
1.0
 26
0.0
 36
0.0
 17
0.0
 27
1.0
 37
0.0
 76
     0
330
23
  0
LAYOUT
  5
22
102
{ACAD_REACTORS
330
1A
102
}
330
1A
100
AcDbPlotSettings
  1

  2
none_device
  4

  6

 40
0.0
 41
0.0
 42
0.0
 43
0.0
 44
0.0
 45
0.0
 46
0.0
 47
0.0
 48
0.0
 49
0.0
140
0.0
141
0.0
142
1.0
143
1.0
 70
  1712
 72
     0
 73
     0
 74
     0
  7

 75
     0
 76
     0
 77
     2
 78
   300
147
1.0
148
0.0
149
0.0
100
AcDbLayout
  1
Model
 70
     1
 71
     0
 10
0.0
 20
0.0
 11
12.0
 21
9.0
 12
0.0
 22
0.0
 32
0.0
 14
1.000000000000000E+20
 24
1.000000000000000E+20
 34
1.000000000000000E+20
 15
-1.000000000000000E+20
 25
-1.000000000000000E+20
 35
-1.000000000000000E+20
146
0.0
 13
0.0
 23
0.0
 33
0.0
 16
1.0
 26
0.0
 36
0.0
 17
0.0
 27
1.0
 37
0.0
 76
     0
330
1F
331
29
  0
MATERIAL
  5
3D
102
{ACAD_REACTORS
330
3B
102
}
330
3B
100
AcDbMaterial
  1
ByBlock
 72
     1
 94
      127
  0
MATERIAL
  5
3C
102
{ACAD_REACTORS
330
3B
102
}
330
3B
100
AcDbMaterial
  1
ByLayer
 72
     1
 94
      127
  0
MATERIAL
  5
3E
102
{ACAD_REACTORS
330
3B
102
}
330
3B
100
AcDbMaterial
  1
Global
 72
     1
 94
      127
  0
MLINESTYLE
  5
18
102
{ACAD_REACTORS
330
17
102
}
330
17
100
AcDbMlineStyle
  2
Standard
 70
     0
  3

 62
   256
 51
90.0
 52
90.0
 71
     2
 49
0.5
 62
   256
  6
BYLAYER
 49
-0.5
 62
   256
  6
BYLAYER
  0
ACDBPLACEHOLDER
  5
F
102
{ACAD_REACTORS
330
E
102
}
330
E
  0
VISUALSTYLE
  5
2F
102
{ACAD_REACTORS
330
2A
102
}
330
2A
100
AcDbVisualStyle
  2
2dWireframe
 70
     4
177
     2
291
     0
 71
     0
176
     1
 72
     2
176
     1
 73
     0
176
     1
 90
        0
176
     1
 40
-0.6
176
     1
 41
-30.0
176
     1
 62
     5
 63
     7
421
 16777215
176
     1
 74
     1
176
     1
 91
        4
176
     1
 64
     7
176
     1
 65
   257
176
     1
 75
     1
176
     1
175
     1
176
     1
 42
1.0
176
     1
 92
        0
176
     1
 66
   257
176
     1
 43
1.0
176
     1
 76
     1
176
     1
 77
     6
176
     1
 78
     2
176
     1
 67
     7
176
     1
 79
     5
176
     1
170
     0
176
     1
171
     0
176
     1
290
     0
176
     1
 93
        1
176
     1
 44
0.0
176
     1
173
     0
176
     1
  0
VISUALSTYLE
  5
31
102
{ACAD_REACTORS
330
2A
102
}
330
2A
100
AcDbVisualStyle
  2
3D Hidden
 70
     6
177
     2
291
     0
 71
     1
176
     1
 72
     2
176
     1
 73
     2
176
     1
 90
        0
176
     1
 40
-0.6
176
     1
 41
-30.0
176
     1
 62
     5
 63
     7
421
 16777215
176
     1
 74
     2
176
     1
 91
        2
176
     1
 64
     7
176
     1
 65
   257
176
     1
 75
     2
176
     1
175
     1
176
     1
 42
40.0
176
     1
 92
        0
176
     1
 66
   257
176
     1
 43
1.0
176
     1
 76
     1
176
     1
 77
     6
176
     1
 78
     2
176
     1
 67
     7
176
     1
 79
     3
176
     1
170
     0
176
     1
171
     0
176
     1
290
     0
176
     1
 93
        1
176
     1
 44
0.0
176
     1
173
     0
176
     1
  0
VISUALSTYLE
  5
30
102
{ACAD_REACTORS
330
2A
102
}
330
2A
100
AcDbVisualStyle
  2
3dWireframe
 70
     5
177
     2
291
     0
 71
     0
176
     1
 72
     2
176
     1
 73
     0
176
     1
 90
        0
176
     1
 40
-0.6
176
     1
 41
-30.0
176
     1
 62
     5
 63
     7
421
 16777215
176
     1
 74
     1
176
     1
 91
        4
176
     1
 64
     7
176
     1
 65
   257
176
     1
 75
     1
176
     1
175
     1
176
     1
 42
1.0
176
     1
 92
        0
176
     1
 66
   257
176
     1
 43
1.0
176
     1
 76
     1
176
     1
 77
     6
176
     1
 78
     2
176
     1
 67
     7
176
     1
 79
     5
176
     1
170
     0
176
     1
171
     0
176
     1
290
     0
176
     1
 93
        1
176
     1
 44
0.0
176
     1
173
     0
176
     1
  0
VISUALSTYLE
  5
32
102
{ACAD_REACTORS
330
2A
102
}
330
2A
100
AcDbVisualStyle
  2
Basic
 70
     7
177
     2
291
     1
 71
     1
176
     1
 72
     0
176
     1
 73
     1
176
     1
 90
        0
176
     1
 40
-0.6
176
     1
 41
-30.0
176
     1
 62
     5
 63
     7
421
 16777215
176
     1
 74
     0
176
     1
 91
        4
176
     1
 64
     7
176
     1
 65
   257
176
     1
 75
     1
176
     1
175
     1
176
     1
 42
1.0
176
     1
 92
        8
176
     1
 66
     7
176
     1
 43
1.0
176
     1
 76
     1
176
     1
 77
     6
176
     1
 78
     2
176
     1
 67
     7
176
     1
 79
     5
176
     1
170
     0
176
     1
171
     0
176
     1
290
     0
176
     1
 93
        1
176
     1
 44
0.0
176
     1
173
     0
176
     1
  0
VISUALSTYLE
  5
36
102
{ACAD_REACTORS
330
2A
102
}
330
2A
100
AcDbVisualStyle
  2
Brighten
 70
    12
177
     2
291
     1
 71
     2
176
     1
 72
     2
176
     1
 73
     0
176
     1
 90
        0
176
     1
 40
-0.6
176
     1
 41
-30.0
176
     1
 62
     5
 63
     7
421
 16777215
176
     1
 74
     1
176
     1
 91
        4
176
     1
 64
     7
176
     1
 65
   257
176
     1
 75
     1
176
     1
175
     1
176
     1
 42
1.0
176
     1
 92
        8
176
     1
 66
     7
176
     1
 43
1.0
176
     1
 76
     1
176
     1
 77
     6
176
     1
 78
     2
176
     1
 67
     7
176
     1
 79
     5
176
     1
170
     0
176
     1
171
     0
176
     1
290
     0
176
     1
 93
        1
176
     1
 44
50.0
176
     1
173
     0
176
     1
  0
VISUALSTYLE
  5
3A
102
{ACAD_REACTORS
330
2A
102
}
330
2A
100
AcDbVisualStyle
  2
ColorChange
 70
    16
177
     2
291
     1
 71
     2
176
     1
 72
     2
176
     1
 73
     3
176
     1
 90
        0
176
     1
 40
-0.6
176
     1
 41
-30.0
176
     1
 62
     5
 63
     8
421
  8421504
176
     1
 74
     1
176
     1
 91
        4
176
     1
 64
     7
176
     1
 65
   257
176
     1
 75
     1
176
     1
175
     1
176
     1
 42
1.0
176
     1
 92
        8
176
     1
 66
     8
424
  8421504
176
     1
 43
1.0
176
     1
 76
     1
176
     1
 77
     6
176
     1
 78
     2
176
     1
 67
     7
176
     1
 79
     5
176
     1
170
     0
176
     1
171
     0
176
     1
290
     0
176
     1
 93
        1
176
     1
 44
0.0
176
     1
173
     0
176
     1
  0
VISUALSTYLE
  5
34
102
{ACAD_REACTORS
330
2A
102
}
330
2A
100
AcDbVisualStyle
  2
Conceptual
 70
     9
177
     2
291
     0
 71
     3
176
     1
 72
     2
176
     1
 73
     0
176
     1
 90
        0
176
     1
 40
-0.6
176
     1
 41
-30.0
176
     1
 62
     5
 63
     7
421
 16777215
176
     1
 74
     2
176
     1
 91
        2
176
     1
 64
     7
176
     1
 65
   257
176
     1
 75
     1
176
     1
175
     1
176
     1
 42
40.0
176
     1
 92
        8
176
     1
 66
     7
176
     1
 43
1.0
176
     1
 76
     1
176
     1
 77
     6
176
     1
 78
     2
176
     1
 67
     7
176
     1
 79
     3
176
     1
170
     0
176
     1
171
     0
176
     1
290
     0
176
     1
 93
        1
176
     1
 44
0.0
176
     1
173
     0
176
     1
  0
VISUALSTYLE
  5
35
102
{ACAD_REACTORS
330
2A
102
}
330
2A
100
AcDbVisualStyle
  2
Dim
 70
    11
177
     2
291
     1
 71
     2
176
     1
 72
     2
176
     1
 73
     0
176
     1
 90
        0
176
     1
 40
-0.6
176
     1
 41
-30.0
176
     1
 62
     5
 63
     7
421
 16777215
176
     1
 74
     1
176
     1
 91
        4
176
     1
 64
     7
176
     1
 65
   257
176
     1
 75
     1
176
     1
175
     1
176
     1
 42
1.0
176
     1
 92
        8
176
     1
 66
     7
176
     1
 43
1.0
176
     1
 76
     1
176
     1
 77
     6
176
     1
 78
     2
176
     1
 67
     7
176
     1
 79
     5
176
     1
170
     0
176
     1
171
     0
176
     1
290
     0
176
     1
 93
        1
176
     1
 44
-50.0
176
     1
173
     0
176
     1
  0
VISUALSTYLE
  5
39
102
{ACAD_REACTORS
330
2A
102
}
330
2A
100
AcDbVisualStyle
  2
Facepattern
 70
    15
177
     2
291
     1
 71
     2
176
     1
 72
     2
176
     1
 73
     0
176
     1
 90
        0
176
     1
 40
-0.6
176
     1
 41
-30.0
176
     1
 62
     5
 63
     7
421
 16777215
176
     1
 74
     1
176
     1
 91
        4
176
     1
 64
     7
176
     1
 65
   257
176
     1
 75
     1
176
     1
175
     1
176
     1
 42
1.0
176
     1
 92
        8
176
     1
 66
     7
176
     1
 43
1.0
176
     1
 76
     1
176
     1
 77
     6
176
     1
 78
     2
176
     1
 67
     7
176
     1
 79
     5
176
     1
170
     0
176
     1
171
     0
176
     1
290
     0
176
     1
 93
        1
176
     1
 44
0.0
176
     1
173
     0
176
     1
  0
VISUALSTYLE
  5
2B
102
{ACAD_REACTORS
330
2A
102
}
330
2A
100
AcDbVisualStyle
  2
Flat
 70
     0
177
     2
291
     1
 71
     2
176
     1
 72
     1
176
     1
 73
     1
176
     1
 90
        2
176
     1
 40
-0.6
176
     1
 41
30.0
176
     1
 62
     5
 63
     7
421
 16777215
176
     1
 74
     0
176
     1
 91
        4
176
     1
 64
     7
176
     1
 65
   257
176
     1
 75
     1
176
     1
175
     1
176
     1
 42
1.0
176
     1
 92
        8
176
     1
 66
     7
176
     1
 43
1.0
176
     1
 76
     1
176
     1
 77
     6
176
     1
 78
     2
176
     1
 67
     7
176
     1
 79
     5
176
     1
170
     0
176
     1
171
     0
176
     1
290
     0
176
     1
 93
       13
176
     1
 44
0.0
176
     1
173
     0
176
     1
  0
VISUALSTYLE
  5
2C
102
{ACAD_REACTORS
330
2A
102
}
330
2A
100
AcDbVisualStyle
  2
FlatWithEdges
 70
     1
177
     2
291
     1
 71
     2
176
     1
 72
     1
176
     1
 73
     1
176
     1
 90
        2
176
     1
 40
-0.6
176
     1
 41
30.0
176
     1
 62
     5
 63
     7
421
 16777215
176
     1
 74
     1
176
     1
 91
        4
176
     1
 64
     7
176
     1
 65
   257
176
     1
 75
     1
176
     1
175
     1
176
     1
 42
1.0
176
     1
 92
        0
176
     1
 66
   257
176
     1
 43
1.0
176
     1
 76
     1
176
     1
 77
     6
176
     1
 78
     2
176
     1
 67
     7
176
     1
 79
     5
176
     1
170
     0
176
     1
171
     0
176
     1
290
     0
176
     1
 93
       13
176
     1
 44
0.0
176
     1
173
     0
176
     1
  0
VISUALSTYLE
  5
2D
102
{ACAD_REACTORS
330
2A
102
}
330
2A
100
AcDbVisualStyle
  2
Gouraud
 70
     2
177
     2
291
     1
 71
     2
176
     1
 72
     2
176
     1
 73
     1
176
     1
 90
        2
176
     1
 40
-0.6
176
     1
 41
30.0
176
     1
 62
     5
 63
     7
421
 16777215
176
     1
 74
     0
176
     1
 91
        4
176
     1
 64
     7
176
     1
 65
   257
176
     1
 75
     1
176
     1
175
     1
176
     1
 42
1.0
176
     1
 92
        0
176
     1
 66
     7
176
     1
 43
1.0
176
     1
 76
     1
176
     1
 77
     6
176
     1
 78
     2
176
     1
 67
     7
176
     1
 79
     5
176
     1
170
     0
176
     1
171
     0
176
     1
290
     0
176
     1
 93
       13
176
     1
 44
0.0
176
     1
173
     0
176
     1
  0
VISUALSTYLE
  5
2E
102
{ACAD_REACTORS
330
2A
102
}
330
2A
100
AcDbVisualStyle
  2
GouraudWithEdges
 70
     3
177
     2
291
     1
 71
     2
176
     1
 72
     2
176
     1
 73
     1
176
     1
 90
        2
176
     1
 40
-0.6
176
     1
 41
30.0
176
     1
 62
     5
 63
     7
421
 16777215
176
     1
 74
     1
176
     1
 91
        4
176
     1
 64
     7
176
     1
 65
   257
176
     1
 75
     1
176
     1
175
     1
176
     1
 42
1.0
176
     1
 92
        0
176
     1
 66
   257
176
     1
 43
1.0
176
     1
 76
     1
176
     1
 77
     6
176
     1
 78
     2
176
     1
 67
     7
176
     1
 79
     5
176
     1
170
     0
176
     1
171
     0
176
     1
290
     0
176
     1
 93
       13
176
     1
 44
0.0
176
     1
173
     0
176
     1
  0
VISUALSTYLE
  5
38
102
{ACAD_REACTORS
330
2A
102
}
330
2A
100
AcDbVisualStyle
  2
Linepattern
 70
    14
177
     2
291
     1
 71
     2
176
     1
 72
     2
176
     1
 73
     0
176
     1
 90
        0
176
     1
 40
-0.6
176
     1
 41
-30.0
176
     1
 62
     5
 63
     7
421
 16777215
176
     1
 74
     1
176
     1
 91
        4
176
     1
 64
     7
176
     1
 65
   257
176
     1
 75
     7
176
     1
175
     7
176
     1
 42
1.0
176
     1
 92
        8
176
     1
 66
     7
176
     1
 43
1.0
176
     1
 76
     1
176
     1
 77
     6
176
     1
 78
     2
176
     1
 67
     7
176
     1
 79
     5
176
     1
170
     0
176
     1
171
     0
176
     1
290
     0
176
     1
 93
        1
176
     1
 44
0.0
176
     1
173
     0
176
     1
  0
VISUALSTYLE
  5
33
102
{ACAD_REACTORS
330
2A
102
}
330
2A
100
AcDbVisualStyle
  2
Realistic
 70
     8
177
     2
291
     0
 71
     2
176
     1
 72
     2
176
     1
 73
     0
176
     1
 90
        0
176
     1
 40
-0.6
176
     1
 41
-30.0
176
     1
 62
     5
 63
     7
421
 16777215
176
     1
 74
     1
176
     1
 91
        0
176
     1
 64
     7
176
     1
 65
   257
176
     1
 75
     1
176
     1
175
     1
176
     1
 42
1.0
176
     1
 92
        8
176
     1
 66
     8
424
  7895160
176
     1
 43
1.0
176
     1
 76
     1
176
     1
 77
     6
176
     1
 78
     2
176
     1
 67
     7
176
     1
 79
     5
176
     1
170
     0
176
     1
171
     0
176
     1
290
     0
176
     1
 93
       13
176
     1
 44
0.0
176
     1
173
     0
176
     1
  0
VISUALSTYLE
  5
37
102
{ACAD_REACTORS
330
2A
102
}
330
2A
100
AcDbVisualStyle
  2
Thicken
 70
    13
177
     2
291
     1
 71
     2
176
     1
 72
     2
176
     1
 73
     0
176
     1
 90
        0
176
     1
 40
-0.6
176
     1
 41
-30.0
176
     1
 62
     5
 63
     7
421
 16777215
176
     1
 74
     1
176
     1
 91
        4
176
     1
 64
     7
176
     1
 65
   257
176
     1
 75
     1
176
     1
175
     1
176
     1
 42
1.0
176
     1
 92
       12
176
     1
 66
     7
176
     1
 43
1.0
176
     1
 76
     1
176
     1
 77
     6
176
     1
 78
     2
176
     1
 67
     7
176
     1
 79
     5
176
     1
170
     0
176
     1
171
     0
176
     1
290
     0
176
     1
 93
        1
176
     1
 44
0.0
176
     1
173
     0
176
     1
  0
ENDSEC
  0
EOF
