  0
SECTION
  2
HEADER
  9
$ACADVER
  1
AC1024
  9
$ACADMAINTVER
 70
     6
  9
$DWGCODEPAGE
  3
ANSI_1252
  9
$INSBASE
 10
0.0
 20
0.0
 30
0.0
  9
$EXTMIN
 10
1.000000000000000E+20
 20
1.000000000000000E+20
 30
1.000000000000000E+20
  9
$EXTMAX
 10
-1.000000000000000E+20
 20
-1.000000000000000E+20
 30
-1.000000000000000E+20
  9
$LIMMIN
 10
0.0
 20
0.0
  9
$LIMMAX
 10
12.0
 20
9.0
  9
$ORTHOMODE
 70
     0
  9
$REGENMODE
 70
     1
  9
$FILLMODE
 70
     1
  9
$QTEXTMODE
 70
     0
  9
$MIRRTEXT
 70
     1
  9
$LTSCALE
 40
1.0
  9
$ATTMODE
 70
     1
  9
$TEXTSIZE
 40
0.2
  9
$TRACEWID
 40
0.05
  9
$TEXTSTYLE
  7
Standard
  9
$CLAYER
  8
0
  9
$CELTYPE
  6
ByLayer
  9
$CECOLOR
 62
   256
  9
$CELTSCALE
 40
1.0
  9
$DISPSILH
 70
     0
  9
$DIMSCALE
 40
1.0
  9
$DIMASZ
 40
0.18
  9
$DIMEXO
 40
0.0625
  9
$DIMDLI
 40
0.38
  9
$DIMRND
 40
0.0
  9
$DIMDLE
 40
0.0
  9
$DIMEXE
 40
0.18
  9
$DIMTP
 40
0.0
  9
$DIMTM
 40
0.0
  9
$DIMTXT
 40
0.18
  9
$DIMCEN
 40
0.09
  9
$DIMTSZ
 40
0.0
  9
$DIMTOL
 70
     0
  9
$DIMLIM
 70
     0
  9
$DIMTIH
 70
     1
  9
$DIMTOH
 70
     1
  9
$DIMSE1
 70
     0
  9
$DIMSE2
 70
     0
  9
$DIMTAD
 70
     0
  9
$DIMZIN
 70
     0
  9
$DIMBLK
  1

  9
$DIMASO
 70
     1
  9
$DIMSHO
 70
     1
  9
$DIMPOST
  1

  9
$DIMAPOST
  1

  9
$DIMALT
 70
     0
  9
$DIMALTD
 70
     2
  9
$DIMALTF
 40
25.4
  9
$DIMLFAC
 40
1.0
  9
$DIMTOFL
 70
     0
  9
$DIMTVP
 40
0.0
  9
$DIMTIX
 70
     0
  9
$DIMSOXD
 70
     0
  9
$DIMSAH
 70
     0
  9
$DIMBLK1
  1

  9
$DIMBLK2
  1

  9
$DIMSTYLE
  2
Standard
  9
$DIMCLRD
 70
     0
  9
$DIMCLRE
 70
     0
  9
$DIMCLRT
 70
     0
  9
$DIMTFAC
 40
1.0
  9
$DIMGAP
 40
0.09
  9
$DIMJUST
 70
     0
  9
$DIMSD1
 70
     0
  9
$DIMSD2
 70
     0
  9
$DIMTOLJ
 70
     1
  9
$DIMTZIN
 70
     0
  9
$DIMALTZ
 70
     0
  9
$DIMALTTZ
 70
     0
  9
$DIMUPT
 70
     0
  9
$DIMDEC
 70
     4
  9
$DIMTDEC
 70
     4
  9
$DIMALTU
 70
     2
  9
$DIMALTTD
 70
     2
  9
$DIMTXSTY
  7
Standard
  9
$DIMAUNIT
 70
     0
  9
$DIMADEC
 70
     0
  9
$DIMALTRND
 40
0.0
  9
$DIMAZIN
 70
     0
  9
$DIMDSEP
 70
    46
  9
$DIMATFIT
 70
     3
  9
$DIMFRAC
 70
     0
  9
$DIMLDRBLK
  1

  9
$DIMLUNIT
 70
     2
  9
$DIMLWD
 70
    -2
  9
$DIMLWE
 70
    -2
  9
$DIMTMOVE
 70
     0
  9
$DIMFXL
 40
1.0
  9
$DIMFXLON
 70
     0
  9
$DIMJOGANG
 40
0.7853981633974483
  9
$DIMTFILL
 70
     0
  9
$DIMTFILLCLR
 70
     0
  9
$DIMARCSYM
 70
     0
  9
$DIMLTYPE
  6

  9
$DIMLTEX1
  6

  9
$DIMLTEX2
  6

  9
$DIMTXTDIRECTION
 70
     0
  9
$LUNITS
 70
     2
  9
$LUPREC
 70
     4
  9
$SKETCHINC
 40
0.1
  9
$FILLETRAD
 40
0.5
  9
$AUNITS
 70
     0
  9
$AUPREC
 70
     0
  9
$MENU
  1
.
  9
$ELEVATION
 40
0.0
  9
$PELEVATION
 40
0.0
  9
$THICKNESS
 40
0.0
  9
$LIMCHECK
 70
     0
  9
$CHAMFERA
 40
0.5
  9
$CHAMFERB
 40
0.5
  9
$CHAMFERC
 40
1.0
  9
$CHAMFERD
 40
0.0
  9
$SKPOLY
 70
     0
  9
$TDCREATE
 40
2460662.742860995
  9
$TDUCREATE
 40
2460662.701194329
  9
$TDUPDATE
 40
2460662.742861146
  9
$TDUUPDATE
 40
2460662.701194479
  9
$TDINDWG
 40
0.0000000116
  9
$TDUSRTIMER
 40
0.0000000116
  9
$USRTIMER
 70
     1
  9
$ANGBASE
 50
0.0
  9
$ANGDIR
 70
     0
  9
$PDMODE
 70
     0
  9
$PDSIZE
 40
0.0
  9
$PLINEWID
 40
0.0
  9
$SPLFRAME
 70
     0
  9
$SPLINETYPE
 70
     6
  9
$SPLINESEGS
 70
     8
  9
$HANDSEED
  5
57
  9
$SURFTAB1
 70
     6
  9
$SURFTAB2
 70
     6
  9
$SURFTYPE
 70
     6
  9
$SURFU
 70
     6
  9
$SURFV
 70
     6
  9
$UCSBASE
  2

  9
$UCSNAME
  2

  9
$UCSORG
 10
0.0
 20
0.0
 30
0.0
  9
$UCSXDIR
 10
1.0
 20
0.0
 30
0.0
  9
$UCSYDIR
 10
0.0
 20
1.0
 30
0.0
  9
$UCSORTHOREF
  2

  9
$UCSORTHOVIEW
 70
     0
  9
$UCSORGTOP
 10
0.0
 20
0.0
 30
0.0
  9
$UCSORGBOTTOM
 10
0.0
 20
0.0
 30
0.0
  9
$UCSORGLEFT
 10
0.0
 20
0.0
 30
0.0
  9
$UCSORGRIGHT
 10
0.0
 20
0.0
 30
0.0
  9
$UCSORGFRONT
 10
0.0
 20
0.0
 30
0.0
  9
$UCSORGBACK
 10
0.0
 20
0.0
 30
0.0
  9
$PUCSBASE
  2

  9
$PUCSNAME
  2

  9
$PUCSORG
 10
0.0
 20
0.0
 30
0.0
  9
$PUCSXDIR
 10
1.0
 20
0.0
 30
0.0
  9
$PUCSYDIR
 10
0.0
 20
1.0
 30
0.0
  9
$PUCSORTHOREF
  2

  9
$PUCSORTHOVIEW
 70
     0
  9
$PUCSORGTOP
 10
0.0
 20
0.0
 30
0.0
  9
$PUCSORGBOTTOM
 10
0.0
 20
0.0
 30
0.0
  9
$PUCSORGLEFT
 10
0.0
 20
0.0
 30
0.0
  9
$PUCSORGRIGHT
 10
0.0
 20
0.0
 30
0.0
  9
$PUCSORGFRONT
 10
0.0
 20
0.0
 30
0.0
  9
$PUCSORGBACK
 10
0.0
 20
0.0
 30
0.0
  9
$USERI1
 70
     0
  9
$USERI2
 70
     0
  9
$USERI3
 70
     0
  9
$USERI4
 70
     0
  9
$USERI5
 70
     0
  9
$USERR1
 40
0.0
  9
$USERR2
 40
0.0
  9
$USERR3
 40
0.0
  9
$USERR4
 40
0.0
  9
$USERR5
 40
0.0
  9
$WORLDVIEW
 70
     1
  9
$SHADEDGE
 70
     3
  9
$SHADEDIF
 70
    70
  9
$TILEMODE
 70
     1
  9
$MAXACTVP
 70
    64
  9
$PINSBASE
 10
0.0
 20
0.0
 30
0.0
  9
$PLIMCHECK
 70
     0
  9
$PEXTMIN
 10
1.000000000000000E+20
 20
1.000000000000000E+20
 30
1.000000000000000E+20
  9
$PEXTMAX
 10
-1.000000000000000E+20
 20
-1.000000000000000E+20
 30
-1.000000000000000E+20
  9
$PLIMMIN
 10
0.0
 20
0.0
  9
$PLIMMAX
 10
12.0
 20
9.0
  9
$UNITMODE
 70
     0
  9
$VISRETAIN
 70
     1
  9
$PLINEGEN
 70
     0
  9
$PSLTSCALE
 70
     1
  9
$TREEDEPTH
 70
  3020
  9
$CMLSTYLE
  2
Standard
  9
$CMLJUST
 70
     0
  9
$CMLSCALE
 40
1.0
  9
$PROXYGRAPHICS
 70
     1
  9
$MEASUREMENT
 70
     0
  9
$CELWEIGHT
370
    -1
  9
$ENDCAPS
280
     0
  9
$JOINSTYLE
280
     0
  9
$LWDISPLAY
290
     1
  9
$INSUNITS
 70
     4
  9
$HYPERLINKBASE
  1

  9
$STYLESHEET
  1

  9
$XEDIT
290
     1
  9
$CEPSNTYPE
380
     0
  9
$PSTYLEMODE
290
     1
  9
$FINGERPRINTGUID
  2
{3BD93133-1875-42CF-B07C-38C46E7BC583}
  9
$VERSIONGUID
  2
{FAEB1C32-E019-11D5-929B-00C0DF256EC4}
  9
$EXTNAMES
290
     1
  9
$PSVPSCALE
 40
0.0
  9
$OLESTARTUP
290
     0
  9
$SORTENTS
280
   127
  9
$INDEXCTL
280
     0
  9
$HIDETEXT
280
     1
  9
$XCLIPFRAME
280
     2
  9
$HALOGAP
280
     0
  9
$OBSCOLOR
 70
   257
  9
$OBSLTYPE
280
     0
  9
$INTERSECTIONDISPLAY
280
     0
  9
$INTERSECTIONCOLOR
 70
   257
  9
$DIMASSOC
280
     2
  9
$PROJECTNAME
  1

  9
$CAMERADISPLAY
290
     0
  9
$LENSLENGTH
 40
50.0
  9
$CAMERAHEIGHT
 40
0.0
  9
$STEPSPERSEC
 40
2.0
  9
$STEPSIZE
 40
6.0
  9
$3DDWFPREC
 40
2.0
  9
$PSOLWIDTH
 40
0.25
  9
$PSOLHEIGHT
 40
4.0
  9
$LOFTANG1
 40
1.570796326794897
  9
$LOFTANG2
 40
1.570796326794897
  9
$LOFTMAG1
 40
0.0
  9
$LOFTMAG2
 40
0.0
  9
$LOFTPARAM
 70
     7
  9
$LOFTNORMALS
280
     1
  9
$LATITUDE
 40
37.795
  9
$LONGITUDE
 40
-122.394
  9
$NORTHDIRECTION
 40
0.0
  9
$TIMEZONE
 70
 -8000
  9
$LIGHTGLYPHDISPLAY
280
     1
  9
$TILEMODELIGHTSYNCH
280
     1
  9
$CMATERIAL
347
3C
  9
$SOLIDHIST
280
     1
  9
$SHOWHIST
280
     1
  9
$DWFFRAME
280
     2
  9
$DGNFRAME
280
     2
  9
$REALWORLDSCALE
290
     1
  9
$INTERFERECOLOR
 62
   256
  9
$CSHADOW
280
     0
  9
$SHADOWPLANELOCATION
 40
0.0
  0
ENDSEC
  0
SECTION
  2
CLASSES
  0
CLASS
  1
ACDBDICTIONARYWDFLT
  2
AcDbDictionaryWithDefault
  3
ObjectDBX Classes
 90
        0
 91
        4
280
     0
281
     0
  0
CLASS
  1
VISUALSTYLE
  2
AcDbVisualStyle
  3
ObjectDBX Classes
 90
     4095
 91
        4
280
     0
281
     0
  0
CLASS
  1
MATERIAL
  2
AcDbMaterial
  3
ObjectDBX Classes
 90
     1153
 91
        4
280
     0
281
     0
  0
CLASS
  1
SUN
  2
AcDbSun
  3
SCENEOE
 90
     1024
 91
        4
280
     0
281
     0
  0
ENDSEC
  0
SECTION
  2
TABLES
  0
TABLE
  2
VPORT
  5
8
330
0
100
AcDbSymbolTable
 70
     1
  0
VPORT
  5
29
330
8
100
AcDbSymbolTableRecord
100
AcDbViewportTableRecord
  2
*Active
 70
     0
 10
0.0
 20
0.0
 11
1.0
 21
1.0
 12
0.0
 22
0.0
 13
0.0
 23
0.0
 14
0.5
 24
0.5
 15
0.5
 25
0.5
 16
0.0
 26
0.0
 36
1.0
 17
148.5000416295239
 27
-209.9999680030555
 37
0.0
 40
419.9999360061109
 41
0.7071431631235451
 42
50.0
 43
0.0
 44
0.0
 50
0.0
 51
0.0
 71
     0
 72
   100
 73
     1
 74
     3
 75
     0
 76
     0
 77
     0
 78
     0
281
     0
 65
     1
110
0.0
120
0.0
130
0.0
111
1.0
121
0.0
131
0.0
112
0.0
122
1.0
132
0.0
 79
     0
146
0.0
 60
     3
 61
     5
292
     1
282
     1
141
0.0
142
0.0
 63
   250
361
3F
  0
ENDTAB
  0
TABLE
  2
LTYPE
  5
5
330
0
100
AcDbSymbolTable
 70
     1
  0
LTYPE
  5
14
330
5
100
AcDbSymbolTableRecord
100
AcDbLinetypeTableRecord
  2
ByBlock
 70
     0
  3

 72
    65
 73
     0
 40
0.0
  0
LTYPE
  5
15
330
5
100
AcDbSymbolTableRecord
100
AcDbLinetypeTableRecord
  2
ByLayer
 70
     0
  3

 72
    65
 73
     0
 40
0.0
  0
LTYPE
  5
16
330
5
100
AcDbSymbolTableRecord
100
AcDbLinetypeTableRecord
  2
Continuous
 70
     0
  3
Solid line
 72
    65
 73
     0
 40
0.0
  0
ENDTAB
  0
TABLE
  2
LAYER
  5
2
330
0
100
AcDbSymbolTable
 70
     2
  0
LAYER
  5
10
330
2
100
AcDbSymbolTableRecord
100
AcDbLayerTableRecord
  2
0
 70
     0
 62
     7
  6
Continuous
370
    -3
390
F
347
3E
  0
LAYER
  5
40
330
2
100
AcDbSymbolTableRecord
100
AcDbLayerTableRecord
  2
Layer 1
 70
     0
 62
     7
  6
Continuous
370
    -3
390
F
347
3E
  0
ENDTAB
  0
TABLE
  2
STYLE
  5
3
330
0
100
AcDbSymbolTable
 70
     1
  0
STYLE
  5
11
330
3
100
AcDbSymbolTableRecord
100
AcDbTextStyleTableRecord
  2
Standard
 70
     0
 40
0.0
 41
1.0
 50
0.0
 71
     0
 42
0.2
  3
txt
  4

  0
ENDTAB
  0
TABLE
  2
VIEW
  5
6
330
0
100
AcDbSymbolTable
 70
     0
  0
ENDTAB
  0
TABLE
  2
UCS
  5
7
330
0
100
AcDbSymbolTable
 70
     0
  0
ENDTAB
  0
TABLE
  2
APPID
  5
9
330
0
100
AcDbSymbolTable
 70
     1
  0
APPID
  5
12
330
9
100
AcDbSymbolTableRecord
100
AcDbRegAppTableRecord
  2
ACAD
 70
     0
  0
ENDTAB
  0
TABLE
  2
DIMSTYLE
  5
A
330
0
100
AcDbSymbolTable
 70
     1
100
AcDbDimStyleTable
  0
DIMSTYLE
105
27
330
A
100
AcDbSymbolTableRecord
100
AcDbDimStyleTableRecord
  2
Standard
 70
     0
178
     0
340
11
  0
ENDTAB
  0
TABLE
  2
BLOCK_RECORD
  5
1
330
0
100
AcDbSymbolTable
 70
     1
  0
BLOCK_RECORD
  5
1F
330
1
100
AcDbSymbolTableRecord
100
AcDbBlockTableRecord
  2
*Model_Space
340
22
 70
     0
280
     1
281
     0
  0
BLOCK_RECORD
  5
1B
330
1
100
AcDbSymbolTableRecord
100
AcDbBlockTableRecord
  2
*Paper_Space
340
1E
 70
     0
280
     1
281
     0
  0
BLOCK_RECORD
  5
23
330
1
100
AcDbSymbolTableRecord
100
AcDbBlockTableRecord
  2
*Paper_Space0
340
26
 70
     0
280
     1
281
     0
  0
ENDTAB
  0
ENDSEC
  0
SECTION
  2
BLOCKS
  0
BLOCK
  5
20
330
1F
100
AcDbEntity
  8
0
100
AcDbBlockBegin
  2
*Model_Space
 70
     0
 10
0.0
 20
0.0
 30
0.0
  3
*Model_Space
  1

  0
ENDBLK
  5
21
330
1F
100
AcDbEntity
  8
0
100
AcDbBlockEnd
  0
BLOCK
  5
1C
330
1B
100
AcDbEntity
 67
     1
  8
0
100
AcDbBlockBegin
  2
*Paper_Space
 70
     0
 10
0.0
 20
0.0
 30
0.0
  3
*Paper_Space
  1

  0
ENDBLK
  5
1D
330
1B
100
AcDbEntity
 67
     1
  8
0
100
AcDbBlockEnd
  0
BLOCK
  5
24
330
23
100
AcDbEntity
  8
0
100
AcDbBlockBegin
  2
*Paper_Space0
 70
     0
 10
0.0
 20
0.0
 30
0.0
  3
*Paper_Space0
  1

  0
ENDBLK
  5
25
330
23
100
AcDbEntity
  8
0
100
AcDbBlockEnd
  0
ENDSEC
  0
SECTION
  2
ENTITIES
  0
SPLINE
  5
41
330
1F
100
AcDbEntity
  8
Layer 1
 62
   250
420
  2301728
370
    35
100
AcDbSpline
210
0.0
220
0.0
230
1.0
 70
    11
 71
     3
 72
    29
 73
    25
 74
     0
 42
0.0000000001
 43
0.0000000001
 12
1.0
 22
0.0
 32
0.0
 13
1.0
 23
0.0
 33
0.0
 40
0.0
 40
0.0
 40
0.0
 40
0.0
 40
1.0
 40
1.0
 40
1.0
 40
2.0
 40
2.0
 40
2.0
 40
3.0
 40
3.0
 40
3.0
 40
4.0
 40
4.0
 40
4.0
 40
5.0
 40
5.0
 40
5.0
 40
6.0
 40
6.0
 40
6.0
 40
7.0
 40
7.0
 40
7.0
 40
8.0
 40
8.0
 40
8.0
 40
8.0
 10
235.1346437095095
 20
-41.42798376107313
 30
0.0
 10
235.1346437095095
 20
-41.42798376107313
 30
0.0
 10
61.86541801769222
 20
-41.42798376107313
 30
0.0
 10
61.86541801769222
 20
-41.42798376107313
 30
0.0
 10
54.48391336730235
 20
-41.42798376107313
 30
0.0
 10
48.50004089158477
 20
-47.41187776863748
 30
0.0
 10
48.50004089158477
 20
-54.79338241902735
 30
0.0
 10
48.50004089158477
 20
-54.79338241902735
 30
0.0
 10
48.50004089158477
 20
-178.0626023589132
 30
0.0
 10
48.50004089158477
 20
-178.0626023589132
 30
0.0
 10
48.50004089158477
 20
-185.4441070093031
 30
0.0
 10
54.48391336730235
 20
-191.4280010168674
 30
0.0
 10
61.86541801769222
 20
-191.4280010168674
 30
0.0
 10
61.86541801769222
 20
-191.4280010168674
 30
0.0
 10
235.1346437095095
 20
-191.4280010168674
 30
0.0
 10
235.1346437095095
 20
-191.4280010168674
 30
0.0
 10
242.5161483598993
 20
-191.4280010168674
 30
0.0
 10
248.5000423674637
 20
-185.4441070093031
 30
0.0
 10
248.5000423674637
 20
-178.0626023589132
 30
0.0
 10
248.5000423674637
 20
-178.0626023589132
 30
0.0
 10
248.5000423674637
 20
-54.79338241902735
 30
0.0
 10
248.5000423674637
 20
-54.79338241902735
 30
0.0
 10
248.5000423674637
 20
-47.41187776863748
 30
0.0
 10
242.5161483598993
 20
-41.42798376107313
 30
0.0
 10
235.1346437095095
 20
-41.42798376107313
 30
0.0
  0
SPLINE
  5
42
330
1F
100
AcDbEntity
  8
Layer 1
 62
   250
420
  2301728
370
    35
100
AcDbSpline
210
0.0
220
0.0
230
1.0
 70
    11
 71
     3
 72
    17
 73
    13
 74
     0
 42
0.0000000001
 43
0.0000000001
 12
1.0
 22
0.0
 32
0.0
 13
1.0
 23
0.0
 33
0.0
 40
0.0
 40
0.0
 40
0.0
 40
0.0
 40
1.0
 40
1.0
 40
1.0
 40
2.0
 40
2.0
 40
2.0
 40
3.0
 40
3.0
 40
3.0
 40
4.0
 40
4.0
 40
4.0
 40
4.0
 10
60.49978216733918
 20
-183.3563360815481
 30
0.0
 10
59.41505079011471
 20
-183.3563360815481
 30
0.0
 10
58.53573323119825
 20
-182.4769969907848
 30
0.0
 10
58.53573323119825
 20
-181.3922871454072
 30
0.0
 10
58.53573323119825
 20
-180.3075773000295
 30
0.0
 10
59.41505079011471
 20
-179.4282382092662
 30
0.0
 10
60.49978216733918
 20
-179.4282382092662
 30
0.0
 10
61.58449201271688
 20
-179.4282382092662
 30
0.0
 10
62.46383110348012
 20
-180.3075773000295
 30
0.0
 10
62.46383110348012
 20
-181.3922871454072
 30
0.0
 10
62.46383110348012
 20
-182.4769969907848
 30
0.0
 10
61.58449201271688
 20
-183.3563360815481
 30
0.0
 10
60.49978216733918
 20
-183.3563360815481
 30
0.0
  0
SPLINE
  5
43
330
1F
100
AcDbEntity
  8
Layer 1
 62
   250
420
  2301728
370
    35
100
AcDbSpline
210
0.0
220
0.0
230
1.0
 70
    11
 71
     3
 72
    17
 73
    13
 74
     0
 42
0.0000000001
 43
0.0000000001
 12
1.0
 22
0.0
 32
0.0
 13
1.0
 23
0.0
 33
0.0
 40
0.0
 40
0.0
 40
0.0
 40
0.0
 40
1.0
 40
1.0
 40
1.0
 40
2.0
 40
2.0
 40
2.0
 40
3.0
 40
3.0
 40
3.0
 40
4.0
 40
4.0
 40
4.0
 40
4.0
 10
60.49978216733918
 20
-151.3742873767072
 30
0.0
 10
59.41505079011471
 20
-151.3742873767072
 30
0.0
 10
58.53573323119825
 20
-150.494948285944
 30
0.0
 10
58.53573323119825
 20
-149.4102384405663
 30
0.0
 10
58.53573323119825
 20
-148.3255285951886
 30
0.0
 10
59.41505079011471
 20
-147.4461895044253
 30
0.0
 10
60.49978216733918
 20
-147.4461895044253
 30
0.0
 10
61.58449201271688
 20
-147.4461895044253
 30
0.0
 10
62.46383110348012
 20
-148.3255285951886
 30
0.0
 10
62.46383110348012
 20
-149.4102384405663
 30
0.0
 10
62.46383110348012
 20
-150.494948285944
 30
0.0
 10
61.58449201271688
 20
-151.3742873767072
 30
0.0
 10
60.49978216733918
 20
-151.3742873767072
 30
0.0
  0
SPLINE
  5
44
330
1F
100
AcDbEntity
  8
Layer 1
 62
   250
420
  2301728
370
    35
100
AcDbSpline
210
0.0
220
0.0
230
1.0
 70
    11
 71
     3
 72
    17
 73
    13
 74
     0
 42
0.0000000001
 43
0.0000000001
 12
1.0
 22
0.0
 32
0.0
 13
1.0
 23
0.0
 33
0.0
 40
0.0
 40
0.0
 40
0.0
 40
0.0
 40
1.0
 40
1.0
 40
1.0
 40
2.0
 40
2.0
 40
2.0
 40
3.0
 40
3.0
 40
3.0
 40
4.0
 40
4.0
 40
4.0
 40
4.0
 10
60.49978216733918
 20
-119.3922386718664
 30
0.0
 10
59.41505079011471
 20
-119.3922386718664
 30
0.0
 10
58.53573323119825
 20
-118.5128995811031
 30
0.0
 10
58.53573323119825
 20
-117.4281897357254
 30
0.0
 10
58.53573323119825
 20
-116.3434798903477
 30
0.0
 10
59.41505079011471
 20
-115.4641407995845
 30
0.0
 10
60.49978216733918
 20
-115.4641407995845
 30
0.0
 10
61.58449201271688
 20
-115.4641407995845
 30
0.0
 10
62.46383110348012
 20
-116.3434798903477
 30
0.0
 10
62.46383110348012
 20
-117.4281897357254
 30
0.0
 10
62.46383110348012
 20
-118.5128995811031
 30
0.0
 10
61.58449201271688
 20
-119.3922386718664
 30
0.0
 10
60.49978216733918
 20
-119.3922386718664
 30
0.0
  0
SPLINE
  5
45
330
1F
100
AcDbEntity
  8
Layer 1
 62
   250
420
  2301728
370
    35
100
AcDbSpline
210
0.0
220
0.0
230
1.0
 70
    11
 71
     3
 72
    17
 73
    13
 74
     0
 42
0.0000000001
 43
0.0000000001
 12
1.0
 22
0.0
 32
0.0
 13
1.0
 23
0.0
 33
0.0
 40
0.0
 40
0.0
 40
0.0
 40
0.0
 40
1.0
 40
1.0
 40
1.0
 40
2.0
 40
2.0
 40
2.0
 40
3.0
 40
3.0
 40
3.0
 40
4.0
 40
4.0
 40
4.0
 40
4.0
 10
60.49978216733918
 20
-87.41018996702549
 30
0.0
 10
59.41505079011471
 20
-87.41018996702549
 30
0.0
 10
58.53573323119825
 20
-86.53085087626225
 30
0.0
 10
58.53573323119825
 20
-85.44614103088456
 30
0.0
 10
58.53573323119825
 20
-84.36143118550687
 30
0.0
 10
59.41505079011471
 20
-83.48209209474363
 30
0.0
 10
60.49978216733918
 20
-83.48209209474363
 30
0.0
 10
61.58449201271688
 20
-83.48209209474363
 30
0.0
 10
62.46383110348012
 20
-84.36143118550687
 30
0.0
 10
62.46383110348012
 20
-85.44614103088456
 30
0.0
 10
62.46383110348012
 20
-86.53085087626225
 30
0.0
 10
61.58449201271688
 20
-87.41018996702549
 30
0.0
 10
60.49978216733918
 20
-87.41018996702549
 30
0.0
  0
SPLINE
  5
46
330
1F
100
AcDbEntity
  8
Layer 1
 62
   250
420
  2301728
370
    35
100
AcDbSpline
210
0.0
220
0.0
230
1.0
 70
    11
 71
     3
 72
    17
 73
    13
 74
     0
 42
0.0000000001
 43
0.0000000001
 12
1.0
 22
0.0
 32
0.0
 13
1.0
 23
0.0
 33
0.0
 40
0.0
 40
0.0
 40
0.0
 40
0.0
 40
1.0
 40
1.0
 40
1.0
 40
2.0
 40
2.0
 40
2.0
 40
3.0
 40
3.0
 40
3.0
 40
4.0
 40
4.0
 40
4.0
 40
4.0
 10
60.49978216733918
 20
-55.42814126218463
 30
0.0
 10
59.39519842738095
 20
-55.42814126218463
 30
0.0
 10
58.49977504707095
 20
-54.53271788187464
 30
0.0
 10
58.49977504707095
 20
-53.42813414191641
 30
0.0
 10
58.49977504707095
 20
-52.32357193380496
 30
0.0
 10
59.39519842738095
 20
-51.42814855349496
 30
0.0
 10
60.49978216733918
 20
-51.42814855349496
 30
0.0
 10
61.60434437545063
 20
-51.42814855349496
 30
0.0
 10
62.49976775576063
 20
-52.32357193380496
 30
0.0
 10
62.49976775576063
 20
-53.42813414191641
 30
0.0
 10
62.49976775576063
 20
-54.53271788187464
 30
0.0
 10
61.60434437545063
 20
-55.42814126218463
 30
0.0
 10
60.49978216733918
 20
-55.42814126218463
 30
0.0
  0
SPLINE
  5
47
330
1F
100
AcDbEntity
  8
Layer 1
 62
   250
420
  2301728
370
    35
100
AcDbSpline
210
0.0
220
0.0
230
1.0
 70
    11
 71
     3
 72
    17
 73
    13
 74
     0
 42
0.0000000001
 43
0.0000000001
 12
1.0
 22
0.0
 32
0.0
 13
1.0
 23
0.0
 33
0.0
 40
0.0
 40
0.0
 40
0.0
 40
0.0
 40
1.0
 40
1.0
 40
1.0
 40
2.0
 40
2.0
 40
2.0
 40
3.0
 40
3.0
 40
3.0
 40
4.0
 40
4.0
 40
4.0
 40
4.0
 10
104.4839621829273
 20
-183.3560776993867
 30
0.0
 10
103.3992308057029
 20
-183.3560776993867
 30
0.0
 10
102.5199132467864
 20
-182.4767386086234
 30
0.0
 10
102.5199132467864
 20
-181.3920287632457
 30
0.0
 10
102.5199132467864
 20
-180.3073189178681
 30
0.0
 10
103.3992308057029
 20
-179.4279798271048
 30
0.0
 10
104.4839621829273
 20
-179.4279798271048
 30
0.0
 10
105.568672028305
 20
-179.4279798271048
 30
0.0
 10
106.4480111190683
 20
-180.3073189178681
 30
0.0
 10
106.4480111190683
 20
-181.3920287632457
 30
0.0
 10
106.4480111190683
 20
-182.4767386086234
 30
0.0
 10
105.568672028305
 20
-183.3560776993867
 30
0.0
 10
104.4839621829273
 20
-183.3560776993867
 30
0.0
  0
SPLINE
  5
48
330
1F
100
AcDbEntity
  8
Layer 1
 62
   250
420
  2301728
370
    35
100
AcDbSpline
210
0.0
220
0.0
230
1.0
 70
    11
 71
     3
 72
    17
 73
    13
 74
     0
 42
0.0000000001
 43
0.0000000001
 12
1.0
 22
0.0
 32
0.0
 13
1.0
 23
0.0
 33
0.0
 40
0.0
 40
0.0
 40
0.0
 40
0.0
 40
1.0
 40
1.0
 40
1.0
 40
2.0
 40
2.0
 40
2.0
 40
3.0
 40
3.0
 40
3.0
 40
4.0
 40
4.0
 40
4.0
 40
4.0
 10
104.4997665584659
 20
-55.42766756155541
 30
0.0
 10
103.3952043503545
 20
-55.42766756155541
 30
0.0
 10
102.4997809700445
 20
-54.53224418124541
 30
0.0
 10
102.4997809700445
 20
-53.42766044128719
 30
0.0
 10
102.4997809700445
 20
-52.32309823317574
 30
0.0
 10
103.3952043503545
 20
-51.42767485286574
 30
0.0
 10
104.4997665584659
 20
-51.42767485286574
 30
0.0
 10
105.6043502984242
 20
-51.42767485286574
 30
0.0
 10
106.4997736787342
 20
-52.32309823317574
 30
0.0
 10
106.4997736787342
 20
-53.42766044128719
 30
0.0
 10
106.4997736787342
 20
-54.53224418124541
 30
0.0
 10
105.6043502984242
 20
-55.42766756155541
 30
0.0
 10
104.4997665584659
 20
-55.42766756155541
 30
0.0
  0
SPLINE
  5
49
330
1F
100
AcDbEntity
  8
Layer 1
 62
   250
420
  2301728
370
    35
100
AcDbSpline
210
0.0
220
0.0
230
1.0
 70
    11
 71
     3
 72
    17
 73
    13
 74
     0
 42
0.0000000001
 43
0.0000000001
 12
1.0
 22
0.0
 32
0.0
 13
1.0
 23
0.0
 33
0.0
 40
0.0
 40
0.0
 40
0.0
 40
0.0
 40
1.0
 40
1.0
 40
1.0
 40
2.0
 40
2.0
 40
2.0
 40
3.0
 40
3.0
 40
3.0
 40
4.0
 40
4.0
 40
4.0
 40
4.0
 10
148.4968872139706
 20
-183.3560776993867
 30
0.0
 10
147.4121773685929
 20
-183.3560776993867
 30
0.0
 10
146.5328382778296
 20
-182.4767386086234
 30
0.0
 10
146.5328382778296
 20
-181.3920287632457
 30
0.0
 10
146.5328382778296
 20
-180.3073189178681
 30
0.0
 10
147.4121773685929
 20
-179.4279798271048
 30
0.0
 10
148.4968872139706
 20
-179.4279798271048
 30
0.0
 10
149.581618591195
 20
-179.4279798271048
 30
0.0
 10
150.4609361501115
 20
-180.3073189178681
 30
0.0
 10
150.4609361501115
 20
-181.3920287632457
 30
0.0
 10
150.4609361501115
 20
-182.4767386086234
 30
0.0
 10
149.581618591195
 20
-183.3560776993867
 30
0.0
 10
148.4968872139706
 20
-183.3560776993867
 30
0.0
  0
SPLINE
  5
4A
330
1F
100
AcDbEntity
  8
Layer 1
 62
   250
420
  2301728
370
    35
100
AcDbSpline
210
0.0
220
0.0
230
1.0
 70
    11
 71
     3
 72
    17
 73
    13
 74
     0
 42
0.0000000001
 43
0.0000000001
 12
1.0
 22
0.0
 32
0.0
 13
1.0
 23
0.0
 33
0.0
 40
0.0
 40
0.0
 40
0.0
 40
0.0
 40
1.0
 40
1.0
 40
1.0
 40
2.0
 40
2.0
 40
2.0
 40
3.0
 40
3.0
 40
3.0
 40
4.0
 40
4.0
 40
4.0
 40
4.0
 10
148.4997724814394
 20
-55.42766756155541
 30
0.0
 10
147.395210273328
 20
-55.42766756155541
 30
0.0
 10
146.4997653611712
 20
-54.53224418124541
 30
0.0
 10
146.4997653611712
 20
-53.42766044128719
 30
0.0
 10
146.4997653611712
 20
-52.32309823317574
 30
0.0
 10
147.395210273328
 20
-51.42767485286574
 30
0.0
 10
148.4997724814394
 20
-51.42767485286574
 30
0.0
 10
149.6043346895509
 20
-51.42767485286574
 30
0.0
 10
150.4997796017077
 20
-52.32309823317574
 30
0.0
 10
150.4997796017077
 20
-53.42766044128719
 30
0.0
 10
150.4997796017077
 20
-54.53224418124541
 30
0.0
 10
149.6043346895509
 20
-55.42766756155541
 30
0.0
 10
148.4997724814394
 20
-55.42766756155541
 30
0.0
  0
SPLINE
  5
4B
330
1F
100
AcDbEntity
  8
Layer 1
 62
   250
420
  2301728
370
    35
100
AcDbSpline
210
0.0
220
0.0
230
1.0
 70
    11
 71
     3
 72
    17
 73
    13
 74
     0
 42
0.0000000001
 43
0.0000000001
 12
1.0
 22
0.0
 32
0.0
 13
1.0
 23
0.0
 33
0.0
 40
0.0
 40
0.0
 40
0.0
 40
0.0
 40
1.0
 40
1.0
 40
1.0
 40
2.0
 40
2.0
 40
2.0
 40
3.0
 40
3.0
 40
3.0
 40
4.0
 40
4.0
 40
4.0
 40
4.0
 10
192.5098337768605
 20
-183.3560776993867
 30
0.0
 10
191.4251239314829
 20
-183.3560776993867
 30
0.0
 10
190.5457848407196
 20
-182.4767386086234
 30
0.0
 10
190.5457848407196
 20
-181.3920287632457
 30
0.0
 10
190.5457848407196
 20
-180.3073189178681
 30
0.0
 10
191.4251239314829
 20
-179.4279798271048
 30
0.0
 10
192.5098337768605
 20
-179.4279798271048
 30
0.0
 10
193.5945436222382
 20
-179.4279798271048
 30
0.0
 10
194.4738827130015
 20
-180.3073189178681
 30
0.0
 10
194.4738827130015
 20
-181.3920287632457
 30
0.0
 10
194.4738827130015
 20
-182.4767386086234
 30
0.0
 10
193.5945436222382
 20
-183.3560776993867
 30
0.0
 10
192.5098337768605
 20
-183.3560776993867
 30
0.0
  0
SPLINE
  5
4C
330
1F
100
AcDbEntity
  8
Layer 1
 62
   250
420
  2301728
370
    35
100
AcDbSpline
210
0.0
220
0.0
230
1.0
 70
    11
 71
     3
 72
    17
 73
    13
 74
     0
 42
0.0000000001
 43
0.0000000001
 12
1.0
 22
0.0
 32
0.0
 13
1.0
 23
0.0
 33
0.0
 40
0.0
 40
0.0
 40
0.0
 40
0.0
 40
1.0
 40
1.0
 40
1.0
 40
2.0
 40
2.0
 40
2.0
 40
3.0
 40
3.0
 40
3.0
 40
4.0
 40
4.0
 40
4.0
 40
4.0
 10
192.499778404413
 20
-55.42766756155541
 30
0.0
 10
191.3951946644547
 20
-55.42766756155541
 30
0.0
 10
190.4997712841447
 20
-54.53224418124541
 30
0.0
 10
190.4997712841447
 20
-53.42766044128719
 30
0.0
 10
190.4997712841447
 20
-52.32309823317574
 30
0.0
 10
191.3951946644547
 20
-51.42767485286574
 30
0.0
 10
192.499778404413
 20
-51.42767485286574
 30
0.0
 10
193.6043406125244
 20
-51.42767485286574
 30
0.0
 10
194.4997639928344
 20
-52.32309823317574
 30
0.0
 10
194.4997639928344
 20
-53.42766044128719
 30
0.0
 10
194.4997639928344
 20
-54.53224418124541
 30
0.0
 10
193.6043406125244
 20
-55.42766756155541
 30
0.0
 10
192.499778404413
 20
-55.42766756155541
 30
0.0
  0
SPLINE
  5
4D
330
1F
100
AcDbEntity
  8
Layer 1
 62
   250
420
  2301728
370
    35
100
AcDbSpline
210
0.0
220
0.0
230
1.0
 70
    11
 71
     3
 72
    17
 73
    13
 74
     0
 42
0.0000000001
 43
0.0000000001
 12
1.0
 22
0.0
 32
0.0
 13
1.0
 23
0.0
 33
0.0
 40
0.0
 40
0.0
 40
0.0
 40
0.0
 40
1.0
 40
1.0
 40
1.0
 40
2.0
 40
2.0
 40
2.0
 40
3.0
 40
3.0
 40
3.0
 40
4.0
 40
4.0
 40
4.0
 40
4.0
 10
236.535720979667
 20
-183.3560776993867
 30
0.0
 10
235.4510111342893
 20
-183.3560776993867
 30
0.0
 10
234.5716720435261
 20
-182.4767386086234
 30
0.0
 10
234.5716720435261
 20
-181.3920287632457
 30
0.0
 10
234.5716720435261
 20
-180.3073189178681
 30
0.0
 10
235.4510111342893
 20
-179.4279798271048
 30
0.0
 10
236.535720979667
 20
-179.4279798271048
 30
0.0
 10
237.6204308250447
 20
-179.4279798271048
 30
0.0
 10
238.4997699158079
 20
-180.3073189178681
 30
0.0
 10
238.4997699158079
 20
-181.3920287632457
 30
0.0
 10
238.4997699158079
 20
-182.4767386086234
 30
0.0
 10
237.6204308250447
 20
-183.3560776993867
 30
0.0
 10
236.535720979667
 20
-183.3560776993867
 30
0.0
  0
SPLINE
  5
4E
330
1F
100
AcDbEntity
  8
Layer 1
 62
   250
420
  2301728
370
    35
100
AcDbSpline
210
0.0
220
0.0
230
1.0
 70
    11
 71
     3
 72
    17
 73
    13
 74
     0
 42
0.0000000001
 43
0.0000000001
 12
1.0
 22
0.0
 32
0.0
 13
1.0
 23
0.0
 33
0.0
 40
0.0
 40
0.0
 40
0.0
 40
0.0
 40
1.0
 40
1.0
 40
1.0
 40
2.0
 40
2.0
 40
2.0
 40
3.0
 40
3.0
 40
3.0
 40
4.0
 40
4.0
 40
4.0
 40
4.0
 10
236.535720979667
 20
-150.374090029952
 30
0.0
 10
235.4510111342893
 20
-150.374090029952
 30
0.0
 10
234.5716720435261
 20
-149.4947509391888
 30
0.0
 10
234.5716720435261
 20
-148.4100410938111
 30
0.0
 10
234.5716720435261
 20
-147.3253312484334
 30
0.0
 10
235.4510111342893
 20
-146.4459921576702
 30
0.0
 10
236.535720979667
 20
-146.4459921576702
 30
0.0
 10
237.6204308250447
 20
-146.4459921576702
 30
0.0
 10
238.4997699158079
 20
-147.3253312484334
 30
0.0
 10
238.4997699158079
 20
-148.4100410938111
 30
0.0
 10
238.4997699158079
 20
-149.4947509391888
 30
0.0
 10
237.6204308250447
 20
-150.374090029952
 30
0.0
 10
236.535720979667
 20
-150.374090029952
 30
0.0
  0
SPLINE
  5
4F
330
1F
100
AcDbEntity
  8
Layer 1
 62
   250
420
  2301728
370
    35
100
AcDbSpline
210
0.0
220
0.0
230
1.0
 70
    11
 71
     3
 72
    17
 73
    13
 74
     0
 42
0.0000000001
 43
0.0000000001
 12
1.0
 22
0.0
 32
0.0
 13
1.0
 23
0.0
 33
0.0
 40
0.0
 40
0.0
 40
0.0
 40
0.0
 40
1.0
 40
1.0
 40
1.0
 40
2.0
 40
2.0
 40
2.0
 40
3.0
 40
3.0
 40
3.0
 40
4.0
 40
4.0
 40
4.0
 40
4.0
 10
236.535720979667
 20
-118.3920413251112
 30
0.0
 10
235.4510111342893
 20
-118.3920413251112
 30
0.0
 10
234.5716720435261
 20
-117.512702234348
 30
0.0
 10
234.5716720435261
 20
-116.4279923889703
 30
0.0
 10
234.5716720435261
 20
-115.3432825435926
 30
0.0
 10
235.4510111342893
 20
-114.4639434528293
 30
0.0
 10
236.535720979667
 20
-114.4639434528293
 30
0.0
 10
237.6204308250447
 20
-114.4639434528293
 30
0.0
 10
238.4997699158079
 20
-115.3432825435926
 30
0.0
 10
238.4997699158079
 20
-116.4279923889703
 30
0.0
 10
238.4997699158079
 20
-117.512702234348
 30
0.0
 10
237.6204308250447
 20
-118.3920413251112
 30
0.0
 10
236.535720979667
 20
-118.3920413251112
 30
0.0
  0
SPLINE
  5
50
330
1F
100
AcDbEntity
  8
Layer 1
 62
   250
420
  2301728
370
    35
100
AcDbSpline
210
0.0
220
0.0
230
1.0
 70
    11
 71
     3
 72
    17
 73
    13
 74
     0
 42
0.0000000001
 43
0.0000000001
 12
1.0
 22
0.0
 32
0.0
 13
1.0
 23
0.0
 33
0.0
 40
0.0
 40
0.0
 40
0.0
 40
0.0
 40
1.0
 40
1.0
 40
1.0
 40
2.0
 40
2.0
 40
2.0
 40
3.0
 40
3.0
 40
3.0
 40
4.0
 40
4.0
 40
4.0
 40
4.0
 10
236.535720979667
 20
-86.40999262027033
 30
0.0
 10
235.4510111342893
 20
-86.40999262027033
 30
0.0
 10
234.5716720435261
 20
-85.53065352950709
 30
0.0
 10
234.5716720435261
 20
-84.4459436841294
 30
0.0
 10
234.5716720435261
 20
-83.36123383875172
 30
0.0
 10
235.4510111342893
 20
-82.48189474798848
 30
0.0
 10
236.535720979667
 20
-82.48189474798848
 30
0.0
 10
237.6204308250447
 20
-82.48189474798848
 30
0.0
 10
238.4997699158079
 20
-83.36123383875172
 30
0.0
 10
238.4997699158079
 20
-84.4459436841294
 30
0.0
 10
238.4997699158079
 20
-85.53065352950709
 30
0.0
 10
237.6204308250447
 20
-86.40999262027033
 30
0.0
 10
236.535720979667
 20
-86.40999262027033
 30
0.0
  0
SPLINE
  5
51
330
1F
100
AcDbEntity
  8
Layer 1
 62
   250
420
  2301728
370
    35
100
AcDbSpline
210
0.0
220
0.0
230
1.0
 70
    11
 71
     3
 72
    17
 73
    13
 74
     0
 42
0.0000000001
 43
0.0000000001
 12
1.0
 22
0.0
 32
0.0
 13
1.0
 23
0.0
 33
0.0
 40
0.0
 40
0.0
 40
0.0
 40
0.0
 40
1.0
 40
1.0
 40
1.0
 40
2.0
 40
2.0
 40
2.0
 40
3.0
 40
3.0
 40
3.0
 40
4.0
 40
4.0
 40
4.0
 40
4.0
 10
236.4997843273865
 20
-55.42766756155541
 30
0.0
 10
235.3952005874283
 20
-55.42766756155541
 30
0.0
 10
234.4997772071183
 20
-54.53224418124541
 30
0.0
 10
234.4997772071183
 20
-53.42766044128719
 30
0.0
 10
234.4997772071183
 20
-52.32309823317574
 30
0.0
 10
235.3952005874283
 20
-51.42767485286574
 30
0.0
 10
236.4997843273865
 20
-51.42767485286574
 30
0.0
 10
237.6043465354979
 20
-51.42767485286574
 30
0.0
 10
238.4997699158079
 20
-52.32309823317574
 30
0.0
 10
238.4997699158079
 20
-53.42766044128719
 30
0.0
 10
238.4997699158079
 20
-54.53224418124541
 30
0.0
 10
237.6043465354979
 20
-55.42766756155541
 30
0.0
 10
236.4997843273865
 20
-55.42766756155541
 30
0.0
  0
HATCH
  5
52
330
1F
100
AcDbEntity
  8
Layer 1
 62
   254
420
 13750996
100
AcDbHatch
 10
0.0
 20
0.0
 30
0.0
210
0.0
220
0.0
230
1.0
  2
SOLID
 70
     1
 71
     0
 91
       17
 92
        1
 93
        1
 72
     4
 94
        3
 73
     0
 74
     1
 95
       29
 96
       25
 40
0.0
 40
0.0
 40
0.0
 40
0.0
 40
1.0
 40
1.0
 40
1.0
 40
2.0
 40
2.0
 40
2.0
 40
3.0
 40
3.0
 40
3.0
 40
4.0
 40
4.0
 40
4.0
 40
5.0
 40
5.0
 40
5.0
 40
6.0
 40
6.0
 40
6.0
 40
7.0
 40
7.0
 40
7.0
 40
8.0
 40
8.0
 40
8.0
 40
8.0
 10
235.1346437095095
 20
-41.42798376107313
 10
235.1346437095095
 20
-41.42798376107313
 10
61.86541801769222
 20
-41.42798376107313
 10
61.86541801769222
 20
-41.42798376107313
 10
54.48391336730235
 20
-41.42798376107313
 10
48.50004089158477
 20
-47.41187776863748
 10
48.50004089158477
 20
-54.79338241902735
 10
48.50004089158477
 20
-54.79338241902735
 10
48.50004089158477
 20
-178.0626023589132
 10
48.50004089158477
 20
-178.0626023589132
 10
48.50004089158477
 20
-185.4441070093031
 10
54.48391336730235
 20
-191.4280010168674
 10
61.86541801769222
 20
-191.4280010168674
 10
61.86541801769222
 20
-191.4280010168674
 10
235.1346437095095
 20
-191.4280010168674
 10
235.1346437095095
 20
-191.4280010168674
 10
242.5161483598993
 20
-191.4280010168674
 10
248.5000423674637
 20
-185.4441070093031
 10
248.5000423674637
 20
-178.0626023589132
 10
248.5000423674637
 20
-178.0626023589132
 10
248.5000423674637
 20
-54.79338241902735
 10
248.5000423674637
 20
-54.79338241902735
 10
248.5000423674637
 20
-47.41187776863748
 10
242.5161483598993
 20
-41.42798376107313
 10
235.1346437095095
 20
-41.42798376107313
 97
        0
 97
        0
 92
        1
 93
        1
 72
     4
 94
        3
 73
     0
 74
     1
 95
       17
 96
       13
 40
0.0
 40
0.0
 40
0.0
 40
0.0
 40
1.0
 40
1.0
 40
1.0
 40
2.0
 40
2.0
 40
2.0
 40
3.0
 40
3.0
 40
3.0
 40
4.0
 40
4.0
 40
4.0
 40
4.0
 10
60.49978216733918
 20
-183.3563360815481
 10
59.41505079011471
 20
-183.3563360815481
 10
58.53573323119825
 20
-182.4769969907848
 10
58.53573323119825
 20
-181.3922871454072
 10
58.53573323119825
 20
-180.3075773000295
 10
59.41505079011471
 20
-179.4282382092662
 10
60.49978216733918
 20
-179.4282382092662
 10
61.58449201271688
 20
-179.4282382092662
 10
62.46383110348012
 20
-180.3075773000295
 10
62.46383110348012
 20
-181.3922871454072
 10
62.46383110348012
 20
-182.4769969907848
 10
61.58449201271688
 20
-183.3563360815481
 10
60.49978216733918
 20
-183.3563360815481
 97
        0
 97
        0
 92
        1
 93
        1
 72
     4
 94
        3
 73
     0
 74
     1
 95
       17
 96
       13
 40
0.0
 40
0.0
 40
0.0
 40
0.0
 40
1.0
 40
1.0
 40
1.0
 40
2.0
 40
2.0
 40
2.0
 40
3.0
 40
3.0
 40
3.0
 40
4.0
 40
4.0
 40
4.0
 40
4.0
 10
60.49978216733918
 20
-151.3742873767072
 10
59.41505079011471
 20
-151.3742873767072
 10
58.53573323119825
 20
-150.494948285944
 10
58.53573323119825
 20
-149.4102384405663
 10
58.53573323119825
 20
-148.3255285951886
 10
59.41505079011471
 20
-147.4461895044253
 10
60.49978216733918
 20
-147.4461895044253
 10
61.58449201271688
 20
-147.4461895044253
 10
62.46383110348012
 20
-148.3255285951886
 10
62.46383110348012
 20
-149.4102384405663
 10
62.46383110348012
 20
-150.494948285944
 10
61.58449201271688
 20
-151.3742873767072
 10
60.49978216733918
 20
-151.3742873767072
 97
        0
 97
        0
 92
        1
 93
        1
 72
     4
 94
        3
 73
     0
 74
     1
 95
       17
 96
       13
 40
0.0
 40
0.0
 40
0.0
 40
0.0
 40
1.0
 40
1.0
 40
1.0
 40
2.0
 40
2.0
 40
2.0
 40
3.0
 40
3.0
 40
3.0
 40
4.0
 40
4.0
 40
4.0
 40
4.0
 10
60.49978216733918
 20
-119.3922386718664
 10
59.41505079011471
 20
-119.3922386718664
 10
58.53573323119825
 20
-118.5128995811031
 10
58.53573323119825
 20
-117.4281897357254
 10
58.53573323119825
 20
-116.3434798903477
 10
59.41505079011471
 20
-115.4641407995845
 10
60.49978216733918
 20
-115.4641407995845
 10
61.58449201271688
 20
-115.4641407995845
 10
62.46383110348012
 20
-116.3434798903477
 10
62.46383110348012
 20
-117.4281897357254
 10
62.46383110348012
 20
-118.5128995811031
 10
61.58449201271688
 20
-119.3922386718664
 10
60.49978216733918
 20
-119.3922386718664
 97
        0
 97
        0
 92
        1
 93
        1
 72
     4
 94
        3
 73
     0
 74
     1
 95
       17
 96
       13
 40
0.0
 40
0.0
 40
0.0
 40
0.0
 40
1.0
 40
1.0
 40
1.0
 40
2.0
 40
2.0
 40
2.0
 40
3.0
 40
3.0
 40
3.0
 40
4.0
 40
4.0
 40
4.0
 40
4.0
 10
60.49978216733918
 20
-87.41018996702549
 10
59.41505079011471
 20
-87.41018996702549
 10
58.53573323119825
 20
-86.53085087626225
 10
58.53573323119825
 20
-85.44614103088456
 10
58.53573323119825
 20
-84.36143118550687
 10
59.41505079011471
 20
-83.48209209474363
 10
60.49978216733918
 20
-83.48209209474363
 10
61.58449201271688
 20
-83.48209209474363
 10
62.46383110348012
 20
-84.36143118550687
 10
62.46383110348012
 20
-85.44614103088456
 10
62.46383110348012
 20
-86.53085087626225
 10
61.58449201271688
 20
-87.41018996702549
 10
60.49978216733918
 20
-87.41018996702549
 97
        0
 97
        0
 92
        1
 93
        1
 72
     4
 94
        3
 73
     0
 74
     1
 95
       17
 96
       13
 40
0.0
 40
0.0
 40
0.0
 40
0.0
 40
1.0
 40
1.0
 40
1.0
 40
2.0
 40
2.0
 40
2.0
 40
3.0
 40
3.0
 40
3.0
 40
4.0
 40
4.0
 40
4.0
 40
4.0
 10
60.49978216733918
 20
-55.42814126218463
 10
59.39519842738095
 20
-55.42814126218463
 10
58.49977504707095
 20
-54.53271788187464
 10
58.49977504707095
 20
-53.42813414191641
 10
58.49977504707095
 20
-52.32357193380496
 10
59.39519842738095
 20
-51.42814855349496
 10
60.49978216733918
 20
-51.42814855349496
 10
61.60434437545063
 20
-51.42814855349496
 10
62.49976775576063
 20
-52.32357193380496
 10
62.49976775576063
 20
-53.42813414191641
 10
62.49976775576063
 20
-54.53271788187464
 10
61.60434437545063
 20
-55.42814126218463
 10
60.49978216733918
 20
-55.42814126218463
 97
        0
 97
        0
 92
        1
 93
        1
 72
     4
 94
        3
 73
     0
 74
     1
 95
       17
 96
       13
 40
0.0
 40
0.0
 40
0.0
 40
0.0
 40
1.0
 40
1.0
 40
1.0
 40
2.0
 40
2.0
 40
2.0
 40
3.0
 40
3.0
 40
3.0
 40
4.0
 40
4.0
 40
4.0
 40
4.0
 10
104.4839621829273
 20
-183.3560776993867
 10
103.3992308057029
 20
-183.3560776993867
 10
102.5199132467864
 20
-182.4767386086234
 10
102.5199132467864
 20
-181.3920287632457
 10
102.5199132467864
 20
-180.3073189178681
 10
103.3992308057029
 20
-179.4279798271048
 10
104.4839621829273
 20
-179.4279798271048
 10
105.568672028305
 20
-179.4279798271048
 10
106.4480111190683
 20
-180.3073189178681
 10
106.4480111190683
 20
-181.3920287632457
 10
106.4480111190683
 20
-182.4767386086234
 10
105.568672028305
 20
-183.3560776993867
 10
104.4839621829273
 20
-183.3560776993867
 97
        0
 97
        0
 92
        1
 93
        1
 72
     4
 94
        3
 73
     0
 74
     1
 95
       17
 96
       13
 40
0.0
 40
0.0
 40
0.0
 40
0.0
 40
1.0
 40
1.0
 40
1.0
 40
2.0
 40
2.0
 40
2.0
 40
3.0
 40
3.0
 40
3.0
 40
4.0
 40
4.0
 40
4.0
 40
4.0
 10
104.4997665584659
 20
-55.42766756155541
 10
103.3952043503545
 20
-55.42766756155541
 10
102.4997809700445
 20
-54.53224418124541
 10
102.4997809700445
 20
-53.42766044128719
 10
102.4997809700445
 20
-52.32309823317574
 10
103.3952043503545
 20
-51.42767485286574
 10
104.4997665584659
 20
-51.42767485286574
 10
105.6043502984242
 20
-51.42767485286574
 10
106.4997736787342
 20
-52.32309823317574
 10
106.4997736787342
 20
-53.42766044128719
 10
106.4997736787342
 20
-54.53224418124541
 10
105.6043502984242
 20
-55.42766756155541
 10
104.4997665584659
 20
-55.42766756155541
 97
        0
 97
        0
 92
        1
 93
        1
 72
     4
 94
        3
 73
     0
 74
     1
 95
       17
 96
       13
 40
0.0
 40
0.0
 40
0.0
 40
0.0
 40
1.0
 40
1.0
 40
1.0
 40
2.0
 40
2.0
 40
2.0
 40
3.0
 40
3.0
 40
3.0
 40
4.0
 40
4.0
 40
4.0
 40
4.0
 10
148.4968872139706
 20
-183.3560776993867
 10
147.4121773685929
 20
-183.3560776993867
 10
146.5328382778296
 20
-182.4767386086234
 10
146.5328382778296
 20
-181.3920287632457
 10
146.5328382778296
 20
-180.3073189178681
 10
147.4121773685929
 20
-179.4279798271048
 10
148.4968872139706
 20
-179.4279798271048
 10
149.581618591195
 20
-179.4279798271048
 10
150.4609361501115
 20
-180.3073189178681
 10
150.4609361501115
 20
-181.3920287632457
 10
150.4609361501115
 20
-182.4767386086234
 10
149.581618591195
 20
-183.3560776993867
 10
148.4968872139706
 20
-183.3560776993867
 97
        0
 97
        0
 92
        1
 93
        1
 72
     4
 94
        3
 73
     0
 74
     1
 95
       17
 96
       13
 40
0.0
 40
0.0
 40
0.0
 40
0.0
 40
1.0
 40
1.0
 40
1.0
 40
2.0
 40
2.0
 40
2.0
 40
3.0
 40
3.0
 40
3.0
 40
4.0
 40
4.0
 40
4.0
 40
4.0
 10
148.4997724814394
 20
-55.42766756155541
 10
147.395210273328
 20
-55.42766756155541
 10
146.4997653611712
 20
-54.53224418124541
 10
146.4997653611712
 20
-53.42766044128719
 10
146.4997653611712
 20
-52.32309823317574
 10
147.395210273328
 20
-51.42767485286574
 10
148.4997724814394
 20
-51.42767485286574
 10
149.6043346895509
 20
-51.42767485286574
 10
150.4997796017077
 20
-52.32309823317574
 10
150.4997796017077
 20
-53.42766044128719
 10
150.4997796017077
 20
-54.53224418124541
 10
149.6043346895509
 20
-55.42766756155541
 10
148.4997724814394
 20
-55.42766756155541
 97
        0
 97
        0
 92
        1
 93
        1
 72
     4
 94
        3
 73
     0
 74
     1
 95
       17
 96
       13
 40
0.0
 40
0.0
 40
0.0
 40
0.0
 40
1.0
 40
1.0
 40
1.0
 40
2.0
 40
2.0
 40
2.0
 40
3.0
 40
3.0
 40
3.0
 40
4.0
 40
4.0
 40
4.0
 40
4.0
 10
192.5098337768605
 20
-183.3560776993867
 10
191.4251239314829
 20
-183.3560776993867
 10
190.5457848407196
 20
-182.4767386086234
 10
190.5457848407196
 20
-181.3920287632457
 10
190.5457848407196
 20
-180.3073189178681
 10
191.4251239314829
 20
-179.4279798271048
 10
192.5098337768605
 20
-179.4279798271048
 10
193.5945436222382
 20
-179.4279798271048
 10
194.4738827130015
 20
-180.3073189178681
 10
194.4738827130015
 20
-181.3920287632457
 10
194.4738827130015
 20
-182.4767386086234
 10
193.5945436222382
 20
-183.3560776993867
 10
192.5098337768605
 20
-183.3560776993867
 97
        0
 97
        0
 92
        1
 93
        1
 72
     4
 94
        3
 73
     0
 74
     1
 95
       17
 96
       13
 40
0.0
 40
0.0
 40
0.0
 40
0.0
 40
1.0
 40
1.0
 40
1.0
 40
2.0
 40
2.0
 40
2.0
 40
3.0
 40
3.0
 40
3.0
 40
4.0
 40
4.0
 40
4.0
 40
4.0
 10
192.499778404413
 20
-55.42766756155541
 10
191.3951946644547
 20
-55.42766756155541
 10
190.4997712841447
 20
-54.53224418124541
 10
190.4997712841447
 20
-53.42766044128719
 10
190.4997712841447
 20
-52.32309823317574
 10
191.3951946644547
 20
-51.42767485286574
 10
192.499778404413
 20
-51.42767485286574
 10
193.6043406125244
 20
-51.42767485286574
 10
194.4997639928344
 20
-52.32309823317574
 10
194.4997639928344
 20
-53.42766044128719
 10
194.4997639928344
 20
-54.53224418124541
 10
193.6043406125244
 20
-55.42766756155541
 10
192.499778404413
 20
-55.42766756155541
 97
        0
 97
        0
 92
        1
 93
        1
 72
     4
 94
        3
 73
     0
 74
     1
 95
       17
 96
       13
 40
0.0
 40
0.0
 40
0.0
 40
0.0
 40
1.0
 40
1.0
 40
1.0
 40
2.0
 40
2.0
 40
2.0
 40
3.0
 40
3.0
 40
3.0
 40
4.0
 40
4.0
 40
4.0
 40
4.0
 10
236.535720979667
 20
-183.3560776993867
 10
235.4510111342893
 20
-183.3560776993867
 10
234.5716720435261
 20
-182.4767386086234
 10
234.5716720435261
 20
-181.3920287632457
 10
234.5716720435261
 20
-180.3073189178681
 10
235.4510111342893
 20
-179.4279798271048
 10
236.535720979667
 20
-179.4279798271048
 10
237.6204308250447
 20
-179.4279798271048
 10
238.4997699158079
 20
-180.3073189178681
 10
238.4997699158079
 20
-181.3920287632457
 10
238.4997699158079
 20
-182.4767386086234
 10
237.6204308250447
 20
-183.3560776993867
 10
236.535720979667
 20
-183.3560776993867
 97
        0
 97
        0
 92
        1
 93
        1
 72
     4
 94
        3
 73
     0
 74
     1
 95
       17
 96
       13
 40
0.0
 40
0.0
 40
0.0
 40
0.0
 40
1.0
 40
1.0
 40
1.0
 40
2.0
 40
2.0
 40
2.0
 40
3.0
 40
3.0
 40
3.0
 40
4.0
 40
4.0
 40
4.0
 40
4.0
 10
236.535720979667
 20
-150.374090029952
 10
235.4510111342893
 20
-150.374090029952
 10
234.5716720435261
 20
-149.4947509391888
 10
234.5716720435261
 20
-148.4100410938111
 10
234.5716720435261
 20
-147.3253312484334
 10
235.4510111342893
 20
-146.4459921576702
 10
236.535720979667
 20
-146.4459921576702
 10
237.6204308250447
 20
-146.4459921576702
 10
238.4997699158079
 20
-147.3253312484334
 10
238.4997699158079
 20
-148.4100410938111
 10
238.4997699158079
 20
-149.4947509391888
 10
237.6204308250447
 20
-150.374090029952
 10
236.535720979667
 20
-150.374090029952
 97
        0
 97
        0
 92
        1
 93
        1
 72
     4
 94
        3
 73
     0
 74
     1
 95
       17
 96
       13
 40
0.0
 40
0.0
 40
0.0
 40
0.0
 40
1.0
 40
1.0
 40
1.0
 40
2.0
 40
2.0
 40
2.0
 40
3.0
 40
3.0
 40
3.0
 40
4.0
 40
4.0
 40
4.0
 40
4.0
 10
236.535720979667
 20
-118.3920413251112
 10
235.4510111342893
 20
-118.3920413251112
 10
234.5716720435261
 20
-117.512702234348
 10
234.5716720435261
 20
-116.4279923889703
 10
234.5716720435261
 20
-115.3432825435926
 10
235.4510111342893
 20
-114.4639434528293
 10
236.535720979667
 20
-114.4639434528293
 10
237.6204308250447
 20
-114.4639434528293
 10
238.4997699158079
 20
-115.3432825435926
 10
238.4997699158079
 20
-116.4279923889703
 10
238.4997699158079
 20
-117.512702234348
 10
237.6204308250447
 20
-118.3920413251112
 10
236.535720979667
 20
-118.3920413251112
 97
        0
 97
        0
 92
        1
 93
        1
 72
     4
 94
        3
 73
     0
 74
     1
 95
       17
 96
       13
 40
0.0
 40
0.0
 40
0.0
 40
0.0
 40
1.0
 40
1.0
 40
1.0
 40
2.0
 40
2.0
 40
2.0
 40
3.0
 40
3.0
 40
3.0
 40
4.0
 40
4.0
 40
4.0
 40
4.0
 10
236.535720979667
 20
-86.40999262027033
 10
235.4510111342893
 20
-86.40999262027033
 10
234.5716720435261
 20
-85.53065352950709
 10
234.5716720435261
 20
-84.4459436841294
 10
234.5716720435261
 20
-83.36123383875172
 10
235.4510111342893
 20
-82.48189474798848
 10
236.535720979667
 20
-82.48189474798848
 10
237.6204308250447
 20
-82.48189474798848
 10
238.4997699158079
 20
-83.36123383875172
 10
238.4997699158079
 20
-84.4459436841294
 10
238.4997699158079
 20
-85.53065352950709
 10
237.6204308250447
 20
-86.40999262027033
 10
236.535720979667
 20
-86.40999262027033
 97
        0
 97
        0
 92
        1
 93
        1
 72
     4
 94
        3
 73
     0
 74
     1
 95
       17
 96
       13
 40
0.0
 40
0.0
 40
0.0
 40
0.0
 40
1.0
 40
1.0
 40
1.0
 40
2.0
 40
2.0
 40
2.0
 40
3.0
 40
3.0
 40
3.0
 40
4.0
 40
4.0
 40
4.0
 40
4.0
 10
236.4997843273865
 20
-55.42766756155541
 10
235.3952005874283
 20
-55.42766756155541
 10
234.4997772071183
 20
-54.53224418124541
 10
234.4997772071183
 20
-53.42766044128719
 10
234.4997772071183
 20
-52.32309823317574
 10
235.3952005874283
 20
-51.42767485286574
 10
236.4997843273865
 20
-51.42767485286574
 10
237.6043465354979
 20
-51.42767485286574
 10
238.4997699158079
 20
-52.32309823317574
 10
238.4997699158079
 20
-53.42766044128719
 10
238.4997699158079
 20
-54.53224418124541
 10
237.6043465354979
 20
-55.42766756155541
 10
236.4997843273865
 20
-55.42766756155541
 97
        0
 97
        0
 75
     2
 76
     1
 98
        0
  0
SPLINE
  5
53
330
1F
100
AcDbEntity
  8
Layer 1
 62
   250
420
  2301728
370
    35
100
AcDbSpline
210
0.0
220
0.0
230
1.0
 70
    11
 71
     3
 72
    47
 73
    43
 74
     0
 42
0.0000000001
 43
0.0000000001
 12
1.0
 22
0.0
 32
0.0
 13
1.0
 23
0.0
 33
0.0
 40
0.0
 40
0.0
 40
0.0
 40
0.0
 40
1.0
 40
1.0
 40
1.0
 40
2.0
 40
2.0
 40
2.0
 40
3.0
 40
3.0
 40
3.0
 40
4.0
 40
4.0
 40
4.0
 40
5.0
 40
5.0
 40
5.0
 40
6.0
 40
6.0
 40
6.0
 40
7.0
 40
7.0
 40
7.0
 40
8.0
 40
8.0
 40
8.0
 40
9.0
 40
9.0
 40
9.0
 40
10.0
 40
10.0
 40
10.0
 40
11.0
 40
11.0
 40
11.0
 40
12.0
 40
12.0
 40
12.0
 40
13.0
 40
13.0
 40
13.0
 40
14.0
 40
14.0
 40
14.0
 40
14.0
 10
270.7679471504612
 20
-281.1195116823786
 30
0.0
 10
270.7679471504612
 20
-281.1195116823786
 30
0.0
 10
270.7679471504612
 20
-221.4830786257273
 30
0.0
 10
270.7679471504612
 20
-221.4830786257273
 30
0.0
 10
270.7679471504612
 20
-214.1015955071842
 30
0.0
 10
264.7840746747436
 20
-208.1177014996199
 30
0.0
 10
257.4025700243538
 20
-208.1177014996199
 30
0.0
 10
257.4025700243538
 20
-208.1177014996199
 30
0.0
 10
34.13333858060512
 20
-208.1177014996199
 30
0.0
 10
34.13333858060512
 20
-208.1177014996199
 30
0.0
 10
26.75183393021526
 20
-208.1177014996199
 30
0.0
 10
20.76796145449768
 20
-214.1015955071842
 30
0.0
 10
20.76796145449768
 20
-221.4830786257273
 30
0.0
 10
20.76796145449768
 20
-221.4830786257273
 30
0.0
 10
20.76796145449768
 20
-281.1536611913761
 30
0.0
 10
20.76796145449768
 20
-281.1536611913761
 30
0.0
 10
21.85267129987538
 20
-281.1536611913761
 30
0.0
 10
22.73201039063861
 20
-282.0329787502926
 30
0.0
 10
22.73201039063861
 20
-283.117710127517
 30
0.0
 10
22.73201039063861
 20
-284.2024199728947
 30
0.0
 10
21.85267129987538
 20
-285.081759063658
 30
0.0
 10
20.76796145449768
 20
-285.081759063658
 30
0.0
 10
20.76796145449768
 20
-285.081759063658
 30
0.0
 10
20.76796145449768
 20
-344.7523200974599
 30
0.0
 10
20.76796145449768
 20
-344.7523200974599
 30
0.0
 10
20.76796145449768
 20
-352.1338247478498
 30
0.0
 10
26.75183393021526
 20
-358.1176972235674
 30
0.0
 10
34.13333858060512
 20
-358.1176972235674
 30
0.0
 10
34.13333858060512
 20
-358.1176972235674
 30
0.0
 10
257.4025700243538
 20
-358.1176972235674
 30
0.0
 10
257.4025700243538
 20
-358.1176972235674
 30
0.0
 10
264.7840746747436
 20
-358.1176972235674
 30
0.0
 10
270.7679471504612
 20
-352.1338247478498
 30
0.0
 10
270.7679471504612
 20
-344.7523200974599
 30
0.0
 10
270.7679471504612
 20
-344.7523200974599
 30
0.0
 10
270.7679471504612
 20
-285.1158870408087
 30
0.0
 10
270.7679471504612
 20
-285.1158870408087
 30
0.0
 10
269.6801582509936
 20
-285.0965083787042
 30
0.0
 10
268.8038982143203
 20
-284.210128374043
 30
0.0
 10
268.8038982143203
 20
-283.117710127517
 30
0.0
 10
268.8038982143203
 20
-282.0252703491443
 30
0.0
 10
269.6801582509936
 20
-281.1388903444831
 30
0.0
 10
270.7679471504612
 20
-281.1195116823786
 30
0.0
  0
HATCH
  5
54
330
1F
100
AcDbEntity
  8
Layer 1
 62
   254
420
 13750996
100
AcDbHatch
 10
0.0
 20
0.0
 30
0.0
210
0.0
220
0.0
230
1.0
  2
SOLID
 70
     1
 71
     0
 91
        1
 92
        1
 93
        1
 72
     4
 94
        3
 73
     0
 74
     1
 95
       47
 96
       43
 40
0.0
 40
0.0
 40
0.0
 40
0.0
 40
1.0
 40
1.0
 40
1.0
 40
2.0
 40
2.0
 40
2.0
 40
3.0
 40
3.0
 40
3.0
 40
4.0
 40
4.0
 40
4.0
 40
5.0
 40
5.0
 40
5.0
 40
6.0
 40
6.0
 40
6.0
 40
7.0
 40
7.0
 40
7.0
 40
8.0
 40
8.0
 40
8.0
 40
9.0
 40
9.0
 40
9.0
 40
10.0
 40
10.0
 40
10.0
 40
11.0
 40
11.0
 40
11.0
 40
12.0
 40
12.0
 40
12.0
 40
13.0
 40
13.0
 40
13.0
 40
14.0
 40
14.0
 40
14.0
 40
14.0
 10
270.7679471504612
 20
-281.1195116823786
 10
270.7679471504612
 20
-281.1195116823786
 10
270.7679471504612
 20
-221.4830786257273
 10
270.7679471504612
 20
-221.4830786257273
 10
270.7679471504612
 20
-214.1015955071842
 10
264.7840746747436
 20
-208.1177014996199
 10
257.4025700243538
 20
-208.1177014996199
 10
257.4025700243538
 20
-208.1177014996199
 10
34.13333858060512
 20
-208.1177014996199
 10
34.13333858060512
 20
-208.1177014996199
 10
26.75183393021526
 20
-208.1177014996199
 10
20.76796145449768
 20
-214.1015955071842
 10
20.76796145449768
 20
-221.4830786257273
 10
20.76796145449768
 20
-221.4830786257273
 10
20.76796145449768
 20
-281.1536611913761
 10
20.76796145449768
 20
-281.1536611913761
 10
21.85267129987538
 20
-281.1536611913761
 10
22.73201039063861
 20
-282.0329787502926
 10
22.73201039063861
 20
-283.117710127517
 10
22.73201039063861
 20
-284.2024199728947
 10
21.85267129987538
 20
-285.081759063658
 10
20.76796145449768
 20
-285.081759063658
 10
20.76796145449768
 20
-285.081759063658
 10
20.76796145449768
 20
-344.7523200974599
 10
20.76796145449768
 20
-344.7523200974599
 10
20.76796145449768
 20
-352.1338247478498
 10
26.75183393021526
 20
-358.1176972235674
 10
34.13333858060512
 20
-358.1176972235674
 10
34.13333858060512
 20
-358.1176972235674
 10
257.4025700243538
 20
-358.1176972235674
 10
257.4025700243538
 20
-358.1176972235674
 10
264.7840746747436
 20
-358.1176972235674
 10
270.7679471504612
 20
-352.1338247478498
 10
270.7679471504612
 20
-344.7523200974599
 10
270.7679471504612
 20
-344.7523200974599
 10
270.7679471504612
 20
-285.1158870408087
 10
270.7679471504612
 20
-285.1158870408087
 10
269.6801582509936
 20
-285.0965083787042
 10
268.8038982143203
 20
-284.210128374043
 10
268.8038982143203
 20
-283.117710127517
 10
268.8038982143203
 20
-282.0252703491443
 10
269.6801582509936
 20
-281.1388903444831
 10
270.7679471504612
 20
-281.1195116823786
 97
        0
 97
        0
 75
     2
 76
     1
 98
        0
  0
ENDSEC
  0
SECTION
  2
OBJECTS
  0
DICTIONARY
  5
C
330
0
100
AcDbDictionary
281
     1
  3
ACAD_GROUP
350
D
  3
ACAD_LAYOUT
350
1A
  3
ACAD_MATERIAL
350
3B
  3
ACAD_MLEADERSTYLE
350
56
  3
ACAD_MLINESTYLE
350
17
  3
ACAD_PLOTSETTINGS
350
19
  3
ACAD_PLOTSTYLENAME
350
E
  3
ACAD_TABLESTYLE
350
55
  3
ACAD_VISUALSTYLE
350
2A
  0
SUN
  5
3F
330
29
100
AcDbSun
 90
        1
290
     0
 63
     7
421
 16777215
 40
1.0
291
     1
 91
  2455826
 92
 54000000
292
     0
 70
     2
 71
   256
280
     1
  0
DICTIONARY
  5
D
102
{ACAD_REACTORS
330
C
102
}
330
C
100
AcDbDictionary
281
     1
  0
DICTIONARY
  5
1A
102
{ACAD_REACTORS
330
C
102
}
330
C
100
AcDbDictionary
281
     1
  3
Layout1
350
1E
  3
Layout2
350
26
  3
Model
350
22
  0
DICTIONARY
  5
3B
102
{ACAD_REACTORS
330
C
102
}
330
C
100
AcDbDictionary
281
     1
  3
ByBlock
350
3D
  3
ByLayer
350
3C
  3
Global
350
3E
  0
DICTIONARY
  5
56
102
{ACAD_REACTORS
330
C
102
}
330
C
100
AcDbDictionary
281
     1
  0
DICTIONARY
  5
17
102
{ACAD_REACTORS
330
C
102
}
330
C
100
AcDbDictionary
281
     1
  3
Standard
350
18
  0
DICTIONARY
  5
19
102
{ACAD_REACTORS
330
C
102
}
330
C
100
AcDbDictionary
281
     1
  0
ACDBDICTIONARYWDFLT
  5
E
102
{ACAD_REACTORS
330
C
102
}
330
C
100
AcDbDictionary
281
     1
  3
Normal
350
F
100
AcDbDictionaryWithDefault
340
F
  0
DICTIONARY
  5
55
102
{ACAD_REACTORS
330
C
102
}
330
C
100
AcDbDictionary
281
     1
  0
DICTIONARY
  5
2A
102
{ACAD_REACTORS
330
C
102
}
330
C
100
AcDbDictionary
281
     1
  3
2dWireframe
350
2F
  3
3D Hidden
350
31
  3
3dWireframe
350
30
  3
Basic
350
32
  3
Brighten
350
36
  3
ColorChange
350
3A
  3
Conceptual
350
34
  3
Dim
350
35
  3
Facepattern
350
39
  3
Flat
350
2B
  3
FlatWithEdges
350
2C
  3
Gouraud
350
2D
  3
GouraudWithEdges
350
2E
  3
Linepattern
350
38
  3
Realistic
350
33
  3
Thicken
350
37
  0
LAYOUT
  5
1E
102
{ACAD_REACTORS
330
1A
102
}
330
1A
100
AcDbPlotSettings
  1

  2
none_device
  4

  6

 40
0.0
 41
0.0
 42
0.0
 43
0.0
 44
0.0
 45
0.0
 46
0.0
 47
0.0
 48
0.0
 49
0.0
140
0.0
141
0.0
142
1.0
143
1.0
 70
   688
 72
     0
 73
     0
 74
     5
  7

 75
    16
 76
     0
 77
     2
 78
   300
147
1.0
148
0.0
149
0.0
100
AcDbLayout
  1
Layout1
 70
     1
 71
     1
 10
0.0
 20
0.0
 11
12.0
 21
9.0
 12
0.0
 22
0.0
 32
0.0
 14
1.000000000000000E+20
 24
1.000000000000000E+20
 34
1.000000000000000E+20
 15
-1.000000000000000E+20
 25
-1.000000000000000E+20
 35
-1.000000000000000E+20
146
0.0
 13
0.0
 23
0.0
 33
0.0
 16
1.0
 26
0.0
 36
0.0
 17
0.0
 27
1.0
 37
0.0
 76
     0
330
1B
  0
LAYOUT
  5
26
102
{ACAD_REACTORS
330
1A
102
}
330
1A
100
AcDbPlotSettings
  1

  2
none_device
  4

  6

 40
0.0
 41
0.0
 42
0.0
 43
0.0
 44
0.0
 45
0.0
 46
0.0
 47
0.0
 48
0.0
 49
0.0
140
0.0
141
0.0
142
1.0
143
1.0
 70
   688
 72
     0
 73
     0
 74
     5
  7

 75
    16
 76
     0
 77
     2
 78
   300
147
1.0
148
0.0
149
0.0
100
AcDbLayout
  1
Layout2
 70
     1
 71
     2
 10
0.0
 20
0.0
 11
0.0
 21
0.0
 12
0.0
 22
0.0
 32
0.0
 14
0.0
 24
0.0
 34
0.0
 15
0.0
 25
0.0
 35
0.0
146
0.0
 13
0.0
 23
0.0
 33
0.0
 16
1.0
 26
0.0
 36
0.0
 17
0.0
 27
1.0
 37
0.0
 76
     0
330
23
  0
LAYOUT
  5
22
102
{ACAD_REACTORS
330
1A
102
}
330
1A
100
AcDbPlotSettings
  1

  2
none_device
  4

  6

 40
0.0
 41
0.0
 42
0.0
 43
0.0
 44
0.0
 45
0.0
 46
0.0
 47
0.0
 48
0.0
 49
0.0
140
0.0
141
0.0
142
1.0
143
1.0
 70
  1712
 72
     0
 73
     0
 74
     0
  7

 75
     0
 76
     0
 77
     2
 78
   300
147
1.0
148
0.0
149
0.0
100
AcDbLayout
  1
Model
 70
     1
 71
     0
 10
0.0
 20
0.0
 11
12.0
 21
9.0
 12
0.0
 22
0.0
 32
0.0
 14
1.000000000000000E+20
 24
1.000000000000000E+20
 34
1.000000000000000E+20
 15
-1.000000000000000E+20
 25
-1.000000000000000E+20
 35
-1.000000000000000E+20
146
0.0
 13
0.0
 23
0.0
 33
0.0
 16
1.0
 26
0.0
 36
0.0
 17
0.0
 27
1.0
 37
0.0
 76
     0
330
1F
331
29
  0
MATERIAL
  5
3D
102
{ACAD_REACTORS
330
3B
102
}
330
3B
100
AcDbMaterial
  1
ByBlock
 72
     1
 94
      127
  0
MATERIAL
  5
3C
102
{ACAD_REACTORS
330
3B
102
}
330
3B
100
AcDbMaterial
  1
ByLayer
 72
     1
 94
      127
  0
MATERIAL
  5
3E
102
{ACAD_REACTORS
330
3B
102
}
330
3B
100
AcDbMaterial
  1
Global
 72
     1
 94
      127
  0
MLINESTYLE
  5
18
102
{ACAD_REACTORS
330
17
102
}
330
17
100
AcDbMlineStyle
  2
Standard
 70
     0
  3

 62
   256
 51
90.0
 52
90.0
 71
     2
 49
0.5
 62
   256
  6
BYLAYER
 49
-0.5
 62
   256
  6
BYLAYER
  0
ACDBPLACEHOLDER
  5
F
102
{ACAD_REACTORS
330
E
102
}
330
E
  0
VISUALSTYLE
  5
2F
102
{ACAD_REACTORS
330
2A
102
}
330
2A
100
AcDbVisualStyle
  2
2dWireframe
 70
     4
177
     2
291
     0
 71
     0
176
     1
 72
     2
176
     1
 73
     0
176
     1
 90
        0
176
     1
 40
-0.6
176
     1
 41
-30.0
176
     1
 62
     5
 63
     7
421
 16777215
176
     1
 74
     1
176
     1
 91
        4
176
     1
 64
     7
176
     1
 65
   257
176
     1
 75
     1
176
     1
175
     1
176
     1
 42
1.0
176
     1
 92
        0
176
     1
 66
   257
176
     1
 43
1.0
176
     1
 76
     1
176
     1
 77
     6
176
     1
 78
     2
176
     1
 67
     7
176
     1
 79
     5
176
     1
170
     0
176
     1
171
     0
176
     1
290
     0
176
     1
 93
        1
176
     1
 44
0.0
176
     1
173
     0
176
     1
  0
VISUALSTYLE
  5
31
102
{ACAD_REACTORS
330
2A
102
}
330
2A
100
AcDbVisualStyle
  2
3D Hidden
 70
     6
177
     2
291
     0
 71
     1
176
     1
 72
     2
176
     1
 73
     2
176
     1
 90
        0
176
     1
 40
-0.6
176
     1
 41
-30.0
176
     1
 62
     5
 63
     7
421
 16777215
176
     1
 74
     2
176
     1
 91
        2
176
     1
 64
     7
176
     1
 65
   257
176
     1
 75
     2
176
     1
175
     1
176
     1
 42
40.0
176
     1
 92
        0
176
     1
 66
   257
176
     1
 43
1.0
176
     1
 76
     1
176
     1
 77
     6
176
     1
 78
     2
176
     1
 67
     7
176
     1
 79
     3
176
     1
170
     0
176
     1
171
     0
176
     1
290
     0
176
     1
 93
        1
176
     1
 44
0.0
176
     1
173
     0
176
     1
  0
VISUALSTYLE
  5
30
102
{ACAD_REACTORS
330
2A
102
}
330
2A
100
AcDbVisualStyle
  2
3dWireframe
 70
     5
177
     2
291
     0
 71
     0
176
     1
 72
     2
176
     1
 73
     0
176
     1
 90
        0
176
     1
 40
-0.6
176
     1
 41
-30.0
176
     1
 62
     5
 63
     7
421
 16777215
176
     1
 74
     1
176
     1
 91
        4
176
     1
 64
     7
176
     1
 65
   257
176
     1
 75
     1
176
     1
175
     1
176
     1
 42
1.0
176
     1
 92
        0
176
     1
 66
   257
176
     1
 43
1.0
176
     1
 76
     1
176
     1
 77
     6
176
     1
 78
     2
176
     1
 67
     7
176
     1
 79
     5
176
     1
170
     0
176
     1
171
     0
176
     1
290
     0
176
     1
 93
        1
176
     1
 44
0.0
176
     1
173
     0
176
     1
  0
VISUALSTYLE
  5
32
102
{ACAD_REACTORS
330
2A
102
}
330
2A
100
AcDbVisualStyle
  2
Basic
 70
     7
177
     2
291
     1
 71
     1
176
     1
 72
     0
176
     1
 73
     1
176
     1
 90
        0
176
     1
 40
-0.6
176
     1
 41
-30.0
176
     1
 62
     5
 63
     7
421
 16777215
176
     1
 74
     0
176
     1
 91
        4
176
     1
 64
     7
176
     1
 65
   257
176
     1
 75
     1
176
     1
175
     1
176
     1
 42
1.0
176
     1
 92
        8
176
     1
 66
     7
176
     1
 43
1.0
176
     1
 76
     1
176
     1
 77
     6
176
     1
 78
     2
176
     1
 67
     7
176
     1
 79
     5
176
     1
170
     0
176
     1
171
     0
176
     1
290
     0
176
     1
 93
        1
176
     1
 44
0.0
176
     1
173
     0
176
     1
  0
VISUALSTYLE
  5
36
102
{ACAD_REACTORS
330
2A
102
}
330
2A
100
AcDbVisualStyle
  2
Brighten
 70
    12
177
     2
291
     1
 71
     2
176
     1
 72
     2
176
     1
 73
     0
176
     1
 90
        0
176
     1
 40
-0.6
176
     1
 41
-30.0
176
     1
 62
     5
 63
     7
421
 16777215
176
     1
 74
     1
176
     1
 91
        4
176
     1
 64
     7
176
     1
 65
   257
176
     1
 75
     1
176
     1
175
     1
176
     1
 42
1.0
176
     1
 92
        8
176
     1
 66
     7
176
     1
 43
1.0
176
     1
 76
     1
176
     1
 77
     6
176
     1
 78
     2
176
     1
 67
     7
176
     1
 79
     5
176
     1
170
     0
176
     1
171
     0
176
     1
290
     0
176
     1
 93
        1
176
     1
 44
50.0
176
     1
173
     0
176
     1
  0
VISUALSTYLE
  5
3A
102
{ACAD_REACTORS
330
2A
102
}
330
2A
100
AcDbVisualStyle
  2
ColorChange
 70
    16
177
     2
291
     1
 71
     2
176
     1
 72
     2
176
     1
 73
     3
176
     1
 90
        0
176
     1
 40
-0.6
176
     1
 41
-30.0
176
     1
 62
     5
 63
     8
421
  8421504
176
     1
 74
     1
176
     1
 91
        4
176
     1
 64
     7
176
     1
 65
   257
176
     1
 75
     1
176
     1
175
     1
176
     1
 42
1.0
176
     1
 92
        8
176
     1
 66
     8
424
  8421504
176
     1
 43
1.0
176
     1
 76
     1
176
     1
 77
     6
176
     1
 78
     2
176
     1
 67
     7
176
     1
 79
     5
176
     1
170
     0
176
     1
171
     0
176
     1
290
     0
176
     1
 93
        1
176
     1
 44
0.0
176
     1
173
     0
176
     1
  0
VISUALSTYLE
  5
34
102
{ACAD_REACTORS
330
2A
102
}
330
2A
100
AcDbVisualStyle
  2
Conceptual
 70
     9
177
     2
291
     0
 71
     3
176
     1
 72
     2
176
     1
 73
     0
176
     1
 90
        0
176
     1
 40
-0.6
176
     1
 41
-30.0
176
     1
 62
     5
 63
     7
421
 16777215
176
     1
 74
     2
176
     1
 91
        2
176
     1
 64
     7
176
     1
 65
   257
176
     1
 75
     1
176
     1
175
     1
176
     1
 42
40.0
176
     1
 92
        8
176
     1
 66
     7
176
     1
 43
1.0
176
     1
 76
     1
176
     1
 77
     6
176
     1
 78
     2
176
     1
 67
     7
176
     1
 79
     3
176
     1
170
     0
176
     1
171
     0
176
     1
290
     0
176
     1
 93
        1
176
     1
 44
0.0
176
     1
173
     0
176
     1
  0
VISUALSTYLE
  5
35
102
{ACAD_REACTORS
330
2A
102
}
330
2A
100
AcDbVisualStyle
  2
Dim
 70
    11
177
     2
291
     1
 71
     2
176
     1
 72
     2
176
     1
 73
     0
176
     1
 90
        0
176
     1
 40
-0.6
176
     1
 41
-30.0
176
     1
 62
     5
 63
     7
421
 16777215
176
     1
 74
     1
176
     1
 91
        4
176
     1
 64
     7
176
     1
 65
   257
176
     1
 75
     1
176
     1
175
     1
176
     1
 42
1.0
176
     1
 92
        8
176
     1
 66
     7
176
     1
 43
1.0
176
     1
 76
     1
176
     1
 77
     6
176
     1
 78
     2
176
     1
 67
     7
176
     1
 79
     5
176
     1
170
     0
176
     1
171
     0
176
     1
290
     0
176
     1
 93
        1
176
     1
 44
-50.0
176
     1
173
     0
176
     1
  0
VISUALSTYLE
  5
39
102
{ACAD_REACTORS
330
2A
102
}
330
2A
100
AcDbVisualStyle
  2
Facepattern
 70
    15
177
     2
291
     1
 71
     2
176
     1
 72
     2
176
     1
 73
     0
176
     1
 90
        0
176
     1
 40
-0.6
176
     1
 41
-30.0
176
     1
 62
     5
 63
     7
421
 16777215
176
     1
 74
     1
176
     1
 91
        4
176
     1
 64
     7
176
     1
 65
   257
176
     1
 75
     1
176
     1
175
     1
176
     1
 42
1.0
176
     1
 92
        8
176
     1
 66
     7
176
     1
 43
1.0
176
     1
 76
     1
176
     1
 77
     6
176
     1
 78
     2
176
     1
 67
     7
176
     1
 79
     5
176
     1
170
     0
176
     1
171
     0
176
     1
290
     0
176
     1
 93
        1
176
     1
 44
0.0
176
     1
173
     0
176
     1
  0
VISUALSTYLE
  5
2B
102
{ACAD_REACTORS
330
2A
102
}
330
2A
100
AcDbVisualStyle
  2
Flat
 70
     0
177
     2
291
     1
 71
     2
176
     1
 72
     1
176
     1
 73
     1
176
     1
 90
        2
176
     1
 40
-0.6
176
     1
 41
30.0
176
     1
 62
     5
 63
     7
421
 16777215
176
     1
 74
     0
176
     1
 91
        4
176
     1
 64
     7
176
     1
 65
   257
176
     1
 75
     1
176
     1
175
     1
176
     1
 42
1.0
176
     1
 92
        8
176
     1
 66
     7
176
     1
 43
1.0
176
     1
 76
     1
176
     1
 77
     6
176
     1
 78
     2
176
     1
 67
     7
176
     1
 79
     5
176
     1
170
     0
176
     1
171
     0
176
     1
290
     0
176
     1
 93
       13
176
     1
 44
0.0
176
     1
173
     0
176
     1
  0
VISUALSTYLE
  5
2C
102
{ACAD_REACTORS
330
2A
102
}
330
2A
100
AcDbVisualStyle
  2
FlatWithEdges
 70
     1
177
     2
291
     1
 71
     2
176
     1
 72
     1
176
     1
 73
     1
176
     1
 90
        2
176
     1
 40
-0.6
176
     1
 41
30.0
176
     1
 62
     5
 63
     7
421
 16777215
176
     1
 74
     1
176
     1
 91
        4
176
     1
 64
     7
176
     1
 65
   257
176
     1
 75
     1
176
     1
175
     1
176
     1
 42
1.0
176
     1
 92
        0
176
     1
 66
   257
176
     1
 43
1.0
176
     1
 76
     1
176
     1
 77
     6
176
     1
 78
     2
176
     1
 67
     7
176
     1
 79
     5
176
     1
170
     0
176
     1
171
     0
176
     1
290
     0
176
     1
 93
       13
176
     1
 44
0.0
176
     1
173
     0
176
     1
  0
VISUALSTYLE
  5
2D
102
{ACAD_REACTORS
330
2A
102
}
330
2A
100
AcDbVisualStyle
  2
Gouraud
 70
     2
177
     2
291
     1
 71
     2
176
     1
 72
     2
176
     1
 73
     1
176
     1
 90
        2
176
     1
 40
-0.6
176
     1
 41
30.0
176
     1
 62
     5
 63
     7
421
 16777215
176
     1
 74
     0
176
     1
 91
        4
176
     1
 64
     7
176
     1
 65
   257
176
     1
 75
     1
176
     1
175
     1
176
     1
 42
1.0
176
     1
 92
        0
176
     1
 66
     7
176
     1
 43
1.0
176
     1
 76
     1
176
     1
 77
     6
176
     1
 78
     2
176
     1
 67
     7
176
     1
 79
     5
176
     1
170
     0
176
     1
171
     0
176
     1
290
     0
176
     1
 93
       13
176
     1
 44
0.0
176
     1
173
     0
176
     1
  0
VISUALSTYLE
  5
2E
102
{ACAD_REACTORS
330
2A
102
}
330
2A
100
AcDbVisualStyle
  2
GouraudWithEdges
 70
     3
177
     2
291
     1
 71
     2
176
     1
 72
     2
176
     1
 73
     1
176
     1
 90
        2
176
     1
 40
-0.6
176
     1
 41
30.0
176
     1
 62
     5
 63
     7
421
 16777215
176
     1
 74
     1
176
     1
 91
        4
176
     1
 64
     7
176
     1
 65
   257
176
     1
 75
     1
176
     1
175
     1
176
     1
 42
1.0
176
     1
 92
        0
176
     1
 66
   257
176
     1
 43
1.0
176
     1
 76
     1
176
     1
 77
     6
176
     1
 78
     2
176
     1
 67
     7
176
     1
 79
     5
176
     1
170
     0
176
     1
171
     0
176
     1
290
     0
176
     1
 93
       13
176
     1
 44
0.0
176
     1
173
     0
176
     1
  0
VISUALSTYLE
  5
38
102
{ACAD_REACTORS
330
2A
102
}
330
2A
100
AcDbVisualStyle
  2
Linepattern
 70
    14
177
     2
291
     1
 71
     2
176
     1
 72
     2
176
     1
 73
     0
176
     1
 90
        0
176
     1
 40
-0.6
176
     1
 41
-30.0
176
     1
 62
     5
 63
     7
421
 16777215
176
     1
 74
     1
176
     1
 91
        4
176
     1
 64
     7
176
     1
 65
   257
176
     1
 75
     7
176
     1
175
     7
176
     1
 42
1.0
176
     1
 92
        8
176
     1
 66
     7
176
     1
 43
1.0
176
     1
 76
     1
176
     1
 77
     6
176
     1
 78
     2
176
     1
 67
     7
176
     1
 79
     5
176
     1
170
     0
176
     1
171
     0
176
     1
290
     0
176
     1
 93
        1
176
     1
 44
0.0
176
     1
173
     0
176
     1
  0
VISUALSTYLE
  5
33
102
{ACAD_REACTORS
330
2A
102
}
330
2A
100
AcDbVisualStyle
  2
Realistic
 70
     8
177
     2
291
     0
 71
     2
176
     1
 72
     2
176
     1
 73
     0
176
     1
 90
        0
176
     1
 40
-0.6
176
     1
 41
-30.0
176
     1
 62
     5
 63
     7
421
 16777215
176
     1
 74
     1
176
     1
 91
        0
176
     1
 64
     7
176
     1
 65
   257
176
     1
 75
     1
176
     1
175
     1
176
     1
 42
1.0
176
     1
 92
        8
176
     1
 66
     8
424
  7895160
176
     1
 43
1.0
176
     1
 76
     1
176
     1
 77
     6
176
     1
 78
     2
176
     1
 67
     7
176
     1
 79
     5
176
     1
170
     0
176
     1
171
     0
176
     1
290
     0
176
     1
 93
       13
176
     1
 44
0.0
176
     1
173
     0
176
     1
  0
VISUALSTYLE
  5
37
102
{ACAD_REACTORS
330
2A
102
}
330
2A
100
AcDbVisualStyle
  2
Thicken
 70
    13
177
     2
291
     1
 71
     2
176
     1
 72
     2
176
     1
 73
     0
176
     1
 90
        0
176
     1
 40
-0.6
176
     1
 41
-30.0
176
     1
 62
     5
 63
     7
421
 16777215
176
     1
 74
     1
176
     1
 91
        4
176
     1
 64
     7
176
     1
 65
   257
176
     1
 75
     1
176
     1
175
     1
176
     1
 42
1.0
176
     1
 92
       12
176
     1
 66
     7
176
     1
 43
1.0
176
     1
 76
     1
176
     1
 77
     6
176
     1
 78
     2
176
     1
 67
     7
176
     1
 79
     5
176
     1
170
     0
176
     1
171
     0
176
     1
290
     0
176
     1
 93
        1
176
     1
 44
0.0
176
     1
173
     0
176
     1
  0
ENDSEC
  0
EOF
